G04 #@! TF.GenerationSoftware,KiCad,Pcbnew,5.0.2+dfsg1-1*
G04 #@! TF.CreationDate,2021-10-10T22:00:12+03:00*
G04 #@! TF.ProjectId,Brizer-ZigBee,4272697a-6572-42d5-9a69-674265652e6b,rev?*
G04 #@! TF.SameCoordinates,Original*
G04 #@! TF.FileFunction,Legend,Top*
G04 #@! TF.FilePolarity,Positive*
%FSLAX46Y46*%
G04 Gerber Fmt 4.6, Leading zero omitted, Abs format (unit mm)*
G04 Created by KiCad (PCBNEW 5.0.2+dfsg1-1) date Вс 10 окт 2021 22:00:12*
%MOMM*%
%LPD*%
G01*
G04 APERTURE LIST*
%ADD10C,0.150000*%
%ADD11C,0.200000*%
%ADD12R,4.700000X2.200000*%
%ADD13O,1.550000X1.550000*%
%ADD14R,1.550000X1.550000*%
%ADD15R,1.700000X2.200000*%
%ADD16R,4.000000X2.200000*%
%ADD17R,0.900000X0.710000*%
%ADD18C,0.050000*%
%ADD19C,1.525000*%
%ADD20C,1.450000*%
%ADD21C,1.175000*%
%ADD22C,1.550000*%
%ADD23R,3.150000X0.900000*%
%ADD24R,0.900000X2.490000*%
%ADD25O,1.900000X1.900000*%
%ADD26R,1.900000X1.900000*%
%ADD27R,1.800000X0.750000*%
%ADD28R,0.750000X1.800000*%
%ADD29R,1.650000X0.650000*%
%ADD30C,3.400000*%
G04 APERTURE END LIST*
D10*
X164104761Y-74042857D02*
X165095238Y-74042857D01*
X164600000Y-74538095D02*
X164600000Y-73547619D01*
X155104761Y-74042857D02*
X156095238Y-74042857D01*
X155600000Y-74538095D02*
X155600000Y-73547619D01*
X146104761Y-74042857D02*
X147095238Y-74042857D01*
X146600000Y-74538095D02*
X146600000Y-73547619D01*
X165588095Y-102028571D02*
X165588095Y-102771428D01*
X165588095Y-102400000D02*
X164288095Y-102400000D01*
X164473809Y-102523809D01*
X164597619Y-102647619D01*
X164659523Y-102771428D01*
X128138095Y-105978571D02*
X128138095Y-106721428D01*
X128138095Y-106350000D02*
X126838095Y-106350000D01*
X127023809Y-106473809D01*
X127147619Y-106597619D01*
X127209523Y-106721428D01*
X169271428Y-79188095D02*
X168528571Y-79188095D01*
X168900000Y-79188095D02*
X168900000Y-77888095D01*
X168776190Y-78073809D01*
X168652380Y-78197619D01*
X168528571Y-78259523D01*
D11*
X177050000Y-82750000D02*
X180300000Y-82750000D01*
X172650000Y-88600000D02*
X173200000Y-88300000D01*
X172650000Y-88600000D02*
X172750000Y-87950000D01*
X172650000Y-88600000D02*
X177050000Y-82750000D01*
D10*
G04 #@! TO.C,Y1*
X166150000Y-102750000D02*
X178750000Y-102750000D01*
X166150000Y-97650000D02*
X166150000Y-102750000D01*
X178750000Y-97650000D02*
X166150000Y-97650000D01*
G04 #@! TO.C,J3*
X170240000Y-78040000D02*
X171300000Y-78040000D01*
X170240000Y-79100000D02*
X170240000Y-78040000D01*
X172300000Y-78040000D02*
X174360000Y-78040000D01*
X172300000Y-80100000D02*
X172300000Y-78040000D01*
X170240000Y-80100000D02*
X172300000Y-80100000D01*
X174360000Y-78040000D02*
X174360000Y-84160000D01*
X170240000Y-80100000D02*
X170240000Y-84160000D01*
X170240000Y-84160000D02*
X174360000Y-84160000D01*
G04 #@! TO.C,J4*
X126540000Y-105160000D02*
X126540000Y-104100000D01*
X127600000Y-105160000D02*
X126540000Y-105160000D01*
X126540000Y-103100000D02*
X126540000Y-101040000D01*
X128600000Y-103100000D02*
X126540000Y-103100000D01*
X128600000Y-105160000D02*
X128600000Y-103100000D01*
X126540000Y-101040000D02*
X136660000Y-101040000D01*
X128600000Y-105160000D02*
X136660000Y-105160000D01*
X136660000Y-105160000D02*
X136660000Y-101040000D01*
G04 #@! TO.C,U4*
X148714088Y-100119033D02*
X148714088Y-94109033D01*
X155534088Y-97869033D02*
X155534088Y-94109033D01*
X148714088Y-94109033D02*
X149974088Y-94109033D01*
X155534088Y-94109033D02*
X154274088Y-94109033D01*
G04 #@! TO.C,Q3*
X157576969Y-83402419D02*
X159876969Y-83402419D01*
X159176969Y-80202419D02*
X157576969Y-80202419D01*
G04 #@! TO.C,Q1*
X176600000Y-97000000D02*
X178200000Y-97000000D01*
X178200000Y-93800000D02*
X175900000Y-93800000D01*
G04 #@! TO.C,Q2*
X178900000Y-87900000D02*
X176600000Y-87900000D01*
X177300000Y-91100000D02*
X178900000Y-91100000D01*
G04 #@! TO.C,C6*
X118490000Y-82312500D02*
X118490000Y-86522500D01*
X118490000Y-86522500D02*
X121510000Y-86522500D01*
X121510000Y-86522500D02*
X121510000Y-82312500D01*
G04 #@! TO.C,C4*
X153610000Y-88197936D02*
X153610000Y-89402064D01*
X151790000Y-88197936D02*
X151790000Y-89402064D01*
G04 #@! TO.C,C5*
X145297936Y-91590000D02*
X146502064Y-91590000D01*
X145297936Y-93410000D02*
X146502064Y-93410000D01*
G04 #@! TO.C,C1*
X169958578Y-105010000D02*
X169441422Y-105010000D01*
X169958578Y-103590000D02*
X169441422Y-103590000D01*
G04 #@! TO.C,C3*
X164421078Y-99410000D02*
X163903922Y-99410000D01*
X164421078Y-97990000D02*
X163903922Y-97990000D01*
G04 #@! TO.C,C7*
X152421078Y-102810000D02*
X151903922Y-102810000D01*
X152421078Y-101390000D02*
X151903922Y-101390000D01*
G04 #@! TO.C,C8*
X148010000Y-98041422D02*
X148010000Y-98558578D01*
X146590000Y-98041422D02*
X146590000Y-98558578D01*
G04 #@! TO.C,C2*
X176096078Y-105010000D02*
X175578922Y-105010000D01*
X176096078Y-103590000D02*
X175578922Y-103590000D01*
G04 #@! TO.C,R3*
X177421078Y-87310000D02*
X176903922Y-87310000D01*
X177421078Y-85890000D02*
X176903922Y-85890000D01*
G04 #@! TO.C,R4*
X175810000Y-89303922D02*
X175810000Y-89821078D01*
X174390000Y-89303922D02*
X174390000Y-89821078D01*
G04 #@! TO.C,R5*
X158558578Y-79410000D02*
X158041422Y-79410000D01*
X158558578Y-77990000D02*
X158041422Y-77990000D01*
G04 #@! TO.C,R6*
X165390000Y-84321078D02*
X165390000Y-83803922D01*
X166810000Y-84321078D02*
X166810000Y-83803922D01*
G04 #@! TO.C,R7*
X171821078Y-90810000D02*
X171303922Y-90810000D01*
X171821078Y-89390000D02*
X171303922Y-89390000D01*
G04 #@! TO.C,R8*
X160690000Y-80796078D02*
X160690000Y-80278922D01*
X162110000Y-80796078D02*
X162110000Y-80278922D01*
G04 #@! TO.C,R9*
X171821078Y-92910000D02*
X171303922Y-92910000D01*
X171821078Y-91490000D02*
X171303922Y-91490000D01*
G04 #@! TO.C,R1*
X176096078Y-93210000D02*
X175578922Y-93210000D01*
X176096078Y-91790000D02*
X175578922Y-91790000D01*
G04 #@! TO.C,R11*
X171821078Y-95010000D02*
X171303922Y-95010000D01*
X171821078Y-93590000D02*
X171303922Y-93590000D01*
G04 #@! TO.C,R12*
X171821078Y-97110000D02*
X171303922Y-97110000D01*
X171821078Y-95690000D02*
X171303922Y-95690000D01*
G04 #@! TO.C,R13*
X141490000Y-93458578D02*
X141490000Y-92941422D01*
X142910000Y-93458578D02*
X142910000Y-92941422D01*
G04 #@! TO.C,R14*
X142603922Y-81890000D02*
X143121078Y-81890000D01*
X142603922Y-83310000D02*
X143121078Y-83310000D01*
G04 #@! TO.C,R15*
X120308578Y-88960000D02*
X119791422Y-88960000D01*
X120308578Y-87540000D02*
X119791422Y-87540000D01*
G04 #@! TO.C,R16*
X154278922Y-84090000D02*
X154796078Y-84090000D01*
X154278922Y-85510000D02*
X154796078Y-85510000D01*
G04 #@! TO.C,R17*
X145190000Y-82021078D02*
X145190000Y-81503922D01*
X146610000Y-82021078D02*
X146610000Y-81503922D01*
G04 #@! TO.C,R22*
X156390000Y-95896078D02*
X156390000Y-95378922D01*
X157810000Y-95896078D02*
X157810000Y-95378922D01*
G04 #@! TO.C,R21*
X158490000Y-99296078D02*
X158490000Y-98778922D01*
X159910000Y-99296078D02*
X159910000Y-98778922D01*
G04 #@! TO.C,R18*
X158658578Y-85510000D02*
X158141422Y-85510000D01*
X158658578Y-84090000D02*
X158141422Y-84090000D01*
G04 #@! TO.C,R19*
X156010000Y-81503922D02*
X156010000Y-82021078D01*
X154590000Y-81503922D02*
X154590000Y-82021078D01*
G04 #@! TO.C,R20*
X160590000Y-99296078D02*
X160590000Y-98778922D01*
X162010000Y-99296078D02*
X162010000Y-98778922D01*
G04 #@! TO.C,R10*
X164310000Y-80303922D02*
X164310000Y-80821078D01*
X162890000Y-80303922D02*
X162890000Y-80821078D01*
G04 #@! TO.C,R2*
X175110000Y-95203922D02*
X175110000Y-95721078D01*
X173690000Y-95203922D02*
X173690000Y-95721078D01*
G04 #@! TO.C,J1*
X168015000Y-103100000D02*
X168015000Y-105640000D01*
X168015000Y-103100000D02*
X165475000Y-103100000D01*
X167765000Y-103350000D02*
X167765000Y-109250000D01*
X150165000Y-103350000D02*
X167765000Y-103350000D01*
X150165000Y-109250000D02*
X150165000Y-103350000D01*
X167765000Y-109250000D02*
X150165000Y-109250000D01*
G04 #@! TO.C,U3*
X124330000Y-96520000D02*
X124330000Y-94950000D01*
X124330000Y-96520000D02*
X126220000Y-96520000D01*
X136780000Y-96520000D02*
X138670000Y-96520000D01*
X138670000Y-96520000D02*
X138670000Y-94950000D01*
X138670000Y-84440000D02*
X138670000Y-73280000D01*
X138670000Y-73280000D02*
X124330000Y-73280000D01*
X124330000Y-73280000D02*
X124330000Y-84440000D01*
X124330000Y-84440000D02*
X123730000Y-84440000D01*
X139620000Y-69570000D02*
X123380000Y-69570000D01*
X123380000Y-69570000D02*
X123380000Y-84440000D01*
X123380000Y-84440000D02*
X122780000Y-84440000D01*
X139620000Y-84440000D02*
X139620000Y-69570000D01*
X137730000Y-96810000D02*
X139620000Y-96810000D01*
X139620000Y-96810000D02*
X139620000Y-95240000D01*
X123380000Y-96810000D02*
X125270000Y-96810000D01*
X123380000Y-96810000D02*
X123380000Y-95240000D01*
G04 #@! TO.C,J2*
X165670000Y-75330000D02*
X165670000Y-74000000D01*
X167000000Y-75330000D02*
X165670000Y-75330000D01*
X168270000Y-75330000D02*
X168270000Y-72670000D01*
X168270000Y-72670000D02*
X170870000Y-72670000D01*
X168270000Y-75330000D02*
X170870000Y-75330000D01*
X170870000Y-75330000D02*
X170870000Y-72670000D01*
G04 #@! TO.C,J5*
X147670000Y-75330000D02*
X147670000Y-74000000D01*
X149000000Y-75330000D02*
X147670000Y-75330000D01*
X150270000Y-75330000D02*
X150270000Y-72670000D01*
X150270000Y-72670000D02*
X152870000Y-72670000D01*
X150270000Y-75330000D02*
X152870000Y-75330000D01*
X152870000Y-75330000D02*
X152870000Y-72670000D01*
G04 #@! TO.C,J6*
X156670000Y-75330000D02*
X156670000Y-74000000D01*
X158000000Y-75330000D02*
X156670000Y-75330000D01*
X159270000Y-75330000D02*
X159270000Y-72670000D01*
X159270000Y-72670000D02*
X161870000Y-72670000D01*
X159270000Y-75330000D02*
X161870000Y-75330000D01*
X161870000Y-75330000D02*
X161870000Y-72670000D01*
G04 #@! TO.C,U1*
X160700000Y-95525000D02*
X160700000Y-96950000D01*
X160475000Y-88275000D02*
X160475000Y-88600000D01*
X167725000Y-88275000D02*
X167725000Y-88600000D01*
X167725000Y-95525000D02*
X167725000Y-95200000D01*
X160475000Y-95525000D02*
X160475000Y-95200000D01*
X167725000Y-95525000D02*
X167400000Y-95525000D01*
X167725000Y-88275000D02*
X167400000Y-88275000D01*
X160475000Y-88275000D02*
X160800000Y-88275000D01*
X160475000Y-95525000D02*
X160700000Y-95525000D01*
G04 #@! TO.C,U2*
X142550000Y-84050000D02*
X148525000Y-84050000D01*
X144075000Y-90950000D02*
X148525000Y-90950000D01*
G04 #@! TO.C,Y1*
X172230952Y-103769047D02*
X172230952Y-104388095D01*
X171797619Y-103088095D02*
X172230952Y-103769047D01*
X172664285Y-103088095D01*
X173778571Y-104388095D02*
X173035714Y-104388095D01*
X173407142Y-104388095D02*
X173407142Y-103088095D01*
X173283333Y-103273809D01*
X173159523Y-103397619D01*
X173035714Y-103459523D01*
G04 #@! TO.C,J3*
X171866666Y-76138095D02*
X171866666Y-77066666D01*
X171804761Y-77252380D01*
X171680952Y-77376190D01*
X171495238Y-77438095D01*
X171371428Y-77438095D01*
X172361904Y-76138095D02*
X173166666Y-76138095D01*
X172733333Y-76633333D01*
X172919047Y-76633333D01*
X173042857Y-76695238D01*
X173104761Y-76757142D01*
X173166666Y-76880952D01*
X173166666Y-77190476D01*
X173104761Y-77314285D01*
X173042857Y-77376190D01*
X172919047Y-77438095D01*
X172547619Y-77438095D01*
X172423809Y-77376190D01*
X172361904Y-77314285D01*
G04 #@! TO.C,J4*
X124538095Y-103533333D02*
X125466666Y-103533333D01*
X125652380Y-103595238D01*
X125776190Y-103719047D01*
X125838095Y-103904761D01*
X125838095Y-104028571D01*
X124971428Y-102357142D02*
X125838095Y-102357142D01*
X124476190Y-102666666D02*
X125404761Y-102976190D01*
X125404761Y-102171428D01*
G04 #@! TO.C,U4*
X146938095Y-96240476D02*
X147990476Y-96240476D01*
X148114285Y-96178571D01*
X148176190Y-96116666D01*
X148238095Y-95992857D01*
X148238095Y-95745238D01*
X148176190Y-95621428D01*
X148114285Y-95559523D01*
X147990476Y-95497619D01*
X146938095Y-95497619D01*
X147371428Y-94321428D02*
X148238095Y-94321428D01*
X146876190Y-94630952D02*
X147804761Y-94940476D01*
X147804761Y-94135714D01*
G04 #@! TO.C,Q3*
X161276190Y-83811904D02*
X161152380Y-83750000D01*
X161028571Y-83626190D01*
X160842857Y-83440476D01*
X160719047Y-83378571D01*
X160595238Y-83378571D01*
X160657142Y-83688095D02*
X160533333Y-83626190D01*
X160409523Y-83502380D01*
X160347619Y-83254761D01*
X160347619Y-82821428D01*
X160409523Y-82573809D01*
X160533333Y-82450000D01*
X160657142Y-82388095D01*
X160904761Y-82388095D01*
X161028571Y-82450000D01*
X161152380Y-82573809D01*
X161214285Y-82821428D01*
X161214285Y-83254761D01*
X161152380Y-83502380D01*
X161028571Y-83626190D01*
X160904761Y-83688095D01*
X160657142Y-83688095D01*
X161647619Y-82388095D02*
X162452380Y-82388095D01*
X162019047Y-82883333D01*
X162204761Y-82883333D01*
X162328571Y-82945238D01*
X162390476Y-83007142D01*
X162452380Y-83130952D01*
X162452380Y-83440476D01*
X162390476Y-83564285D01*
X162328571Y-83626190D01*
X162204761Y-83688095D01*
X161833333Y-83688095D01*
X161709523Y-83626190D01*
X161647619Y-83564285D01*
G04 #@! TO.C,Q1*
X182461904Y-95523809D02*
X182400000Y-95647619D01*
X182276190Y-95771428D01*
X182090476Y-95957142D01*
X182028571Y-96080952D01*
X182028571Y-96204761D01*
X182338095Y-96142857D02*
X182276190Y-96266666D01*
X182152380Y-96390476D01*
X181904761Y-96452380D01*
X181471428Y-96452380D01*
X181223809Y-96390476D01*
X181100000Y-96266666D01*
X181038095Y-96142857D01*
X181038095Y-95895238D01*
X181100000Y-95771428D01*
X181223809Y-95647619D01*
X181471428Y-95585714D01*
X181904761Y-95585714D01*
X182152380Y-95647619D01*
X182276190Y-95771428D01*
X182338095Y-95895238D01*
X182338095Y-96142857D01*
X182338095Y-94347619D02*
X182338095Y-95090476D01*
X182338095Y-94719047D02*
X181038095Y-94719047D01*
X181223809Y-94842857D01*
X181347619Y-94966666D01*
X181409523Y-95090476D01*
G04 #@! TO.C,Q2*
X183161904Y-89623809D02*
X183100000Y-89747619D01*
X182976190Y-89871428D01*
X182790476Y-90057142D01*
X182728571Y-90180952D01*
X182728571Y-90304761D01*
X183038095Y-90242857D02*
X182976190Y-90366666D01*
X182852380Y-90490476D01*
X182604761Y-90552380D01*
X182171428Y-90552380D01*
X181923809Y-90490476D01*
X181800000Y-90366666D01*
X181738095Y-90242857D01*
X181738095Y-89995238D01*
X181800000Y-89871428D01*
X181923809Y-89747619D01*
X182171428Y-89685714D01*
X182604761Y-89685714D01*
X182852380Y-89747619D01*
X182976190Y-89871428D01*
X183038095Y-89995238D01*
X183038095Y-90242857D01*
X181861904Y-89190476D02*
X181800000Y-89128571D01*
X181738095Y-89004761D01*
X181738095Y-88695238D01*
X181800000Y-88571428D01*
X181861904Y-88509523D01*
X181985714Y-88447619D01*
X182109523Y-88447619D01*
X182295238Y-88509523D01*
X183038095Y-89252380D01*
X183038095Y-88447619D01*
G04 #@! TO.C,C6*
X117914285Y-84266666D02*
X117976190Y-84328571D01*
X118038095Y-84514285D01*
X118038095Y-84638095D01*
X117976190Y-84823809D01*
X117852380Y-84947619D01*
X117728571Y-85009523D01*
X117480952Y-85071428D01*
X117295238Y-85071428D01*
X117047619Y-85009523D01*
X116923809Y-84947619D01*
X116800000Y-84823809D01*
X116738095Y-84638095D01*
X116738095Y-84514285D01*
X116800000Y-84328571D01*
X116861904Y-84266666D01*
X116738095Y-83152380D02*
X116738095Y-83400000D01*
X116800000Y-83523809D01*
X116861904Y-83585714D01*
X117047619Y-83709523D01*
X117295238Y-83771428D01*
X117790476Y-83771428D01*
X117914285Y-83709523D01*
X117976190Y-83647619D01*
X118038095Y-83523809D01*
X118038095Y-83276190D01*
X117976190Y-83152380D01*
X117914285Y-83090476D01*
X117790476Y-83028571D01*
X117480952Y-83028571D01*
X117357142Y-83090476D01*
X117295238Y-83152380D01*
X117233333Y-83276190D01*
X117233333Y-83523809D01*
X117295238Y-83647619D01*
X117357142Y-83709523D01*
X117480952Y-83771428D01*
G04 #@! TO.C,C4*
X155264285Y-89066666D02*
X155326190Y-89128571D01*
X155388095Y-89314285D01*
X155388095Y-89438095D01*
X155326190Y-89623809D01*
X155202380Y-89747619D01*
X155078571Y-89809523D01*
X154830952Y-89871428D01*
X154645238Y-89871428D01*
X154397619Y-89809523D01*
X154273809Y-89747619D01*
X154150000Y-89623809D01*
X154088095Y-89438095D01*
X154088095Y-89314285D01*
X154150000Y-89128571D01*
X154211904Y-89066666D01*
X154521428Y-87952380D02*
X155388095Y-87952380D01*
X154026190Y-88261904D02*
X154954761Y-88571428D01*
X154954761Y-87766666D01*
G04 #@! TO.C,C5*
X144733333Y-95064285D02*
X144671428Y-95126190D01*
X144485714Y-95188095D01*
X144361904Y-95188095D01*
X144176190Y-95126190D01*
X144052380Y-95002380D01*
X143990476Y-94878571D01*
X143928571Y-94630952D01*
X143928571Y-94445238D01*
X143990476Y-94197619D01*
X144052380Y-94073809D01*
X144176190Y-93950000D01*
X144361904Y-93888095D01*
X144485714Y-93888095D01*
X144671428Y-93950000D01*
X144733333Y-94011904D01*
X145909523Y-93888095D02*
X145290476Y-93888095D01*
X145228571Y-94507142D01*
X145290476Y-94445238D01*
X145414285Y-94383333D01*
X145723809Y-94383333D01*
X145847619Y-94445238D01*
X145909523Y-94507142D01*
X145971428Y-94630952D01*
X145971428Y-94940476D01*
X145909523Y-95064285D01*
X145847619Y-95126190D01*
X145723809Y-95188095D01*
X145414285Y-95188095D01*
X145290476Y-95126190D01*
X145228571Y-95064285D01*
G04 #@! TO.C,C1*
X169483333Y-106664285D02*
X169421428Y-106726190D01*
X169235714Y-106788095D01*
X169111904Y-106788095D01*
X168926190Y-106726190D01*
X168802380Y-106602380D01*
X168740476Y-106478571D01*
X168678571Y-106230952D01*
X168678571Y-106045238D01*
X168740476Y-105797619D01*
X168802380Y-105673809D01*
X168926190Y-105550000D01*
X169111904Y-105488095D01*
X169235714Y-105488095D01*
X169421428Y-105550000D01*
X169483333Y-105611904D01*
X170721428Y-106788095D02*
X169978571Y-106788095D01*
X170350000Y-106788095D02*
X170350000Y-105488095D01*
X170226190Y-105673809D01*
X170102380Y-105797619D01*
X169978571Y-105859523D01*
G04 #@! TO.C,C3*
X163933333Y-101064285D02*
X163871428Y-101126190D01*
X163685714Y-101188095D01*
X163561904Y-101188095D01*
X163376190Y-101126190D01*
X163252380Y-101002380D01*
X163190476Y-100878571D01*
X163128571Y-100630952D01*
X163128571Y-100445238D01*
X163190476Y-100197619D01*
X163252380Y-100073809D01*
X163376190Y-99950000D01*
X163561904Y-99888095D01*
X163685714Y-99888095D01*
X163871428Y-99950000D01*
X163933333Y-100011904D01*
X164366666Y-99888095D02*
X165171428Y-99888095D01*
X164738095Y-100383333D01*
X164923809Y-100383333D01*
X165047619Y-100445238D01*
X165109523Y-100507142D01*
X165171428Y-100630952D01*
X165171428Y-100940476D01*
X165109523Y-101064285D01*
X165047619Y-101126190D01*
X164923809Y-101188095D01*
X164552380Y-101188095D01*
X164428571Y-101126190D01*
X164366666Y-101064285D01*
G04 #@! TO.C,C7*
X148933333Y-102564285D02*
X148871428Y-102626190D01*
X148685714Y-102688095D01*
X148561904Y-102688095D01*
X148376190Y-102626190D01*
X148252380Y-102502380D01*
X148190476Y-102378571D01*
X148128571Y-102130952D01*
X148128571Y-101945238D01*
X148190476Y-101697619D01*
X148252380Y-101573809D01*
X148376190Y-101450000D01*
X148561904Y-101388095D01*
X148685714Y-101388095D01*
X148871428Y-101450000D01*
X148933333Y-101511904D01*
X149366666Y-101388095D02*
X150233333Y-101388095D01*
X149676190Y-102688095D01*
G04 #@! TO.C,C8*
X145964285Y-98516666D02*
X146026190Y-98578571D01*
X146088095Y-98764285D01*
X146088095Y-98888095D01*
X146026190Y-99073809D01*
X145902380Y-99197619D01*
X145778571Y-99259523D01*
X145530952Y-99321428D01*
X145345238Y-99321428D01*
X145097619Y-99259523D01*
X144973809Y-99197619D01*
X144850000Y-99073809D01*
X144788095Y-98888095D01*
X144788095Y-98764285D01*
X144850000Y-98578571D01*
X144911904Y-98516666D01*
X145345238Y-97773809D02*
X145283333Y-97897619D01*
X145221428Y-97959523D01*
X145097619Y-98021428D01*
X145035714Y-98021428D01*
X144911904Y-97959523D01*
X144850000Y-97897619D01*
X144788095Y-97773809D01*
X144788095Y-97526190D01*
X144850000Y-97402380D01*
X144911904Y-97340476D01*
X145035714Y-97278571D01*
X145097619Y-97278571D01*
X145221428Y-97340476D01*
X145283333Y-97402380D01*
X145345238Y-97526190D01*
X145345238Y-97773809D01*
X145407142Y-97897619D01*
X145469047Y-97959523D01*
X145592857Y-98021428D01*
X145840476Y-98021428D01*
X145964285Y-97959523D01*
X146026190Y-97897619D01*
X146088095Y-97773809D01*
X146088095Y-97526190D01*
X146026190Y-97402380D01*
X145964285Y-97340476D01*
X145840476Y-97278571D01*
X145592857Y-97278571D01*
X145469047Y-97340476D01*
X145407142Y-97402380D01*
X145345238Y-97526190D01*
G04 #@! TO.C,C2*
X175633333Y-106664285D02*
X175571428Y-106726190D01*
X175385714Y-106788095D01*
X175261904Y-106788095D01*
X175076190Y-106726190D01*
X174952380Y-106602380D01*
X174890476Y-106478571D01*
X174828571Y-106230952D01*
X174828571Y-106045238D01*
X174890476Y-105797619D01*
X174952380Y-105673809D01*
X175076190Y-105550000D01*
X175261904Y-105488095D01*
X175385714Y-105488095D01*
X175571428Y-105550000D01*
X175633333Y-105611904D01*
X176128571Y-105611904D02*
X176190476Y-105550000D01*
X176314285Y-105488095D01*
X176623809Y-105488095D01*
X176747619Y-105550000D01*
X176809523Y-105611904D01*
X176871428Y-105735714D01*
X176871428Y-105859523D01*
X176809523Y-106045238D01*
X176066666Y-106788095D01*
X176871428Y-106788095D01*
G04 #@! TO.C,R3*
X177583333Y-85388095D02*
X177150000Y-84769047D01*
X176840476Y-85388095D02*
X176840476Y-84088095D01*
X177335714Y-84088095D01*
X177459523Y-84150000D01*
X177521428Y-84211904D01*
X177583333Y-84335714D01*
X177583333Y-84521428D01*
X177521428Y-84645238D01*
X177459523Y-84707142D01*
X177335714Y-84769047D01*
X176840476Y-84769047D01*
X178016666Y-84088095D02*
X178821428Y-84088095D01*
X178388095Y-84583333D01*
X178573809Y-84583333D01*
X178697619Y-84645238D01*
X178759523Y-84707142D01*
X178821428Y-84830952D01*
X178821428Y-85140476D01*
X178759523Y-85264285D01*
X178697619Y-85326190D01*
X178573809Y-85388095D01*
X178202380Y-85388095D01*
X178078571Y-85326190D01*
X178016666Y-85264285D01*
G04 #@! TO.C,R4*
X181488095Y-89766666D02*
X180869047Y-90200000D01*
X181488095Y-90509523D02*
X180188095Y-90509523D01*
X180188095Y-90014285D01*
X180250000Y-89890476D01*
X180311904Y-89828571D01*
X180435714Y-89766666D01*
X180621428Y-89766666D01*
X180745238Y-89828571D01*
X180807142Y-89890476D01*
X180869047Y-90014285D01*
X180869047Y-90509523D01*
X180621428Y-88652380D02*
X181488095Y-88652380D01*
X180126190Y-88961904D02*
X181054761Y-89271428D01*
X181054761Y-88466666D01*
G04 #@! TO.C,R5*
X158133333Y-77538095D02*
X157700000Y-76919047D01*
X157390476Y-77538095D02*
X157390476Y-76238095D01*
X157885714Y-76238095D01*
X158009523Y-76300000D01*
X158071428Y-76361904D01*
X158133333Y-76485714D01*
X158133333Y-76671428D01*
X158071428Y-76795238D01*
X158009523Y-76857142D01*
X157885714Y-76919047D01*
X157390476Y-76919047D01*
X159309523Y-76238095D02*
X158690476Y-76238095D01*
X158628571Y-76857142D01*
X158690476Y-76795238D01*
X158814285Y-76733333D01*
X159123809Y-76733333D01*
X159247619Y-76795238D01*
X159309523Y-76857142D01*
X159371428Y-76980952D01*
X159371428Y-77290476D01*
X159309523Y-77414285D01*
X159247619Y-77476190D01*
X159123809Y-77538095D01*
X158814285Y-77538095D01*
X158690476Y-77476190D01*
X158628571Y-77414285D01*
G04 #@! TO.C,R6*
X168588095Y-84266666D02*
X167969047Y-84700000D01*
X168588095Y-85009523D02*
X167288095Y-85009523D01*
X167288095Y-84514285D01*
X167350000Y-84390476D01*
X167411904Y-84328571D01*
X167535714Y-84266666D01*
X167721428Y-84266666D01*
X167845238Y-84328571D01*
X167907142Y-84390476D01*
X167969047Y-84514285D01*
X167969047Y-85009523D01*
X167288095Y-83152380D02*
X167288095Y-83400000D01*
X167350000Y-83523809D01*
X167411904Y-83585714D01*
X167597619Y-83709523D01*
X167845238Y-83771428D01*
X168340476Y-83771428D01*
X168464285Y-83709523D01*
X168526190Y-83647619D01*
X168588095Y-83523809D01*
X168588095Y-83276190D01*
X168526190Y-83152380D01*
X168464285Y-83090476D01*
X168340476Y-83028571D01*
X168030952Y-83028571D01*
X167907142Y-83090476D01*
X167845238Y-83152380D01*
X167783333Y-83276190D01*
X167783333Y-83523809D01*
X167845238Y-83647619D01*
X167907142Y-83709523D01*
X168030952Y-83771428D01*
G04 #@! TO.C,R7*
X178483333Y-77338095D02*
X178050000Y-76719047D01*
X177740476Y-77338095D02*
X177740476Y-76038095D01*
X178235714Y-76038095D01*
X178359523Y-76100000D01*
X178421428Y-76161904D01*
X178483333Y-76285714D01*
X178483333Y-76471428D01*
X178421428Y-76595238D01*
X178359523Y-76657142D01*
X178235714Y-76719047D01*
X177740476Y-76719047D01*
X178916666Y-76038095D02*
X179783333Y-76038095D01*
X179226190Y-77338095D01*
G04 #@! TO.C,R8*
X161988095Y-77916666D02*
X161369047Y-78350000D01*
X161988095Y-78659523D02*
X160688095Y-78659523D01*
X160688095Y-78164285D01*
X160750000Y-78040476D01*
X160811904Y-77978571D01*
X160935714Y-77916666D01*
X161121428Y-77916666D01*
X161245238Y-77978571D01*
X161307142Y-78040476D01*
X161369047Y-78164285D01*
X161369047Y-78659523D01*
X161245238Y-77173809D02*
X161183333Y-77297619D01*
X161121428Y-77359523D01*
X160997619Y-77421428D01*
X160935714Y-77421428D01*
X160811904Y-77359523D01*
X160750000Y-77297619D01*
X160688095Y-77173809D01*
X160688095Y-76926190D01*
X160750000Y-76802380D01*
X160811904Y-76740476D01*
X160935714Y-76678571D01*
X160997619Y-76678571D01*
X161121428Y-76740476D01*
X161183333Y-76802380D01*
X161245238Y-76926190D01*
X161245238Y-77173809D01*
X161307142Y-77297619D01*
X161369047Y-77359523D01*
X161492857Y-77421428D01*
X161740476Y-77421428D01*
X161864285Y-77359523D01*
X161926190Y-77297619D01*
X161988095Y-77173809D01*
X161988095Y-76926190D01*
X161926190Y-76802380D01*
X161864285Y-76740476D01*
X161740476Y-76678571D01*
X161492857Y-76678571D01*
X161369047Y-76740476D01*
X161307142Y-76802380D01*
X161245238Y-76926190D01*
G04 #@! TO.C,R9*
X178483333Y-78988095D02*
X178050000Y-78369047D01*
X177740476Y-78988095D02*
X177740476Y-77688095D01*
X178235714Y-77688095D01*
X178359523Y-77750000D01*
X178421428Y-77811904D01*
X178483333Y-77935714D01*
X178483333Y-78121428D01*
X178421428Y-78245238D01*
X178359523Y-78307142D01*
X178235714Y-78369047D01*
X177740476Y-78369047D01*
X179102380Y-78988095D02*
X179350000Y-78988095D01*
X179473809Y-78926190D01*
X179535714Y-78864285D01*
X179659523Y-78678571D01*
X179721428Y-78430952D01*
X179721428Y-77935714D01*
X179659523Y-77811904D01*
X179597619Y-77750000D01*
X179473809Y-77688095D01*
X179226190Y-77688095D01*
X179102380Y-77750000D01*
X179040476Y-77811904D01*
X178978571Y-77935714D01*
X178978571Y-78245238D01*
X179040476Y-78369047D01*
X179102380Y-78430952D01*
X179226190Y-78492857D01*
X179473809Y-78492857D01*
X179597619Y-78430952D01*
X179659523Y-78369047D01*
X179721428Y-78245238D01*
G04 #@! TO.C,R1*
X178583333Y-93088095D02*
X178150000Y-92469047D01*
X177840476Y-93088095D02*
X177840476Y-91788095D01*
X178335714Y-91788095D01*
X178459523Y-91850000D01*
X178521428Y-91911904D01*
X178583333Y-92035714D01*
X178583333Y-92221428D01*
X178521428Y-92345238D01*
X178459523Y-92407142D01*
X178335714Y-92469047D01*
X177840476Y-92469047D01*
X179821428Y-93088095D02*
X179078571Y-93088095D01*
X179450000Y-93088095D02*
X179450000Y-91788095D01*
X179326190Y-91973809D01*
X179202380Y-92097619D01*
X179078571Y-92159523D01*
G04 #@! TO.C,R11*
X177864285Y-80638095D02*
X177430952Y-80019047D01*
X177121428Y-80638095D02*
X177121428Y-79338095D01*
X177616666Y-79338095D01*
X177740476Y-79400000D01*
X177802380Y-79461904D01*
X177864285Y-79585714D01*
X177864285Y-79771428D01*
X177802380Y-79895238D01*
X177740476Y-79957142D01*
X177616666Y-80019047D01*
X177121428Y-80019047D01*
X179102380Y-80638095D02*
X178359523Y-80638095D01*
X178730952Y-80638095D02*
X178730952Y-79338095D01*
X178607142Y-79523809D01*
X178483333Y-79647619D01*
X178359523Y-79709523D01*
X180340476Y-80638095D02*
X179597619Y-80638095D01*
X179969047Y-80638095D02*
X179969047Y-79338095D01*
X179845238Y-79523809D01*
X179721428Y-79647619D01*
X179597619Y-79709523D01*
G04 #@! TO.C,R12*
X177864285Y-82288095D02*
X177430952Y-81669047D01*
X177121428Y-82288095D02*
X177121428Y-80988095D01*
X177616666Y-80988095D01*
X177740476Y-81050000D01*
X177802380Y-81111904D01*
X177864285Y-81235714D01*
X177864285Y-81421428D01*
X177802380Y-81545238D01*
X177740476Y-81607142D01*
X177616666Y-81669047D01*
X177121428Y-81669047D01*
X179102380Y-82288095D02*
X178359523Y-82288095D01*
X178730952Y-82288095D02*
X178730952Y-80988095D01*
X178607142Y-81173809D01*
X178483333Y-81297619D01*
X178359523Y-81359523D01*
X179597619Y-81111904D02*
X179659523Y-81050000D01*
X179783333Y-80988095D01*
X180092857Y-80988095D01*
X180216666Y-81050000D01*
X180278571Y-81111904D01*
X180340476Y-81235714D01*
X180340476Y-81359523D01*
X180278571Y-81545238D01*
X179535714Y-82288095D01*
X180340476Y-82288095D01*
G04 #@! TO.C,R13*
X142788095Y-97498214D02*
X142169047Y-97931547D01*
X142788095Y-98241071D02*
X141488095Y-98241071D01*
X141488095Y-97745833D01*
X141550000Y-97622023D01*
X141611904Y-97560119D01*
X141735714Y-97498214D01*
X141921428Y-97498214D01*
X142045238Y-97560119D01*
X142107142Y-97622023D01*
X142169047Y-97745833D01*
X142169047Y-98241071D01*
X142788095Y-96260119D02*
X142788095Y-97002976D01*
X142788095Y-96631547D02*
X141488095Y-96631547D01*
X141673809Y-96755357D01*
X141797619Y-96879166D01*
X141859523Y-97002976D01*
X141488095Y-95826785D02*
X141488095Y-95022023D01*
X141983333Y-95455357D01*
X141983333Y-95269642D01*
X142045238Y-95145833D01*
X142107142Y-95083928D01*
X142230952Y-95022023D01*
X142540476Y-95022023D01*
X142664285Y-95083928D01*
X142726190Y-95145833D01*
X142788095Y-95269642D01*
X142788095Y-95641071D01*
X142726190Y-95764880D01*
X142664285Y-95826785D01*
G04 #@! TO.C,R14*
X142064285Y-81438095D02*
X141630952Y-80819047D01*
X141321428Y-81438095D02*
X141321428Y-80138095D01*
X141816666Y-80138095D01*
X141940476Y-80200000D01*
X142002380Y-80261904D01*
X142064285Y-80385714D01*
X142064285Y-80571428D01*
X142002380Y-80695238D01*
X141940476Y-80757142D01*
X141816666Y-80819047D01*
X141321428Y-80819047D01*
X143302380Y-81438095D02*
X142559523Y-81438095D01*
X142930952Y-81438095D02*
X142930952Y-80138095D01*
X142807142Y-80323809D01*
X142683333Y-80447619D01*
X142559523Y-80509523D01*
X144416666Y-80571428D02*
X144416666Y-81438095D01*
X144107142Y-80076190D02*
X143797619Y-81004761D01*
X144602380Y-81004761D01*
G04 #@! TO.C,R15*
X119164285Y-90738095D02*
X118730952Y-90119047D01*
X118421428Y-90738095D02*
X118421428Y-89438095D01*
X118916666Y-89438095D01*
X119040476Y-89500000D01*
X119102380Y-89561904D01*
X119164285Y-89685714D01*
X119164285Y-89871428D01*
X119102380Y-89995238D01*
X119040476Y-90057142D01*
X118916666Y-90119047D01*
X118421428Y-90119047D01*
X120402380Y-90738095D02*
X119659523Y-90738095D01*
X120030952Y-90738095D02*
X120030952Y-89438095D01*
X119907142Y-89623809D01*
X119783333Y-89747619D01*
X119659523Y-89809523D01*
X121578571Y-89438095D02*
X120959523Y-89438095D01*
X120897619Y-90057142D01*
X120959523Y-89995238D01*
X121083333Y-89933333D01*
X121392857Y-89933333D01*
X121516666Y-89995238D01*
X121578571Y-90057142D01*
X121640476Y-90180952D01*
X121640476Y-90490476D01*
X121578571Y-90614285D01*
X121516666Y-90676190D01*
X121392857Y-90738095D01*
X121083333Y-90738095D01*
X120959523Y-90676190D01*
X120897619Y-90614285D01*
G04 #@! TO.C,R16*
X152638095Y-84785714D02*
X152019047Y-85219047D01*
X152638095Y-85528571D02*
X151338095Y-85528571D01*
X151338095Y-85033333D01*
X151400000Y-84909523D01*
X151461904Y-84847619D01*
X151585714Y-84785714D01*
X151771428Y-84785714D01*
X151895238Y-84847619D01*
X151957142Y-84909523D01*
X152019047Y-85033333D01*
X152019047Y-85528571D01*
X152638095Y-83547619D02*
X152638095Y-84290476D01*
X152638095Y-83919047D02*
X151338095Y-83919047D01*
X151523809Y-84042857D01*
X151647619Y-84166666D01*
X151709523Y-84290476D01*
X151338095Y-82433333D02*
X151338095Y-82680952D01*
X151400000Y-82804761D01*
X151461904Y-82866666D01*
X151647619Y-82990476D01*
X151895238Y-83052380D01*
X152390476Y-83052380D01*
X152514285Y-82990476D01*
X152576190Y-82928571D01*
X152638095Y-82804761D01*
X152638095Y-82557142D01*
X152576190Y-82433333D01*
X152514285Y-82371428D01*
X152390476Y-82309523D01*
X152080952Y-82309523D01*
X151957142Y-82371428D01*
X151895238Y-82433333D01*
X151833333Y-82557142D01*
X151833333Y-82804761D01*
X151895238Y-82928571D01*
X151957142Y-82990476D01*
X152080952Y-83052380D01*
G04 #@! TO.C,R17*
X146488095Y-79135714D02*
X145869047Y-79569047D01*
X146488095Y-79878571D02*
X145188095Y-79878571D01*
X145188095Y-79383333D01*
X145250000Y-79259523D01*
X145311904Y-79197619D01*
X145435714Y-79135714D01*
X145621428Y-79135714D01*
X145745238Y-79197619D01*
X145807142Y-79259523D01*
X145869047Y-79383333D01*
X145869047Y-79878571D01*
X146488095Y-77897619D02*
X146488095Y-78640476D01*
X146488095Y-78269047D02*
X145188095Y-78269047D01*
X145373809Y-78392857D01*
X145497619Y-78516666D01*
X145559523Y-78640476D01*
X145188095Y-77464285D02*
X145188095Y-76597619D01*
X146488095Y-77154761D01*
G04 #@! TO.C,R22*
X157688095Y-92935714D02*
X157069047Y-93369047D01*
X157688095Y-93678571D02*
X156388095Y-93678571D01*
X156388095Y-93183333D01*
X156450000Y-93059523D01*
X156511904Y-92997619D01*
X156635714Y-92935714D01*
X156821428Y-92935714D01*
X156945238Y-92997619D01*
X157007142Y-93059523D01*
X157069047Y-93183333D01*
X157069047Y-93678571D01*
X156511904Y-92440476D02*
X156450000Y-92378571D01*
X156388095Y-92254761D01*
X156388095Y-91945238D01*
X156450000Y-91821428D01*
X156511904Y-91759523D01*
X156635714Y-91697619D01*
X156759523Y-91697619D01*
X156945238Y-91759523D01*
X157688095Y-92502380D01*
X157688095Y-91697619D01*
X156511904Y-91202380D02*
X156450000Y-91140476D01*
X156388095Y-91016666D01*
X156388095Y-90707142D01*
X156450000Y-90583333D01*
X156511904Y-90521428D01*
X156635714Y-90459523D01*
X156759523Y-90459523D01*
X156945238Y-90521428D01*
X157688095Y-91264285D01*
X157688095Y-90459523D01*
G04 #@! TO.C,R21*
X157938095Y-100035714D02*
X157319047Y-100469047D01*
X157938095Y-100778571D02*
X156638095Y-100778571D01*
X156638095Y-100283333D01*
X156700000Y-100159523D01*
X156761904Y-100097619D01*
X156885714Y-100035714D01*
X157071428Y-100035714D01*
X157195238Y-100097619D01*
X157257142Y-100159523D01*
X157319047Y-100283333D01*
X157319047Y-100778571D01*
X156761904Y-99540476D02*
X156700000Y-99478571D01*
X156638095Y-99354761D01*
X156638095Y-99045238D01*
X156700000Y-98921428D01*
X156761904Y-98859523D01*
X156885714Y-98797619D01*
X157009523Y-98797619D01*
X157195238Y-98859523D01*
X157938095Y-99602380D01*
X157938095Y-98797619D01*
X157938095Y-97559523D02*
X157938095Y-98302380D01*
X157938095Y-97930952D02*
X156638095Y-97930952D01*
X156823809Y-98054761D01*
X156947619Y-98178571D01*
X157009523Y-98302380D01*
G04 #@! TO.C,R18*
X161026785Y-85388095D02*
X160593452Y-84769047D01*
X160283928Y-85388095D02*
X160283928Y-84088095D01*
X160779166Y-84088095D01*
X160902976Y-84150000D01*
X160964880Y-84211904D01*
X161026785Y-84335714D01*
X161026785Y-84521428D01*
X160964880Y-84645238D01*
X160902976Y-84707142D01*
X160779166Y-84769047D01*
X160283928Y-84769047D01*
X162264880Y-85388095D02*
X161522023Y-85388095D01*
X161893452Y-85388095D02*
X161893452Y-84088095D01*
X161769642Y-84273809D01*
X161645833Y-84397619D01*
X161522023Y-84459523D01*
X163007738Y-84645238D02*
X162883928Y-84583333D01*
X162822023Y-84521428D01*
X162760119Y-84397619D01*
X162760119Y-84335714D01*
X162822023Y-84211904D01*
X162883928Y-84150000D01*
X163007738Y-84088095D01*
X163255357Y-84088095D01*
X163379166Y-84150000D01*
X163441071Y-84211904D01*
X163502976Y-84335714D01*
X163502976Y-84397619D01*
X163441071Y-84521428D01*
X163379166Y-84583333D01*
X163255357Y-84645238D01*
X163007738Y-84645238D01*
X162883928Y-84707142D01*
X162822023Y-84769047D01*
X162760119Y-84892857D01*
X162760119Y-85140476D01*
X162822023Y-85264285D01*
X162883928Y-85326190D01*
X163007738Y-85388095D01*
X163255357Y-85388095D01*
X163379166Y-85326190D01*
X163441071Y-85264285D01*
X163502976Y-85140476D01*
X163502976Y-84892857D01*
X163441071Y-84769047D01*
X163379166Y-84707142D01*
X163255357Y-84645238D01*
G04 #@! TO.C,R19*
X155888095Y-79135714D02*
X155269047Y-79569047D01*
X155888095Y-79878571D02*
X154588095Y-79878571D01*
X154588095Y-79383333D01*
X154650000Y-79259523D01*
X154711904Y-79197619D01*
X154835714Y-79135714D01*
X155021428Y-79135714D01*
X155145238Y-79197619D01*
X155207142Y-79259523D01*
X155269047Y-79383333D01*
X155269047Y-79878571D01*
X155888095Y-77897619D02*
X155888095Y-78640476D01*
X155888095Y-78269047D02*
X154588095Y-78269047D01*
X154773809Y-78392857D01*
X154897619Y-78516666D01*
X154959523Y-78640476D01*
X155888095Y-77278571D02*
X155888095Y-77030952D01*
X155826190Y-76907142D01*
X155764285Y-76845238D01*
X155578571Y-76721428D01*
X155330952Y-76659523D01*
X154835714Y-76659523D01*
X154711904Y-76721428D01*
X154650000Y-76783333D01*
X154588095Y-76907142D01*
X154588095Y-77154761D01*
X154650000Y-77278571D01*
X154711904Y-77340476D01*
X154835714Y-77402380D01*
X155145238Y-77402380D01*
X155269047Y-77340476D01*
X155330952Y-77278571D01*
X155392857Y-77154761D01*
X155392857Y-76907142D01*
X155330952Y-76783333D01*
X155269047Y-76721428D01*
X155145238Y-76659523D01*
G04 #@! TO.C,R20*
X160464285Y-102288095D02*
X160030952Y-101669047D01*
X159721428Y-102288095D02*
X159721428Y-100988095D01*
X160216666Y-100988095D01*
X160340476Y-101050000D01*
X160402380Y-101111904D01*
X160464285Y-101235714D01*
X160464285Y-101421428D01*
X160402380Y-101545238D01*
X160340476Y-101607142D01*
X160216666Y-101669047D01*
X159721428Y-101669047D01*
X160959523Y-101111904D02*
X161021428Y-101050000D01*
X161145238Y-100988095D01*
X161454761Y-100988095D01*
X161578571Y-101050000D01*
X161640476Y-101111904D01*
X161702380Y-101235714D01*
X161702380Y-101359523D01*
X161640476Y-101545238D01*
X160897619Y-102288095D01*
X161702380Y-102288095D01*
X162507142Y-100988095D02*
X162630952Y-100988095D01*
X162754761Y-101050000D01*
X162816666Y-101111904D01*
X162878571Y-101235714D01*
X162940476Y-101483333D01*
X162940476Y-101792857D01*
X162878571Y-102040476D01*
X162816666Y-102164285D01*
X162754761Y-102226190D01*
X162630952Y-102288095D01*
X162507142Y-102288095D01*
X162383333Y-102226190D01*
X162321428Y-102164285D01*
X162259523Y-102040476D01*
X162197619Y-101792857D01*
X162197619Y-101483333D01*
X162259523Y-101235714D01*
X162321428Y-101111904D01*
X162383333Y-101050000D01*
X162507142Y-100988095D01*
G04 #@! TO.C,R10*
X164188095Y-77935714D02*
X163569047Y-78369047D01*
X164188095Y-78678571D02*
X162888095Y-78678571D01*
X162888095Y-78183333D01*
X162950000Y-78059523D01*
X163011904Y-77997619D01*
X163135714Y-77935714D01*
X163321428Y-77935714D01*
X163445238Y-77997619D01*
X163507142Y-78059523D01*
X163569047Y-78183333D01*
X163569047Y-78678571D01*
X164188095Y-76697619D02*
X164188095Y-77440476D01*
X164188095Y-77069047D02*
X162888095Y-77069047D01*
X163073809Y-77192857D01*
X163197619Y-77316666D01*
X163259523Y-77440476D01*
X162888095Y-75892857D02*
X162888095Y-75769047D01*
X162950000Y-75645238D01*
X163011904Y-75583333D01*
X163135714Y-75521428D01*
X163383333Y-75459523D01*
X163692857Y-75459523D01*
X163940476Y-75521428D01*
X164064285Y-75583333D01*
X164126190Y-75645238D01*
X164188095Y-75769047D01*
X164188095Y-75892857D01*
X164126190Y-76016666D01*
X164064285Y-76078571D01*
X163940476Y-76140476D01*
X163692857Y-76202380D01*
X163383333Y-76202380D01*
X163135714Y-76140476D01*
X163011904Y-76078571D01*
X162950000Y-76016666D01*
X162888095Y-75892857D01*
G04 #@! TO.C,R2*
X180738095Y-95666666D02*
X180119047Y-96100000D01*
X180738095Y-96409523D02*
X179438095Y-96409523D01*
X179438095Y-95914285D01*
X179500000Y-95790476D01*
X179561904Y-95728571D01*
X179685714Y-95666666D01*
X179871428Y-95666666D01*
X179995238Y-95728571D01*
X180057142Y-95790476D01*
X180119047Y-95914285D01*
X180119047Y-96409523D01*
X179561904Y-95171428D02*
X179500000Y-95109523D01*
X179438095Y-94985714D01*
X179438095Y-94676190D01*
X179500000Y-94552380D01*
X179561904Y-94490476D01*
X179685714Y-94428571D01*
X179809523Y-94428571D01*
X179995238Y-94490476D01*
X180738095Y-95233333D01*
X180738095Y-94428571D01*
G04 #@! TO.C,J1*
X148538095Y-106733333D02*
X149466666Y-106733333D01*
X149652380Y-106795238D01*
X149776190Y-106919047D01*
X149838095Y-107104761D01*
X149838095Y-107228571D01*
X149838095Y-105433333D02*
X149838095Y-106176190D01*
X149838095Y-105804761D02*
X148538095Y-105804761D01*
X148723809Y-105928571D01*
X148847619Y-106052380D01*
X148909523Y-106176190D01*
G04 #@! TO.C,U3*
X132159523Y-98238095D02*
X132159523Y-99290476D01*
X132221428Y-99414285D01*
X132283333Y-99476190D01*
X132407142Y-99538095D01*
X132654761Y-99538095D01*
X132778571Y-99476190D01*
X132840476Y-99414285D01*
X132902380Y-99290476D01*
X132902380Y-98238095D01*
X133397619Y-98238095D02*
X134202380Y-98238095D01*
X133769047Y-98733333D01*
X133954761Y-98733333D01*
X134078571Y-98795238D01*
X134140476Y-98857142D01*
X134202380Y-98980952D01*
X134202380Y-99290476D01*
X134140476Y-99414285D01*
X134078571Y-99476190D01*
X133954761Y-99538095D01*
X133583333Y-99538095D01*
X133459523Y-99476190D01*
X133397619Y-99414285D01*
G04 #@! TO.C,J2*
X171438095Y-74433333D02*
X172366666Y-74433333D01*
X172552380Y-74495238D01*
X172676190Y-74619047D01*
X172738095Y-74804761D01*
X172738095Y-74928571D01*
X171561904Y-73876190D02*
X171500000Y-73814285D01*
X171438095Y-73690476D01*
X171438095Y-73380952D01*
X171500000Y-73257142D01*
X171561904Y-73195238D01*
X171685714Y-73133333D01*
X171809523Y-73133333D01*
X171995238Y-73195238D01*
X172738095Y-73938095D01*
X172738095Y-73133333D01*
G04 #@! TO.C,J5*
X153438095Y-74433333D02*
X154366666Y-74433333D01*
X154552380Y-74495238D01*
X154676190Y-74619047D01*
X154738095Y-74804761D01*
X154738095Y-74928571D01*
X153438095Y-73195238D02*
X153438095Y-73814285D01*
X154057142Y-73876190D01*
X153995238Y-73814285D01*
X153933333Y-73690476D01*
X153933333Y-73380952D01*
X153995238Y-73257142D01*
X154057142Y-73195238D01*
X154180952Y-73133333D01*
X154490476Y-73133333D01*
X154614285Y-73195238D01*
X154676190Y-73257142D01*
X154738095Y-73380952D01*
X154738095Y-73690476D01*
X154676190Y-73814285D01*
X154614285Y-73876190D01*
G04 #@! TO.C,J6*
X162438095Y-74433333D02*
X163366666Y-74433333D01*
X163552380Y-74495238D01*
X163676190Y-74619047D01*
X163738095Y-74804761D01*
X163738095Y-74928571D01*
X162438095Y-73257142D02*
X162438095Y-73504761D01*
X162500000Y-73628571D01*
X162561904Y-73690476D01*
X162747619Y-73814285D01*
X162995238Y-73876190D01*
X163490476Y-73876190D01*
X163614285Y-73814285D01*
X163676190Y-73752380D01*
X163738095Y-73628571D01*
X163738095Y-73380952D01*
X163676190Y-73257142D01*
X163614285Y-73195238D01*
X163490476Y-73133333D01*
X163180952Y-73133333D01*
X163057142Y-73195238D01*
X162995238Y-73257142D01*
X162933333Y-73380952D01*
X162933333Y-73628571D01*
X162995238Y-73752380D01*
X163057142Y-73814285D01*
X163180952Y-73876190D01*
G04 #@! TO.C,U1*
X157238095Y-89140476D02*
X158290476Y-89140476D01*
X158414285Y-89078571D01*
X158476190Y-89016666D01*
X158538095Y-88892857D01*
X158538095Y-88645238D01*
X158476190Y-88521428D01*
X158414285Y-88459523D01*
X158290476Y-88397619D01*
X157238095Y-88397619D01*
X158538095Y-87097619D02*
X158538095Y-87840476D01*
X158538095Y-87469047D02*
X157238095Y-87469047D01*
X157423809Y-87592857D01*
X157547619Y-87716666D01*
X157609523Y-87840476D01*
G04 #@! TO.C,U2*
X147459523Y-82438095D02*
X147459523Y-83490476D01*
X147521428Y-83614285D01*
X147583333Y-83676190D01*
X147707142Y-83738095D01*
X147954761Y-83738095D01*
X148078571Y-83676190D01*
X148140476Y-83614285D01*
X148202380Y-83490476D01*
X148202380Y-82438095D01*
X148759523Y-82561904D02*
X148821428Y-82500000D01*
X148945238Y-82438095D01*
X149254761Y-82438095D01*
X149378571Y-82500000D01*
X149440476Y-82561904D01*
X149502380Y-82685714D01*
X149502380Y-82809523D01*
X149440476Y-82995238D01*
X148697619Y-83738095D01*
X149502380Y-83738095D01*
G04 #@! TO.C,*
G04 #@! TD*
%LPC*%
D12*
G04 #@! TO.C,Y1*
X177100000Y-100200000D03*
X168600000Y-100200000D03*
G04 #@! TD*
D13*
G04 #@! TO.C,J3*
X173300000Y-83100000D03*
X171300000Y-83100000D03*
X173300000Y-81100000D03*
X171300000Y-81100000D03*
X173300000Y-79100000D03*
D14*
X171300000Y-79100000D03*
G04 #@! TD*
D13*
G04 #@! TO.C,J4*
X135600000Y-102100000D03*
X135600000Y-104100000D03*
X133600000Y-102100000D03*
X133600000Y-104100000D03*
X131600000Y-102100000D03*
X131600000Y-104100000D03*
X129600000Y-102100000D03*
X129600000Y-104100000D03*
X127600000Y-102100000D03*
D14*
X127600000Y-104100000D03*
G04 #@! TD*
D15*
G04 #@! TO.C,U4*
X149824088Y-99169033D03*
X154424088Y-99169033D03*
X152124088Y-99169033D03*
D16*
X152124088Y-92869033D03*
G04 #@! TD*
D17*
G04 #@! TO.C,Q3*
X157216969Y-82752419D03*
X157216969Y-81802419D03*
X157216969Y-80852419D03*
X159536969Y-80852419D03*
X159536969Y-81802419D03*
X159536969Y-82752419D03*
G04 #@! TD*
G04 #@! TO.C,Q1*
X176240000Y-94450000D03*
X176240000Y-95400000D03*
X176240000Y-96350000D03*
X178560000Y-96350000D03*
X178560000Y-95400000D03*
X178560000Y-94450000D03*
G04 #@! TD*
G04 #@! TO.C,Q2*
X179260000Y-88550000D03*
X179260000Y-89500000D03*
X179260000Y-90450000D03*
X176940000Y-90450000D03*
X176940000Y-89500000D03*
X176940000Y-88550000D03*
G04 #@! TD*
D18*
G04 #@! TO.C,C6*
G36*
X121015468Y-84838886D02*
X121043399Y-84843029D01*
X121070790Y-84849890D01*
X121097376Y-84859403D01*
X121122902Y-84871475D01*
X121147122Y-84885992D01*
X121169802Y-84902813D01*
X121190724Y-84921776D01*
X121209687Y-84942698D01*
X121226508Y-84965378D01*
X121241025Y-84989598D01*
X121253097Y-85015124D01*
X121262610Y-85041710D01*
X121269471Y-85069101D01*
X121273614Y-85097032D01*
X121275000Y-85125235D01*
X121275000Y-86074765D01*
X121273614Y-86102968D01*
X121269471Y-86130899D01*
X121262610Y-86158290D01*
X121253097Y-86184876D01*
X121241025Y-86210402D01*
X121226508Y-86234622D01*
X121209687Y-86257302D01*
X121190724Y-86278224D01*
X121169802Y-86297187D01*
X121147122Y-86314008D01*
X121122902Y-86328525D01*
X121097376Y-86340597D01*
X121070790Y-86350110D01*
X121043399Y-86356971D01*
X121015468Y-86361114D01*
X120987265Y-86362500D01*
X119012735Y-86362500D01*
X118984532Y-86361114D01*
X118956601Y-86356971D01*
X118929210Y-86350110D01*
X118902624Y-86340597D01*
X118877098Y-86328525D01*
X118852878Y-86314008D01*
X118830198Y-86297187D01*
X118809276Y-86278224D01*
X118790313Y-86257302D01*
X118773492Y-86234622D01*
X118758975Y-86210402D01*
X118746903Y-86184876D01*
X118737390Y-86158290D01*
X118730529Y-86130899D01*
X118726386Y-86102968D01*
X118725000Y-86074765D01*
X118725000Y-85125235D01*
X118726386Y-85097032D01*
X118730529Y-85069101D01*
X118737390Y-85041710D01*
X118746903Y-85015124D01*
X118758975Y-84989598D01*
X118773492Y-84965378D01*
X118790313Y-84942698D01*
X118809276Y-84921776D01*
X118830198Y-84902813D01*
X118852878Y-84885992D01*
X118877098Y-84871475D01*
X118902624Y-84859403D01*
X118929210Y-84849890D01*
X118956601Y-84843029D01*
X118984532Y-84838886D01*
X119012735Y-84837500D01*
X120987265Y-84837500D01*
X121015468Y-84838886D01*
X121015468Y-84838886D01*
G37*
D19*
X120000000Y-85600000D03*
D18*
G36*
X121015468Y-81763886D02*
X121043399Y-81768029D01*
X121070790Y-81774890D01*
X121097376Y-81784403D01*
X121122902Y-81796475D01*
X121147122Y-81810992D01*
X121169802Y-81827813D01*
X121190724Y-81846776D01*
X121209687Y-81867698D01*
X121226508Y-81890378D01*
X121241025Y-81914598D01*
X121253097Y-81940124D01*
X121262610Y-81966710D01*
X121269471Y-81994101D01*
X121273614Y-82022032D01*
X121275000Y-82050235D01*
X121275000Y-82999765D01*
X121273614Y-83027968D01*
X121269471Y-83055899D01*
X121262610Y-83083290D01*
X121253097Y-83109876D01*
X121241025Y-83135402D01*
X121226508Y-83159622D01*
X121209687Y-83182302D01*
X121190724Y-83203224D01*
X121169802Y-83222187D01*
X121147122Y-83239008D01*
X121122902Y-83253525D01*
X121097376Y-83265597D01*
X121070790Y-83275110D01*
X121043399Y-83281971D01*
X121015468Y-83286114D01*
X120987265Y-83287500D01*
X119012735Y-83287500D01*
X118984532Y-83286114D01*
X118956601Y-83281971D01*
X118929210Y-83275110D01*
X118902624Y-83265597D01*
X118877098Y-83253525D01*
X118852878Y-83239008D01*
X118830198Y-83222187D01*
X118809276Y-83203224D01*
X118790313Y-83182302D01*
X118773492Y-83159622D01*
X118758975Y-83135402D01*
X118746903Y-83109876D01*
X118737390Y-83083290D01*
X118730529Y-83055899D01*
X118726386Y-83027968D01*
X118725000Y-82999765D01*
X118725000Y-82050235D01*
X118726386Y-82022032D01*
X118730529Y-81994101D01*
X118737390Y-81966710D01*
X118746903Y-81940124D01*
X118758975Y-81914598D01*
X118773492Y-81890378D01*
X118790313Y-81867698D01*
X118809276Y-81846776D01*
X118830198Y-81827813D01*
X118852878Y-81810992D01*
X118877098Y-81796475D01*
X118902624Y-81784403D01*
X118929210Y-81774890D01*
X118956601Y-81768029D01*
X118984532Y-81763886D01*
X119012735Y-81762500D01*
X120987265Y-81762500D01*
X121015468Y-81763886D01*
X121015468Y-81763886D01*
G37*
D19*
X120000000Y-82525000D03*
G04 #@! TD*
D18*
G04 #@! TO.C,C4*
G36*
X153413425Y-86676396D02*
X153441576Y-86680572D01*
X153469183Y-86687487D01*
X153495978Y-86697075D01*
X153521705Y-86709243D01*
X153546115Y-86723874D01*
X153568974Y-86740827D01*
X153590061Y-86759939D01*
X153609173Y-86781026D01*
X153626126Y-86803885D01*
X153640757Y-86828295D01*
X153652925Y-86854022D01*
X153662513Y-86880817D01*
X153669428Y-86908424D01*
X153673604Y-86936575D01*
X153675000Y-86965000D01*
X153675000Y-87835000D01*
X153673604Y-87863425D01*
X153669428Y-87891576D01*
X153662513Y-87919183D01*
X153652925Y-87945978D01*
X153640757Y-87971705D01*
X153626126Y-87996115D01*
X153609173Y-88018974D01*
X153590061Y-88040061D01*
X153568974Y-88059173D01*
X153546115Y-88076126D01*
X153521705Y-88090757D01*
X153495978Y-88102925D01*
X153469183Y-88112513D01*
X153441576Y-88119428D01*
X153413425Y-88123604D01*
X153385000Y-88125000D01*
X152015000Y-88125000D01*
X151986575Y-88123604D01*
X151958424Y-88119428D01*
X151930817Y-88112513D01*
X151904022Y-88102925D01*
X151878295Y-88090757D01*
X151853885Y-88076126D01*
X151831026Y-88059173D01*
X151809939Y-88040061D01*
X151790827Y-88018974D01*
X151773874Y-87996115D01*
X151759243Y-87971705D01*
X151747075Y-87945978D01*
X151737487Y-87919183D01*
X151730572Y-87891576D01*
X151726396Y-87863425D01*
X151725000Y-87835000D01*
X151725000Y-86965000D01*
X151726396Y-86936575D01*
X151730572Y-86908424D01*
X151737487Y-86880817D01*
X151747075Y-86854022D01*
X151759243Y-86828295D01*
X151773874Y-86803885D01*
X151790827Y-86781026D01*
X151809939Y-86759939D01*
X151831026Y-86740827D01*
X151853885Y-86723874D01*
X151878295Y-86709243D01*
X151904022Y-86697075D01*
X151930817Y-86687487D01*
X151958424Y-86680572D01*
X151986575Y-86676396D01*
X152015000Y-86675000D01*
X153385000Y-86675000D01*
X153413425Y-86676396D01*
X153413425Y-86676396D01*
G37*
D20*
X152700000Y-87400000D03*
D18*
G36*
X153413425Y-89476396D02*
X153441576Y-89480572D01*
X153469183Y-89487487D01*
X153495978Y-89497075D01*
X153521705Y-89509243D01*
X153546115Y-89523874D01*
X153568974Y-89540827D01*
X153590061Y-89559939D01*
X153609173Y-89581026D01*
X153626126Y-89603885D01*
X153640757Y-89628295D01*
X153652925Y-89654022D01*
X153662513Y-89680817D01*
X153669428Y-89708424D01*
X153673604Y-89736575D01*
X153675000Y-89765000D01*
X153675000Y-90635000D01*
X153673604Y-90663425D01*
X153669428Y-90691576D01*
X153662513Y-90719183D01*
X153652925Y-90745978D01*
X153640757Y-90771705D01*
X153626126Y-90796115D01*
X153609173Y-90818974D01*
X153590061Y-90840061D01*
X153568974Y-90859173D01*
X153546115Y-90876126D01*
X153521705Y-90890757D01*
X153495978Y-90902925D01*
X153469183Y-90912513D01*
X153441576Y-90919428D01*
X153413425Y-90923604D01*
X153385000Y-90925000D01*
X152015000Y-90925000D01*
X151986575Y-90923604D01*
X151958424Y-90919428D01*
X151930817Y-90912513D01*
X151904022Y-90902925D01*
X151878295Y-90890757D01*
X151853885Y-90876126D01*
X151831026Y-90859173D01*
X151809939Y-90840061D01*
X151790827Y-90818974D01*
X151773874Y-90796115D01*
X151759243Y-90771705D01*
X151747075Y-90745978D01*
X151737487Y-90719183D01*
X151730572Y-90691576D01*
X151726396Y-90663425D01*
X151725000Y-90635000D01*
X151725000Y-89765000D01*
X151726396Y-89736575D01*
X151730572Y-89708424D01*
X151737487Y-89680817D01*
X151747075Y-89654022D01*
X151759243Y-89628295D01*
X151773874Y-89603885D01*
X151790827Y-89581026D01*
X151809939Y-89559939D01*
X151831026Y-89540827D01*
X151853885Y-89523874D01*
X151878295Y-89509243D01*
X151904022Y-89497075D01*
X151930817Y-89487487D01*
X151958424Y-89480572D01*
X151986575Y-89476396D01*
X152015000Y-89475000D01*
X153385000Y-89475000D01*
X153413425Y-89476396D01*
X153413425Y-89476396D01*
G37*
D20*
X152700000Y-90200000D03*
G04 #@! TD*
D18*
G04 #@! TO.C,C5*
G36*
X144963425Y-91526396D02*
X144991576Y-91530572D01*
X145019183Y-91537487D01*
X145045978Y-91547075D01*
X145071705Y-91559243D01*
X145096115Y-91573874D01*
X145118974Y-91590827D01*
X145140061Y-91609939D01*
X145159173Y-91631026D01*
X145176126Y-91653885D01*
X145190757Y-91678295D01*
X145202925Y-91704022D01*
X145212513Y-91730817D01*
X145219428Y-91758424D01*
X145223604Y-91786575D01*
X145225000Y-91815000D01*
X145225000Y-93185000D01*
X145223604Y-93213425D01*
X145219428Y-93241576D01*
X145212513Y-93269183D01*
X145202925Y-93295978D01*
X145190757Y-93321705D01*
X145176126Y-93346115D01*
X145159173Y-93368974D01*
X145140061Y-93390061D01*
X145118974Y-93409173D01*
X145096115Y-93426126D01*
X145071705Y-93440757D01*
X145045978Y-93452925D01*
X145019183Y-93462513D01*
X144991576Y-93469428D01*
X144963425Y-93473604D01*
X144935000Y-93475000D01*
X144065000Y-93475000D01*
X144036575Y-93473604D01*
X144008424Y-93469428D01*
X143980817Y-93462513D01*
X143954022Y-93452925D01*
X143928295Y-93440757D01*
X143903885Y-93426126D01*
X143881026Y-93409173D01*
X143859939Y-93390061D01*
X143840827Y-93368974D01*
X143823874Y-93346115D01*
X143809243Y-93321705D01*
X143797075Y-93295978D01*
X143787487Y-93269183D01*
X143780572Y-93241576D01*
X143776396Y-93213425D01*
X143775000Y-93185000D01*
X143775000Y-91815000D01*
X143776396Y-91786575D01*
X143780572Y-91758424D01*
X143787487Y-91730817D01*
X143797075Y-91704022D01*
X143809243Y-91678295D01*
X143823874Y-91653885D01*
X143840827Y-91631026D01*
X143859939Y-91609939D01*
X143881026Y-91590827D01*
X143903885Y-91573874D01*
X143928295Y-91559243D01*
X143954022Y-91547075D01*
X143980817Y-91537487D01*
X144008424Y-91530572D01*
X144036575Y-91526396D01*
X144065000Y-91525000D01*
X144935000Y-91525000D01*
X144963425Y-91526396D01*
X144963425Y-91526396D01*
G37*
D20*
X144500000Y-92500000D03*
D18*
G36*
X147763425Y-91526396D02*
X147791576Y-91530572D01*
X147819183Y-91537487D01*
X147845978Y-91547075D01*
X147871705Y-91559243D01*
X147896115Y-91573874D01*
X147918974Y-91590827D01*
X147940061Y-91609939D01*
X147959173Y-91631026D01*
X147976126Y-91653885D01*
X147990757Y-91678295D01*
X148002925Y-91704022D01*
X148012513Y-91730817D01*
X148019428Y-91758424D01*
X148023604Y-91786575D01*
X148025000Y-91815000D01*
X148025000Y-93185000D01*
X148023604Y-93213425D01*
X148019428Y-93241576D01*
X148012513Y-93269183D01*
X148002925Y-93295978D01*
X147990757Y-93321705D01*
X147976126Y-93346115D01*
X147959173Y-93368974D01*
X147940061Y-93390061D01*
X147918974Y-93409173D01*
X147896115Y-93426126D01*
X147871705Y-93440757D01*
X147845978Y-93452925D01*
X147819183Y-93462513D01*
X147791576Y-93469428D01*
X147763425Y-93473604D01*
X147735000Y-93475000D01*
X146865000Y-93475000D01*
X146836575Y-93473604D01*
X146808424Y-93469428D01*
X146780817Y-93462513D01*
X146754022Y-93452925D01*
X146728295Y-93440757D01*
X146703885Y-93426126D01*
X146681026Y-93409173D01*
X146659939Y-93390061D01*
X146640827Y-93368974D01*
X146623874Y-93346115D01*
X146609243Y-93321705D01*
X146597075Y-93295978D01*
X146587487Y-93269183D01*
X146580572Y-93241576D01*
X146576396Y-93213425D01*
X146575000Y-93185000D01*
X146575000Y-91815000D01*
X146576396Y-91786575D01*
X146580572Y-91758424D01*
X146587487Y-91730817D01*
X146597075Y-91704022D01*
X146609243Y-91678295D01*
X146623874Y-91653885D01*
X146640827Y-91631026D01*
X146659939Y-91609939D01*
X146681026Y-91590827D01*
X146703885Y-91573874D01*
X146728295Y-91559243D01*
X146754022Y-91547075D01*
X146780817Y-91537487D01*
X146808424Y-91530572D01*
X146836575Y-91526396D01*
X146865000Y-91525000D01*
X147735000Y-91525000D01*
X147763425Y-91526396D01*
X147763425Y-91526396D01*
G37*
D20*
X147300000Y-92500000D03*
G04 #@! TD*
D18*
G04 #@! TO.C,C1*
G36*
X170960043Y-103501414D02*
X170988558Y-103505644D01*
X171016521Y-103512649D01*
X171043663Y-103522360D01*
X171069723Y-103534686D01*
X171094449Y-103549506D01*
X171117603Y-103566678D01*
X171138963Y-103586037D01*
X171158322Y-103607397D01*
X171175494Y-103630551D01*
X171190314Y-103655277D01*
X171202640Y-103681337D01*
X171212351Y-103708479D01*
X171219356Y-103736442D01*
X171223586Y-103764957D01*
X171225000Y-103793750D01*
X171225000Y-104806250D01*
X171223586Y-104835043D01*
X171219356Y-104863558D01*
X171212351Y-104891521D01*
X171202640Y-104918663D01*
X171190314Y-104944723D01*
X171175494Y-104969449D01*
X171158322Y-104992603D01*
X171138963Y-105013963D01*
X171117603Y-105033322D01*
X171094449Y-105050494D01*
X171069723Y-105065314D01*
X171043663Y-105077640D01*
X171016521Y-105087351D01*
X170988558Y-105094356D01*
X170960043Y-105098586D01*
X170931250Y-105100000D01*
X170343750Y-105100000D01*
X170314957Y-105098586D01*
X170286442Y-105094356D01*
X170258479Y-105087351D01*
X170231337Y-105077640D01*
X170205277Y-105065314D01*
X170180551Y-105050494D01*
X170157397Y-105033322D01*
X170136037Y-105013963D01*
X170116678Y-104992603D01*
X170099506Y-104969449D01*
X170084686Y-104944723D01*
X170072360Y-104918663D01*
X170062649Y-104891521D01*
X170055644Y-104863558D01*
X170051414Y-104835043D01*
X170050000Y-104806250D01*
X170050000Y-103793750D01*
X170051414Y-103764957D01*
X170055644Y-103736442D01*
X170062649Y-103708479D01*
X170072360Y-103681337D01*
X170084686Y-103655277D01*
X170099506Y-103630551D01*
X170116678Y-103607397D01*
X170136037Y-103586037D01*
X170157397Y-103566678D01*
X170180551Y-103549506D01*
X170205277Y-103534686D01*
X170231337Y-103522360D01*
X170258479Y-103512649D01*
X170286442Y-103505644D01*
X170314957Y-103501414D01*
X170343750Y-103500000D01*
X170931250Y-103500000D01*
X170960043Y-103501414D01*
X170960043Y-103501414D01*
G37*
D21*
X170637500Y-104300000D03*
D18*
G36*
X169085043Y-103501414D02*
X169113558Y-103505644D01*
X169141521Y-103512649D01*
X169168663Y-103522360D01*
X169194723Y-103534686D01*
X169219449Y-103549506D01*
X169242603Y-103566678D01*
X169263963Y-103586037D01*
X169283322Y-103607397D01*
X169300494Y-103630551D01*
X169315314Y-103655277D01*
X169327640Y-103681337D01*
X169337351Y-103708479D01*
X169344356Y-103736442D01*
X169348586Y-103764957D01*
X169350000Y-103793750D01*
X169350000Y-104806250D01*
X169348586Y-104835043D01*
X169344356Y-104863558D01*
X169337351Y-104891521D01*
X169327640Y-104918663D01*
X169315314Y-104944723D01*
X169300494Y-104969449D01*
X169283322Y-104992603D01*
X169263963Y-105013963D01*
X169242603Y-105033322D01*
X169219449Y-105050494D01*
X169194723Y-105065314D01*
X169168663Y-105077640D01*
X169141521Y-105087351D01*
X169113558Y-105094356D01*
X169085043Y-105098586D01*
X169056250Y-105100000D01*
X168468750Y-105100000D01*
X168439957Y-105098586D01*
X168411442Y-105094356D01*
X168383479Y-105087351D01*
X168356337Y-105077640D01*
X168330277Y-105065314D01*
X168305551Y-105050494D01*
X168282397Y-105033322D01*
X168261037Y-105013963D01*
X168241678Y-104992603D01*
X168224506Y-104969449D01*
X168209686Y-104944723D01*
X168197360Y-104918663D01*
X168187649Y-104891521D01*
X168180644Y-104863558D01*
X168176414Y-104835043D01*
X168175000Y-104806250D01*
X168175000Y-103793750D01*
X168176414Y-103764957D01*
X168180644Y-103736442D01*
X168187649Y-103708479D01*
X168197360Y-103681337D01*
X168209686Y-103655277D01*
X168224506Y-103630551D01*
X168241678Y-103607397D01*
X168261037Y-103586037D01*
X168282397Y-103566678D01*
X168305551Y-103549506D01*
X168330277Y-103534686D01*
X168356337Y-103522360D01*
X168383479Y-103512649D01*
X168411442Y-103505644D01*
X168439957Y-103501414D01*
X168468750Y-103500000D01*
X169056250Y-103500000D01*
X169085043Y-103501414D01*
X169085043Y-103501414D01*
G37*
D21*
X168762500Y-104300000D03*
G04 #@! TD*
D18*
G04 #@! TO.C,C3*
G36*
X165422543Y-97901414D02*
X165451058Y-97905644D01*
X165479021Y-97912649D01*
X165506163Y-97922360D01*
X165532223Y-97934686D01*
X165556949Y-97949506D01*
X165580103Y-97966678D01*
X165601463Y-97986037D01*
X165620822Y-98007397D01*
X165637994Y-98030551D01*
X165652814Y-98055277D01*
X165665140Y-98081337D01*
X165674851Y-98108479D01*
X165681856Y-98136442D01*
X165686086Y-98164957D01*
X165687500Y-98193750D01*
X165687500Y-99206250D01*
X165686086Y-99235043D01*
X165681856Y-99263558D01*
X165674851Y-99291521D01*
X165665140Y-99318663D01*
X165652814Y-99344723D01*
X165637994Y-99369449D01*
X165620822Y-99392603D01*
X165601463Y-99413963D01*
X165580103Y-99433322D01*
X165556949Y-99450494D01*
X165532223Y-99465314D01*
X165506163Y-99477640D01*
X165479021Y-99487351D01*
X165451058Y-99494356D01*
X165422543Y-99498586D01*
X165393750Y-99500000D01*
X164806250Y-99500000D01*
X164777457Y-99498586D01*
X164748942Y-99494356D01*
X164720979Y-99487351D01*
X164693837Y-99477640D01*
X164667777Y-99465314D01*
X164643051Y-99450494D01*
X164619897Y-99433322D01*
X164598537Y-99413963D01*
X164579178Y-99392603D01*
X164562006Y-99369449D01*
X164547186Y-99344723D01*
X164534860Y-99318663D01*
X164525149Y-99291521D01*
X164518144Y-99263558D01*
X164513914Y-99235043D01*
X164512500Y-99206250D01*
X164512500Y-98193750D01*
X164513914Y-98164957D01*
X164518144Y-98136442D01*
X164525149Y-98108479D01*
X164534860Y-98081337D01*
X164547186Y-98055277D01*
X164562006Y-98030551D01*
X164579178Y-98007397D01*
X164598537Y-97986037D01*
X164619897Y-97966678D01*
X164643051Y-97949506D01*
X164667777Y-97934686D01*
X164693837Y-97922360D01*
X164720979Y-97912649D01*
X164748942Y-97905644D01*
X164777457Y-97901414D01*
X164806250Y-97900000D01*
X165393750Y-97900000D01*
X165422543Y-97901414D01*
X165422543Y-97901414D01*
G37*
D21*
X165100000Y-98700000D03*
D18*
G36*
X163547543Y-97901414D02*
X163576058Y-97905644D01*
X163604021Y-97912649D01*
X163631163Y-97922360D01*
X163657223Y-97934686D01*
X163681949Y-97949506D01*
X163705103Y-97966678D01*
X163726463Y-97986037D01*
X163745822Y-98007397D01*
X163762994Y-98030551D01*
X163777814Y-98055277D01*
X163790140Y-98081337D01*
X163799851Y-98108479D01*
X163806856Y-98136442D01*
X163811086Y-98164957D01*
X163812500Y-98193750D01*
X163812500Y-99206250D01*
X163811086Y-99235043D01*
X163806856Y-99263558D01*
X163799851Y-99291521D01*
X163790140Y-99318663D01*
X163777814Y-99344723D01*
X163762994Y-99369449D01*
X163745822Y-99392603D01*
X163726463Y-99413963D01*
X163705103Y-99433322D01*
X163681949Y-99450494D01*
X163657223Y-99465314D01*
X163631163Y-99477640D01*
X163604021Y-99487351D01*
X163576058Y-99494356D01*
X163547543Y-99498586D01*
X163518750Y-99500000D01*
X162931250Y-99500000D01*
X162902457Y-99498586D01*
X162873942Y-99494356D01*
X162845979Y-99487351D01*
X162818837Y-99477640D01*
X162792777Y-99465314D01*
X162768051Y-99450494D01*
X162744897Y-99433322D01*
X162723537Y-99413963D01*
X162704178Y-99392603D01*
X162687006Y-99369449D01*
X162672186Y-99344723D01*
X162659860Y-99318663D01*
X162650149Y-99291521D01*
X162643144Y-99263558D01*
X162638914Y-99235043D01*
X162637500Y-99206250D01*
X162637500Y-98193750D01*
X162638914Y-98164957D01*
X162643144Y-98136442D01*
X162650149Y-98108479D01*
X162659860Y-98081337D01*
X162672186Y-98055277D01*
X162687006Y-98030551D01*
X162704178Y-98007397D01*
X162723537Y-97986037D01*
X162744897Y-97966678D01*
X162768051Y-97949506D01*
X162792777Y-97934686D01*
X162818837Y-97922360D01*
X162845979Y-97912649D01*
X162873942Y-97905644D01*
X162902457Y-97901414D01*
X162931250Y-97900000D01*
X163518750Y-97900000D01*
X163547543Y-97901414D01*
X163547543Y-97901414D01*
G37*
D21*
X163225000Y-98700000D03*
G04 #@! TD*
D18*
G04 #@! TO.C,C7*
G36*
X153422543Y-101301414D02*
X153451058Y-101305644D01*
X153479021Y-101312649D01*
X153506163Y-101322360D01*
X153532223Y-101334686D01*
X153556949Y-101349506D01*
X153580103Y-101366678D01*
X153601463Y-101386037D01*
X153620822Y-101407397D01*
X153637994Y-101430551D01*
X153652814Y-101455277D01*
X153665140Y-101481337D01*
X153674851Y-101508479D01*
X153681856Y-101536442D01*
X153686086Y-101564957D01*
X153687500Y-101593750D01*
X153687500Y-102606250D01*
X153686086Y-102635043D01*
X153681856Y-102663558D01*
X153674851Y-102691521D01*
X153665140Y-102718663D01*
X153652814Y-102744723D01*
X153637994Y-102769449D01*
X153620822Y-102792603D01*
X153601463Y-102813963D01*
X153580103Y-102833322D01*
X153556949Y-102850494D01*
X153532223Y-102865314D01*
X153506163Y-102877640D01*
X153479021Y-102887351D01*
X153451058Y-102894356D01*
X153422543Y-102898586D01*
X153393750Y-102900000D01*
X152806250Y-102900000D01*
X152777457Y-102898586D01*
X152748942Y-102894356D01*
X152720979Y-102887351D01*
X152693837Y-102877640D01*
X152667777Y-102865314D01*
X152643051Y-102850494D01*
X152619897Y-102833322D01*
X152598537Y-102813963D01*
X152579178Y-102792603D01*
X152562006Y-102769449D01*
X152547186Y-102744723D01*
X152534860Y-102718663D01*
X152525149Y-102691521D01*
X152518144Y-102663558D01*
X152513914Y-102635043D01*
X152512500Y-102606250D01*
X152512500Y-101593750D01*
X152513914Y-101564957D01*
X152518144Y-101536442D01*
X152525149Y-101508479D01*
X152534860Y-101481337D01*
X152547186Y-101455277D01*
X152562006Y-101430551D01*
X152579178Y-101407397D01*
X152598537Y-101386037D01*
X152619897Y-101366678D01*
X152643051Y-101349506D01*
X152667777Y-101334686D01*
X152693837Y-101322360D01*
X152720979Y-101312649D01*
X152748942Y-101305644D01*
X152777457Y-101301414D01*
X152806250Y-101300000D01*
X153393750Y-101300000D01*
X153422543Y-101301414D01*
X153422543Y-101301414D01*
G37*
D21*
X153100000Y-102100000D03*
D18*
G36*
X151547543Y-101301414D02*
X151576058Y-101305644D01*
X151604021Y-101312649D01*
X151631163Y-101322360D01*
X151657223Y-101334686D01*
X151681949Y-101349506D01*
X151705103Y-101366678D01*
X151726463Y-101386037D01*
X151745822Y-101407397D01*
X151762994Y-101430551D01*
X151777814Y-101455277D01*
X151790140Y-101481337D01*
X151799851Y-101508479D01*
X151806856Y-101536442D01*
X151811086Y-101564957D01*
X151812500Y-101593750D01*
X151812500Y-102606250D01*
X151811086Y-102635043D01*
X151806856Y-102663558D01*
X151799851Y-102691521D01*
X151790140Y-102718663D01*
X151777814Y-102744723D01*
X151762994Y-102769449D01*
X151745822Y-102792603D01*
X151726463Y-102813963D01*
X151705103Y-102833322D01*
X151681949Y-102850494D01*
X151657223Y-102865314D01*
X151631163Y-102877640D01*
X151604021Y-102887351D01*
X151576058Y-102894356D01*
X151547543Y-102898586D01*
X151518750Y-102900000D01*
X150931250Y-102900000D01*
X150902457Y-102898586D01*
X150873942Y-102894356D01*
X150845979Y-102887351D01*
X150818837Y-102877640D01*
X150792777Y-102865314D01*
X150768051Y-102850494D01*
X150744897Y-102833322D01*
X150723537Y-102813963D01*
X150704178Y-102792603D01*
X150687006Y-102769449D01*
X150672186Y-102744723D01*
X150659860Y-102718663D01*
X150650149Y-102691521D01*
X150643144Y-102663558D01*
X150638914Y-102635043D01*
X150637500Y-102606250D01*
X150637500Y-101593750D01*
X150638914Y-101564957D01*
X150643144Y-101536442D01*
X150650149Y-101508479D01*
X150659860Y-101481337D01*
X150672186Y-101455277D01*
X150687006Y-101430551D01*
X150704178Y-101407397D01*
X150723537Y-101386037D01*
X150744897Y-101366678D01*
X150768051Y-101349506D01*
X150792777Y-101334686D01*
X150818837Y-101322360D01*
X150845979Y-101312649D01*
X150873942Y-101305644D01*
X150902457Y-101301414D01*
X150931250Y-101300000D01*
X151518750Y-101300000D01*
X151547543Y-101301414D01*
X151547543Y-101301414D01*
G37*
D21*
X151225000Y-102100000D03*
G04 #@! TD*
D18*
G04 #@! TO.C,C8*
G36*
X147835043Y-96776414D02*
X147863558Y-96780644D01*
X147891521Y-96787649D01*
X147918663Y-96797360D01*
X147944723Y-96809686D01*
X147969449Y-96824506D01*
X147992603Y-96841678D01*
X148013963Y-96861037D01*
X148033322Y-96882397D01*
X148050494Y-96905551D01*
X148065314Y-96930277D01*
X148077640Y-96956337D01*
X148087351Y-96983479D01*
X148094356Y-97011442D01*
X148098586Y-97039957D01*
X148100000Y-97068750D01*
X148100000Y-97656250D01*
X148098586Y-97685043D01*
X148094356Y-97713558D01*
X148087351Y-97741521D01*
X148077640Y-97768663D01*
X148065314Y-97794723D01*
X148050494Y-97819449D01*
X148033322Y-97842603D01*
X148013963Y-97863963D01*
X147992603Y-97883322D01*
X147969449Y-97900494D01*
X147944723Y-97915314D01*
X147918663Y-97927640D01*
X147891521Y-97937351D01*
X147863558Y-97944356D01*
X147835043Y-97948586D01*
X147806250Y-97950000D01*
X146793750Y-97950000D01*
X146764957Y-97948586D01*
X146736442Y-97944356D01*
X146708479Y-97937351D01*
X146681337Y-97927640D01*
X146655277Y-97915314D01*
X146630551Y-97900494D01*
X146607397Y-97883322D01*
X146586037Y-97863963D01*
X146566678Y-97842603D01*
X146549506Y-97819449D01*
X146534686Y-97794723D01*
X146522360Y-97768663D01*
X146512649Y-97741521D01*
X146505644Y-97713558D01*
X146501414Y-97685043D01*
X146500000Y-97656250D01*
X146500000Y-97068750D01*
X146501414Y-97039957D01*
X146505644Y-97011442D01*
X146512649Y-96983479D01*
X146522360Y-96956337D01*
X146534686Y-96930277D01*
X146549506Y-96905551D01*
X146566678Y-96882397D01*
X146586037Y-96861037D01*
X146607397Y-96841678D01*
X146630551Y-96824506D01*
X146655277Y-96809686D01*
X146681337Y-96797360D01*
X146708479Y-96787649D01*
X146736442Y-96780644D01*
X146764957Y-96776414D01*
X146793750Y-96775000D01*
X147806250Y-96775000D01*
X147835043Y-96776414D01*
X147835043Y-96776414D01*
G37*
D21*
X147300000Y-97362500D03*
D18*
G36*
X147835043Y-98651414D02*
X147863558Y-98655644D01*
X147891521Y-98662649D01*
X147918663Y-98672360D01*
X147944723Y-98684686D01*
X147969449Y-98699506D01*
X147992603Y-98716678D01*
X148013963Y-98736037D01*
X148033322Y-98757397D01*
X148050494Y-98780551D01*
X148065314Y-98805277D01*
X148077640Y-98831337D01*
X148087351Y-98858479D01*
X148094356Y-98886442D01*
X148098586Y-98914957D01*
X148100000Y-98943750D01*
X148100000Y-99531250D01*
X148098586Y-99560043D01*
X148094356Y-99588558D01*
X148087351Y-99616521D01*
X148077640Y-99643663D01*
X148065314Y-99669723D01*
X148050494Y-99694449D01*
X148033322Y-99717603D01*
X148013963Y-99738963D01*
X147992603Y-99758322D01*
X147969449Y-99775494D01*
X147944723Y-99790314D01*
X147918663Y-99802640D01*
X147891521Y-99812351D01*
X147863558Y-99819356D01*
X147835043Y-99823586D01*
X147806250Y-99825000D01*
X146793750Y-99825000D01*
X146764957Y-99823586D01*
X146736442Y-99819356D01*
X146708479Y-99812351D01*
X146681337Y-99802640D01*
X146655277Y-99790314D01*
X146630551Y-99775494D01*
X146607397Y-99758322D01*
X146586037Y-99738963D01*
X146566678Y-99717603D01*
X146549506Y-99694449D01*
X146534686Y-99669723D01*
X146522360Y-99643663D01*
X146512649Y-99616521D01*
X146505644Y-99588558D01*
X146501414Y-99560043D01*
X146500000Y-99531250D01*
X146500000Y-98943750D01*
X146501414Y-98914957D01*
X146505644Y-98886442D01*
X146512649Y-98858479D01*
X146522360Y-98831337D01*
X146534686Y-98805277D01*
X146549506Y-98780551D01*
X146566678Y-98757397D01*
X146586037Y-98736037D01*
X146607397Y-98716678D01*
X146630551Y-98699506D01*
X146655277Y-98684686D01*
X146681337Y-98672360D01*
X146708479Y-98662649D01*
X146736442Y-98655644D01*
X146764957Y-98651414D01*
X146793750Y-98650000D01*
X147806250Y-98650000D01*
X147835043Y-98651414D01*
X147835043Y-98651414D01*
G37*
D21*
X147300000Y-99237500D03*
G04 #@! TD*
D18*
G04 #@! TO.C,C2*
G36*
X177097543Y-103501414D02*
X177126058Y-103505644D01*
X177154021Y-103512649D01*
X177181163Y-103522360D01*
X177207223Y-103534686D01*
X177231949Y-103549506D01*
X177255103Y-103566678D01*
X177276463Y-103586037D01*
X177295822Y-103607397D01*
X177312994Y-103630551D01*
X177327814Y-103655277D01*
X177340140Y-103681337D01*
X177349851Y-103708479D01*
X177356856Y-103736442D01*
X177361086Y-103764957D01*
X177362500Y-103793750D01*
X177362500Y-104806250D01*
X177361086Y-104835043D01*
X177356856Y-104863558D01*
X177349851Y-104891521D01*
X177340140Y-104918663D01*
X177327814Y-104944723D01*
X177312994Y-104969449D01*
X177295822Y-104992603D01*
X177276463Y-105013963D01*
X177255103Y-105033322D01*
X177231949Y-105050494D01*
X177207223Y-105065314D01*
X177181163Y-105077640D01*
X177154021Y-105087351D01*
X177126058Y-105094356D01*
X177097543Y-105098586D01*
X177068750Y-105100000D01*
X176481250Y-105100000D01*
X176452457Y-105098586D01*
X176423942Y-105094356D01*
X176395979Y-105087351D01*
X176368837Y-105077640D01*
X176342777Y-105065314D01*
X176318051Y-105050494D01*
X176294897Y-105033322D01*
X176273537Y-105013963D01*
X176254178Y-104992603D01*
X176237006Y-104969449D01*
X176222186Y-104944723D01*
X176209860Y-104918663D01*
X176200149Y-104891521D01*
X176193144Y-104863558D01*
X176188914Y-104835043D01*
X176187500Y-104806250D01*
X176187500Y-103793750D01*
X176188914Y-103764957D01*
X176193144Y-103736442D01*
X176200149Y-103708479D01*
X176209860Y-103681337D01*
X176222186Y-103655277D01*
X176237006Y-103630551D01*
X176254178Y-103607397D01*
X176273537Y-103586037D01*
X176294897Y-103566678D01*
X176318051Y-103549506D01*
X176342777Y-103534686D01*
X176368837Y-103522360D01*
X176395979Y-103512649D01*
X176423942Y-103505644D01*
X176452457Y-103501414D01*
X176481250Y-103500000D01*
X177068750Y-103500000D01*
X177097543Y-103501414D01*
X177097543Y-103501414D01*
G37*
D21*
X176775000Y-104300000D03*
D18*
G36*
X175222543Y-103501414D02*
X175251058Y-103505644D01*
X175279021Y-103512649D01*
X175306163Y-103522360D01*
X175332223Y-103534686D01*
X175356949Y-103549506D01*
X175380103Y-103566678D01*
X175401463Y-103586037D01*
X175420822Y-103607397D01*
X175437994Y-103630551D01*
X175452814Y-103655277D01*
X175465140Y-103681337D01*
X175474851Y-103708479D01*
X175481856Y-103736442D01*
X175486086Y-103764957D01*
X175487500Y-103793750D01*
X175487500Y-104806250D01*
X175486086Y-104835043D01*
X175481856Y-104863558D01*
X175474851Y-104891521D01*
X175465140Y-104918663D01*
X175452814Y-104944723D01*
X175437994Y-104969449D01*
X175420822Y-104992603D01*
X175401463Y-105013963D01*
X175380103Y-105033322D01*
X175356949Y-105050494D01*
X175332223Y-105065314D01*
X175306163Y-105077640D01*
X175279021Y-105087351D01*
X175251058Y-105094356D01*
X175222543Y-105098586D01*
X175193750Y-105100000D01*
X174606250Y-105100000D01*
X174577457Y-105098586D01*
X174548942Y-105094356D01*
X174520979Y-105087351D01*
X174493837Y-105077640D01*
X174467777Y-105065314D01*
X174443051Y-105050494D01*
X174419897Y-105033322D01*
X174398537Y-105013963D01*
X174379178Y-104992603D01*
X174362006Y-104969449D01*
X174347186Y-104944723D01*
X174334860Y-104918663D01*
X174325149Y-104891521D01*
X174318144Y-104863558D01*
X174313914Y-104835043D01*
X174312500Y-104806250D01*
X174312500Y-103793750D01*
X174313914Y-103764957D01*
X174318144Y-103736442D01*
X174325149Y-103708479D01*
X174334860Y-103681337D01*
X174347186Y-103655277D01*
X174362006Y-103630551D01*
X174379178Y-103607397D01*
X174398537Y-103586037D01*
X174419897Y-103566678D01*
X174443051Y-103549506D01*
X174467777Y-103534686D01*
X174493837Y-103522360D01*
X174520979Y-103512649D01*
X174548942Y-103505644D01*
X174577457Y-103501414D01*
X174606250Y-103500000D01*
X175193750Y-103500000D01*
X175222543Y-103501414D01*
X175222543Y-103501414D01*
G37*
D21*
X174900000Y-104300000D03*
G04 #@! TD*
D18*
G04 #@! TO.C,R3*
G36*
X178422543Y-85801414D02*
X178451058Y-85805644D01*
X178479021Y-85812649D01*
X178506163Y-85822360D01*
X178532223Y-85834686D01*
X178556949Y-85849506D01*
X178580103Y-85866678D01*
X178601463Y-85886037D01*
X178620822Y-85907397D01*
X178637994Y-85930551D01*
X178652814Y-85955277D01*
X178665140Y-85981337D01*
X178674851Y-86008479D01*
X178681856Y-86036442D01*
X178686086Y-86064957D01*
X178687500Y-86093750D01*
X178687500Y-87106250D01*
X178686086Y-87135043D01*
X178681856Y-87163558D01*
X178674851Y-87191521D01*
X178665140Y-87218663D01*
X178652814Y-87244723D01*
X178637994Y-87269449D01*
X178620822Y-87292603D01*
X178601463Y-87313963D01*
X178580103Y-87333322D01*
X178556949Y-87350494D01*
X178532223Y-87365314D01*
X178506163Y-87377640D01*
X178479021Y-87387351D01*
X178451058Y-87394356D01*
X178422543Y-87398586D01*
X178393750Y-87400000D01*
X177806250Y-87400000D01*
X177777457Y-87398586D01*
X177748942Y-87394356D01*
X177720979Y-87387351D01*
X177693837Y-87377640D01*
X177667777Y-87365314D01*
X177643051Y-87350494D01*
X177619897Y-87333322D01*
X177598537Y-87313963D01*
X177579178Y-87292603D01*
X177562006Y-87269449D01*
X177547186Y-87244723D01*
X177534860Y-87218663D01*
X177525149Y-87191521D01*
X177518144Y-87163558D01*
X177513914Y-87135043D01*
X177512500Y-87106250D01*
X177512500Y-86093750D01*
X177513914Y-86064957D01*
X177518144Y-86036442D01*
X177525149Y-86008479D01*
X177534860Y-85981337D01*
X177547186Y-85955277D01*
X177562006Y-85930551D01*
X177579178Y-85907397D01*
X177598537Y-85886037D01*
X177619897Y-85866678D01*
X177643051Y-85849506D01*
X177667777Y-85834686D01*
X177693837Y-85822360D01*
X177720979Y-85812649D01*
X177748942Y-85805644D01*
X177777457Y-85801414D01*
X177806250Y-85800000D01*
X178393750Y-85800000D01*
X178422543Y-85801414D01*
X178422543Y-85801414D01*
G37*
D21*
X178100000Y-86600000D03*
D18*
G36*
X176547543Y-85801414D02*
X176576058Y-85805644D01*
X176604021Y-85812649D01*
X176631163Y-85822360D01*
X176657223Y-85834686D01*
X176681949Y-85849506D01*
X176705103Y-85866678D01*
X176726463Y-85886037D01*
X176745822Y-85907397D01*
X176762994Y-85930551D01*
X176777814Y-85955277D01*
X176790140Y-85981337D01*
X176799851Y-86008479D01*
X176806856Y-86036442D01*
X176811086Y-86064957D01*
X176812500Y-86093750D01*
X176812500Y-87106250D01*
X176811086Y-87135043D01*
X176806856Y-87163558D01*
X176799851Y-87191521D01*
X176790140Y-87218663D01*
X176777814Y-87244723D01*
X176762994Y-87269449D01*
X176745822Y-87292603D01*
X176726463Y-87313963D01*
X176705103Y-87333322D01*
X176681949Y-87350494D01*
X176657223Y-87365314D01*
X176631163Y-87377640D01*
X176604021Y-87387351D01*
X176576058Y-87394356D01*
X176547543Y-87398586D01*
X176518750Y-87400000D01*
X175931250Y-87400000D01*
X175902457Y-87398586D01*
X175873942Y-87394356D01*
X175845979Y-87387351D01*
X175818837Y-87377640D01*
X175792777Y-87365314D01*
X175768051Y-87350494D01*
X175744897Y-87333322D01*
X175723537Y-87313963D01*
X175704178Y-87292603D01*
X175687006Y-87269449D01*
X175672186Y-87244723D01*
X175659860Y-87218663D01*
X175650149Y-87191521D01*
X175643144Y-87163558D01*
X175638914Y-87135043D01*
X175637500Y-87106250D01*
X175637500Y-86093750D01*
X175638914Y-86064957D01*
X175643144Y-86036442D01*
X175650149Y-86008479D01*
X175659860Y-85981337D01*
X175672186Y-85955277D01*
X175687006Y-85930551D01*
X175704178Y-85907397D01*
X175723537Y-85886037D01*
X175744897Y-85866678D01*
X175768051Y-85849506D01*
X175792777Y-85834686D01*
X175818837Y-85822360D01*
X175845979Y-85812649D01*
X175873942Y-85805644D01*
X175902457Y-85801414D01*
X175931250Y-85800000D01*
X176518750Y-85800000D01*
X176547543Y-85801414D01*
X176547543Y-85801414D01*
G37*
D21*
X176225000Y-86600000D03*
G04 #@! TD*
D18*
G04 #@! TO.C,R4*
G36*
X175635043Y-88038914D02*
X175663558Y-88043144D01*
X175691521Y-88050149D01*
X175718663Y-88059860D01*
X175744723Y-88072186D01*
X175769449Y-88087006D01*
X175792603Y-88104178D01*
X175813963Y-88123537D01*
X175833322Y-88144897D01*
X175850494Y-88168051D01*
X175865314Y-88192777D01*
X175877640Y-88218837D01*
X175887351Y-88245979D01*
X175894356Y-88273942D01*
X175898586Y-88302457D01*
X175900000Y-88331250D01*
X175900000Y-88918750D01*
X175898586Y-88947543D01*
X175894356Y-88976058D01*
X175887351Y-89004021D01*
X175877640Y-89031163D01*
X175865314Y-89057223D01*
X175850494Y-89081949D01*
X175833322Y-89105103D01*
X175813963Y-89126463D01*
X175792603Y-89145822D01*
X175769449Y-89162994D01*
X175744723Y-89177814D01*
X175718663Y-89190140D01*
X175691521Y-89199851D01*
X175663558Y-89206856D01*
X175635043Y-89211086D01*
X175606250Y-89212500D01*
X174593750Y-89212500D01*
X174564957Y-89211086D01*
X174536442Y-89206856D01*
X174508479Y-89199851D01*
X174481337Y-89190140D01*
X174455277Y-89177814D01*
X174430551Y-89162994D01*
X174407397Y-89145822D01*
X174386037Y-89126463D01*
X174366678Y-89105103D01*
X174349506Y-89081949D01*
X174334686Y-89057223D01*
X174322360Y-89031163D01*
X174312649Y-89004021D01*
X174305644Y-88976058D01*
X174301414Y-88947543D01*
X174300000Y-88918750D01*
X174300000Y-88331250D01*
X174301414Y-88302457D01*
X174305644Y-88273942D01*
X174312649Y-88245979D01*
X174322360Y-88218837D01*
X174334686Y-88192777D01*
X174349506Y-88168051D01*
X174366678Y-88144897D01*
X174386037Y-88123537D01*
X174407397Y-88104178D01*
X174430551Y-88087006D01*
X174455277Y-88072186D01*
X174481337Y-88059860D01*
X174508479Y-88050149D01*
X174536442Y-88043144D01*
X174564957Y-88038914D01*
X174593750Y-88037500D01*
X175606250Y-88037500D01*
X175635043Y-88038914D01*
X175635043Y-88038914D01*
G37*
D21*
X175100000Y-88625000D03*
D18*
G36*
X175635043Y-89913914D02*
X175663558Y-89918144D01*
X175691521Y-89925149D01*
X175718663Y-89934860D01*
X175744723Y-89947186D01*
X175769449Y-89962006D01*
X175792603Y-89979178D01*
X175813963Y-89998537D01*
X175833322Y-90019897D01*
X175850494Y-90043051D01*
X175865314Y-90067777D01*
X175877640Y-90093837D01*
X175887351Y-90120979D01*
X175894356Y-90148942D01*
X175898586Y-90177457D01*
X175900000Y-90206250D01*
X175900000Y-90793750D01*
X175898586Y-90822543D01*
X175894356Y-90851058D01*
X175887351Y-90879021D01*
X175877640Y-90906163D01*
X175865314Y-90932223D01*
X175850494Y-90956949D01*
X175833322Y-90980103D01*
X175813963Y-91001463D01*
X175792603Y-91020822D01*
X175769449Y-91037994D01*
X175744723Y-91052814D01*
X175718663Y-91065140D01*
X175691521Y-91074851D01*
X175663558Y-91081856D01*
X175635043Y-91086086D01*
X175606250Y-91087500D01*
X174593750Y-91087500D01*
X174564957Y-91086086D01*
X174536442Y-91081856D01*
X174508479Y-91074851D01*
X174481337Y-91065140D01*
X174455277Y-91052814D01*
X174430551Y-91037994D01*
X174407397Y-91020822D01*
X174386037Y-91001463D01*
X174366678Y-90980103D01*
X174349506Y-90956949D01*
X174334686Y-90932223D01*
X174322360Y-90906163D01*
X174312649Y-90879021D01*
X174305644Y-90851058D01*
X174301414Y-90822543D01*
X174300000Y-90793750D01*
X174300000Y-90206250D01*
X174301414Y-90177457D01*
X174305644Y-90148942D01*
X174312649Y-90120979D01*
X174322360Y-90093837D01*
X174334686Y-90067777D01*
X174349506Y-90043051D01*
X174366678Y-90019897D01*
X174386037Y-89998537D01*
X174407397Y-89979178D01*
X174430551Y-89962006D01*
X174455277Y-89947186D01*
X174481337Y-89934860D01*
X174508479Y-89925149D01*
X174536442Y-89918144D01*
X174564957Y-89913914D01*
X174593750Y-89912500D01*
X175606250Y-89912500D01*
X175635043Y-89913914D01*
X175635043Y-89913914D01*
G37*
D21*
X175100000Y-90500000D03*
G04 #@! TD*
D18*
G04 #@! TO.C,R5*
G36*
X159560043Y-77901414D02*
X159588558Y-77905644D01*
X159616521Y-77912649D01*
X159643663Y-77922360D01*
X159669723Y-77934686D01*
X159694449Y-77949506D01*
X159717603Y-77966678D01*
X159738963Y-77986037D01*
X159758322Y-78007397D01*
X159775494Y-78030551D01*
X159790314Y-78055277D01*
X159802640Y-78081337D01*
X159812351Y-78108479D01*
X159819356Y-78136442D01*
X159823586Y-78164957D01*
X159825000Y-78193750D01*
X159825000Y-79206250D01*
X159823586Y-79235043D01*
X159819356Y-79263558D01*
X159812351Y-79291521D01*
X159802640Y-79318663D01*
X159790314Y-79344723D01*
X159775494Y-79369449D01*
X159758322Y-79392603D01*
X159738963Y-79413963D01*
X159717603Y-79433322D01*
X159694449Y-79450494D01*
X159669723Y-79465314D01*
X159643663Y-79477640D01*
X159616521Y-79487351D01*
X159588558Y-79494356D01*
X159560043Y-79498586D01*
X159531250Y-79500000D01*
X158943750Y-79500000D01*
X158914957Y-79498586D01*
X158886442Y-79494356D01*
X158858479Y-79487351D01*
X158831337Y-79477640D01*
X158805277Y-79465314D01*
X158780551Y-79450494D01*
X158757397Y-79433322D01*
X158736037Y-79413963D01*
X158716678Y-79392603D01*
X158699506Y-79369449D01*
X158684686Y-79344723D01*
X158672360Y-79318663D01*
X158662649Y-79291521D01*
X158655644Y-79263558D01*
X158651414Y-79235043D01*
X158650000Y-79206250D01*
X158650000Y-78193750D01*
X158651414Y-78164957D01*
X158655644Y-78136442D01*
X158662649Y-78108479D01*
X158672360Y-78081337D01*
X158684686Y-78055277D01*
X158699506Y-78030551D01*
X158716678Y-78007397D01*
X158736037Y-77986037D01*
X158757397Y-77966678D01*
X158780551Y-77949506D01*
X158805277Y-77934686D01*
X158831337Y-77922360D01*
X158858479Y-77912649D01*
X158886442Y-77905644D01*
X158914957Y-77901414D01*
X158943750Y-77900000D01*
X159531250Y-77900000D01*
X159560043Y-77901414D01*
X159560043Y-77901414D01*
G37*
D21*
X159237500Y-78700000D03*
D18*
G36*
X157685043Y-77901414D02*
X157713558Y-77905644D01*
X157741521Y-77912649D01*
X157768663Y-77922360D01*
X157794723Y-77934686D01*
X157819449Y-77949506D01*
X157842603Y-77966678D01*
X157863963Y-77986037D01*
X157883322Y-78007397D01*
X157900494Y-78030551D01*
X157915314Y-78055277D01*
X157927640Y-78081337D01*
X157937351Y-78108479D01*
X157944356Y-78136442D01*
X157948586Y-78164957D01*
X157950000Y-78193750D01*
X157950000Y-79206250D01*
X157948586Y-79235043D01*
X157944356Y-79263558D01*
X157937351Y-79291521D01*
X157927640Y-79318663D01*
X157915314Y-79344723D01*
X157900494Y-79369449D01*
X157883322Y-79392603D01*
X157863963Y-79413963D01*
X157842603Y-79433322D01*
X157819449Y-79450494D01*
X157794723Y-79465314D01*
X157768663Y-79477640D01*
X157741521Y-79487351D01*
X157713558Y-79494356D01*
X157685043Y-79498586D01*
X157656250Y-79500000D01*
X157068750Y-79500000D01*
X157039957Y-79498586D01*
X157011442Y-79494356D01*
X156983479Y-79487351D01*
X156956337Y-79477640D01*
X156930277Y-79465314D01*
X156905551Y-79450494D01*
X156882397Y-79433322D01*
X156861037Y-79413963D01*
X156841678Y-79392603D01*
X156824506Y-79369449D01*
X156809686Y-79344723D01*
X156797360Y-79318663D01*
X156787649Y-79291521D01*
X156780644Y-79263558D01*
X156776414Y-79235043D01*
X156775000Y-79206250D01*
X156775000Y-78193750D01*
X156776414Y-78164957D01*
X156780644Y-78136442D01*
X156787649Y-78108479D01*
X156797360Y-78081337D01*
X156809686Y-78055277D01*
X156824506Y-78030551D01*
X156841678Y-78007397D01*
X156861037Y-77986037D01*
X156882397Y-77966678D01*
X156905551Y-77949506D01*
X156930277Y-77934686D01*
X156956337Y-77922360D01*
X156983479Y-77912649D01*
X157011442Y-77905644D01*
X157039957Y-77901414D01*
X157068750Y-77900000D01*
X157656250Y-77900000D01*
X157685043Y-77901414D01*
X157685043Y-77901414D01*
G37*
D21*
X157362500Y-78700000D03*
G04 #@! TD*
D18*
G04 #@! TO.C,R6*
G36*
X166635043Y-84413914D02*
X166663558Y-84418144D01*
X166691521Y-84425149D01*
X166718663Y-84434860D01*
X166744723Y-84447186D01*
X166769449Y-84462006D01*
X166792603Y-84479178D01*
X166813963Y-84498537D01*
X166833322Y-84519897D01*
X166850494Y-84543051D01*
X166865314Y-84567777D01*
X166877640Y-84593837D01*
X166887351Y-84620979D01*
X166894356Y-84648942D01*
X166898586Y-84677457D01*
X166900000Y-84706250D01*
X166900000Y-85293750D01*
X166898586Y-85322543D01*
X166894356Y-85351058D01*
X166887351Y-85379021D01*
X166877640Y-85406163D01*
X166865314Y-85432223D01*
X166850494Y-85456949D01*
X166833322Y-85480103D01*
X166813963Y-85501463D01*
X166792603Y-85520822D01*
X166769449Y-85537994D01*
X166744723Y-85552814D01*
X166718663Y-85565140D01*
X166691521Y-85574851D01*
X166663558Y-85581856D01*
X166635043Y-85586086D01*
X166606250Y-85587500D01*
X165593750Y-85587500D01*
X165564957Y-85586086D01*
X165536442Y-85581856D01*
X165508479Y-85574851D01*
X165481337Y-85565140D01*
X165455277Y-85552814D01*
X165430551Y-85537994D01*
X165407397Y-85520822D01*
X165386037Y-85501463D01*
X165366678Y-85480103D01*
X165349506Y-85456949D01*
X165334686Y-85432223D01*
X165322360Y-85406163D01*
X165312649Y-85379021D01*
X165305644Y-85351058D01*
X165301414Y-85322543D01*
X165300000Y-85293750D01*
X165300000Y-84706250D01*
X165301414Y-84677457D01*
X165305644Y-84648942D01*
X165312649Y-84620979D01*
X165322360Y-84593837D01*
X165334686Y-84567777D01*
X165349506Y-84543051D01*
X165366678Y-84519897D01*
X165386037Y-84498537D01*
X165407397Y-84479178D01*
X165430551Y-84462006D01*
X165455277Y-84447186D01*
X165481337Y-84434860D01*
X165508479Y-84425149D01*
X165536442Y-84418144D01*
X165564957Y-84413914D01*
X165593750Y-84412500D01*
X166606250Y-84412500D01*
X166635043Y-84413914D01*
X166635043Y-84413914D01*
G37*
D21*
X166100000Y-85000000D03*
D18*
G36*
X166635043Y-82538914D02*
X166663558Y-82543144D01*
X166691521Y-82550149D01*
X166718663Y-82559860D01*
X166744723Y-82572186D01*
X166769449Y-82587006D01*
X166792603Y-82604178D01*
X166813963Y-82623537D01*
X166833322Y-82644897D01*
X166850494Y-82668051D01*
X166865314Y-82692777D01*
X166877640Y-82718837D01*
X166887351Y-82745979D01*
X166894356Y-82773942D01*
X166898586Y-82802457D01*
X166900000Y-82831250D01*
X166900000Y-83418750D01*
X166898586Y-83447543D01*
X166894356Y-83476058D01*
X166887351Y-83504021D01*
X166877640Y-83531163D01*
X166865314Y-83557223D01*
X166850494Y-83581949D01*
X166833322Y-83605103D01*
X166813963Y-83626463D01*
X166792603Y-83645822D01*
X166769449Y-83662994D01*
X166744723Y-83677814D01*
X166718663Y-83690140D01*
X166691521Y-83699851D01*
X166663558Y-83706856D01*
X166635043Y-83711086D01*
X166606250Y-83712500D01*
X165593750Y-83712500D01*
X165564957Y-83711086D01*
X165536442Y-83706856D01*
X165508479Y-83699851D01*
X165481337Y-83690140D01*
X165455277Y-83677814D01*
X165430551Y-83662994D01*
X165407397Y-83645822D01*
X165386037Y-83626463D01*
X165366678Y-83605103D01*
X165349506Y-83581949D01*
X165334686Y-83557223D01*
X165322360Y-83531163D01*
X165312649Y-83504021D01*
X165305644Y-83476058D01*
X165301414Y-83447543D01*
X165300000Y-83418750D01*
X165300000Y-82831250D01*
X165301414Y-82802457D01*
X165305644Y-82773942D01*
X165312649Y-82745979D01*
X165322360Y-82718837D01*
X165334686Y-82692777D01*
X165349506Y-82668051D01*
X165366678Y-82644897D01*
X165386037Y-82623537D01*
X165407397Y-82604178D01*
X165430551Y-82587006D01*
X165455277Y-82572186D01*
X165481337Y-82559860D01*
X165508479Y-82550149D01*
X165536442Y-82543144D01*
X165564957Y-82538914D01*
X165593750Y-82537500D01*
X166606250Y-82537500D01*
X166635043Y-82538914D01*
X166635043Y-82538914D01*
G37*
D21*
X166100000Y-83125000D03*
G04 #@! TD*
D18*
G04 #@! TO.C,R7*
G36*
X172822543Y-89301414D02*
X172851058Y-89305644D01*
X172879021Y-89312649D01*
X172906163Y-89322360D01*
X172932223Y-89334686D01*
X172956949Y-89349506D01*
X172980103Y-89366678D01*
X173001463Y-89386037D01*
X173020822Y-89407397D01*
X173037994Y-89430551D01*
X173052814Y-89455277D01*
X173065140Y-89481337D01*
X173074851Y-89508479D01*
X173081856Y-89536442D01*
X173086086Y-89564957D01*
X173087500Y-89593750D01*
X173087500Y-90606250D01*
X173086086Y-90635043D01*
X173081856Y-90663558D01*
X173074851Y-90691521D01*
X173065140Y-90718663D01*
X173052814Y-90744723D01*
X173037994Y-90769449D01*
X173020822Y-90792603D01*
X173001463Y-90813963D01*
X172980103Y-90833322D01*
X172956949Y-90850494D01*
X172932223Y-90865314D01*
X172906163Y-90877640D01*
X172879021Y-90887351D01*
X172851058Y-90894356D01*
X172822543Y-90898586D01*
X172793750Y-90900000D01*
X172206250Y-90900000D01*
X172177457Y-90898586D01*
X172148942Y-90894356D01*
X172120979Y-90887351D01*
X172093837Y-90877640D01*
X172067777Y-90865314D01*
X172043051Y-90850494D01*
X172019897Y-90833322D01*
X171998537Y-90813963D01*
X171979178Y-90792603D01*
X171962006Y-90769449D01*
X171947186Y-90744723D01*
X171934860Y-90718663D01*
X171925149Y-90691521D01*
X171918144Y-90663558D01*
X171913914Y-90635043D01*
X171912500Y-90606250D01*
X171912500Y-89593750D01*
X171913914Y-89564957D01*
X171918144Y-89536442D01*
X171925149Y-89508479D01*
X171934860Y-89481337D01*
X171947186Y-89455277D01*
X171962006Y-89430551D01*
X171979178Y-89407397D01*
X171998537Y-89386037D01*
X172019897Y-89366678D01*
X172043051Y-89349506D01*
X172067777Y-89334686D01*
X172093837Y-89322360D01*
X172120979Y-89312649D01*
X172148942Y-89305644D01*
X172177457Y-89301414D01*
X172206250Y-89300000D01*
X172793750Y-89300000D01*
X172822543Y-89301414D01*
X172822543Y-89301414D01*
G37*
D21*
X172500000Y-90100000D03*
D18*
G36*
X170947543Y-89301414D02*
X170976058Y-89305644D01*
X171004021Y-89312649D01*
X171031163Y-89322360D01*
X171057223Y-89334686D01*
X171081949Y-89349506D01*
X171105103Y-89366678D01*
X171126463Y-89386037D01*
X171145822Y-89407397D01*
X171162994Y-89430551D01*
X171177814Y-89455277D01*
X171190140Y-89481337D01*
X171199851Y-89508479D01*
X171206856Y-89536442D01*
X171211086Y-89564957D01*
X171212500Y-89593750D01*
X171212500Y-90606250D01*
X171211086Y-90635043D01*
X171206856Y-90663558D01*
X171199851Y-90691521D01*
X171190140Y-90718663D01*
X171177814Y-90744723D01*
X171162994Y-90769449D01*
X171145822Y-90792603D01*
X171126463Y-90813963D01*
X171105103Y-90833322D01*
X171081949Y-90850494D01*
X171057223Y-90865314D01*
X171031163Y-90877640D01*
X171004021Y-90887351D01*
X170976058Y-90894356D01*
X170947543Y-90898586D01*
X170918750Y-90900000D01*
X170331250Y-90900000D01*
X170302457Y-90898586D01*
X170273942Y-90894356D01*
X170245979Y-90887351D01*
X170218837Y-90877640D01*
X170192777Y-90865314D01*
X170168051Y-90850494D01*
X170144897Y-90833322D01*
X170123537Y-90813963D01*
X170104178Y-90792603D01*
X170087006Y-90769449D01*
X170072186Y-90744723D01*
X170059860Y-90718663D01*
X170050149Y-90691521D01*
X170043144Y-90663558D01*
X170038914Y-90635043D01*
X170037500Y-90606250D01*
X170037500Y-89593750D01*
X170038914Y-89564957D01*
X170043144Y-89536442D01*
X170050149Y-89508479D01*
X170059860Y-89481337D01*
X170072186Y-89455277D01*
X170087006Y-89430551D01*
X170104178Y-89407397D01*
X170123537Y-89386037D01*
X170144897Y-89366678D01*
X170168051Y-89349506D01*
X170192777Y-89334686D01*
X170218837Y-89322360D01*
X170245979Y-89312649D01*
X170273942Y-89305644D01*
X170302457Y-89301414D01*
X170331250Y-89300000D01*
X170918750Y-89300000D01*
X170947543Y-89301414D01*
X170947543Y-89301414D01*
G37*
D21*
X170625000Y-90100000D03*
G04 #@! TD*
D18*
G04 #@! TO.C,R8*
G36*
X161935043Y-80888914D02*
X161963558Y-80893144D01*
X161991521Y-80900149D01*
X162018663Y-80909860D01*
X162044723Y-80922186D01*
X162069449Y-80937006D01*
X162092603Y-80954178D01*
X162113963Y-80973537D01*
X162133322Y-80994897D01*
X162150494Y-81018051D01*
X162165314Y-81042777D01*
X162177640Y-81068837D01*
X162187351Y-81095979D01*
X162194356Y-81123942D01*
X162198586Y-81152457D01*
X162200000Y-81181250D01*
X162200000Y-81768750D01*
X162198586Y-81797543D01*
X162194356Y-81826058D01*
X162187351Y-81854021D01*
X162177640Y-81881163D01*
X162165314Y-81907223D01*
X162150494Y-81931949D01*
X162133322Y-81955103D01*
X162113963Y-81976463D01*
X162092603Y-81995822D01*
X162069449Y-82012994D01*
X162044723Y-82027814D01*
X162018663Y-82040140D01*
X161991521Y-82049851D01*
X161963558Y-82056856D01*
X161935043Y-82061086D01*
X161906250Y-82062500D01*
X160893750Y-82062500D01*
X160864957Y-82061086D01*
X160836442Y-82056856D01*
X160808479Y-82049851D01*
X160781337Y-82040140D01*
X160755277Y-82027814D01*
X160730551Y-82012994D01*
X160707397Y-81995822D01*
X160686037Y-81976463D01*
X160666678Y-81955103D01*
X160649506Y-81931949D01*
X160634686Y-81907223D01*
X160622360Y-81881163D01*
X160612649Y-81854021D01*
X160605644Y-81826058D01*
X160601414Y-81797543D01*
X160600000Y-81768750D01*
X160600000Y-81181250D01*
X160601414Y-81152457D01*
X160605644Y-81123942D01*
X160612649Y-81095979D01*
X160622360Y-81068837D01*
X160634686Y-81042777D01*
X160649506Y-81018051D01*
X160666678Y-80994897D01*
X160686037Y-80973537D01*
X160707397Y-80954178D01*
X160730551Y-80937006D01*
X160755277Y-80922186D01*
X160781337Y-80909860D01*
X160808479Y-80900149D01*
X160836442Y-80893144D01*
X160864957Y-80888914D01*
X160893750Y-80887500D01*
X161906250Y-80887500D01*
X161935043Y-80888914D01*
X161935043Y-80888914D01*
G37*
D21*
X161400000Y-81475000D03*
D18*
G36*
X161935043Y-79013914D02*
X161963558Y-79018144D01*
X161991521Y-79025149D01*
X162018663Y-79034860D01*
X162044723Y-79047186D01*
X162069449Y-79062006D01*
X162092603Y-79079178D01*
X162113963Y-79098537D01*
X162133322Y-79119897D01*
X162150494Y-79143051D01*
X162165314Y-79167777D01*
X162177640Y-79193837D01*
X162187351Y-79220979D01*
X162194356Y-79248942D01*
X162198586Y-79277457D01*
X162200000Y-79306250D01*
X162200000Y-79893750D01*
X162198586Y-79922543D01*
X162194356Y-79951058D01*
X162187351Y-79979021D01*
X162177640Y-80006163D01*
X162165314Y-80032223D01*
X162150494Y-80056949D01*
X162133322Y-80080103D01*
X162113963Y-80101463D01*
X162092603Y-80120822D01*
X162069449Y-80137994D01*
X162044723Y-80152814D01*
X162018663Y-80165140D01*
X161991521Y-80174851D01*
X161963558Y-80181856D01*
X161935043Y-80186086D01*
X161906250Y-80187500D01*
X160893750Y-80187500D01*
X160864957Y-80186086D01*
X160836442Y-80181856D01*
X160808479Y-80174851D01*
X160781337Y-80165140D01*
X160755277Y-80152814D01*
X160730551Y-80137994D01*
X160707397Y-80120822D01*
X160686037Y-80101463D01*
X160666678Y-80080103D01*
X160649506Y-80056949D01*
X160634686Y-80032223D01*
X160622360Y-80006163D01*
X160612649Y-79979021D01*
X160605644Y-79951058D01*
X160601414Y-79922543D01*
X160600000Y-79893750D01*
X160600000Y-79306250D01*
X160601414Y-79277457D01*
X160605644Y-79248942D01*
X160612649Y-79220979D01*
X160622360Y-79193837D01*
X160634686Y-79167777D01*
X160649506Y-79143051D01*
X160666678Y-79119897D01*
X160686037Y-79098537D01*
X160707397Y-79079178D01*
X160730551Y-79062006D01*
X160755277Y-79047186D01*
X160781337Y-79034860D01*
X160808479Y-79025149D01*
X160836442Y-79018144D01*
X160864957Y-79013914D01*
X160893750Y-79012500D01*
X161906250Y-79012500D01*
X161935043Y-79013914D01*
X161935043Y-79013914D01*
G37*
D21*
X161400000Y-79600000D03*
G04 #@! TD*
D18*
G04 #@! TO.C,R9*
G36*
X172822543Y-91401414D02*
X172851058Y-91405644D01*
X172879021Y-91412649D01*
X172906163Y-91422360D01*
X172932223Y-91434686D01*
X172956949Y-91449506D01*
X172980103Y-91466678D01*
X173001463Y-91486037D01*
X173020822Y-91507397D01*
X173037994Y-91530551D01*
X173052814Y-91555277D01*
X173065140Y-91581337D01*
X173074851Y-91608479D01*
X173081856Y-91636442D01*
X173086086Y-91664957D01*
X173087500Y-91693750D01*
X173087500Y-92706250D01*
X173086086Y-92735043D01*
X173081856Y-92763558D01*
X173074851Y-92791521D01*
X173065140Y-92818663D01*
X173052814Y-92844723D01*
X173037994Y-92869449D01*
X173020822Y-92892603D01*
X173001463Y-92913963D01*
X172980103Y-92933322D01*
X172956949Y-92950494D01*
X172932223Y-92965314D01*
X172906163Y-92977640D01*
X172879021Y-92987351D01*
X172851058Y-92994356D01*
X172822543Y-92998586D01*
X172793750Y-93000000D01*
X172206250Y-93000000D01*
X172177457Y-92998586D01*
X172148942Y-92994356D01*
X172120979Y-92987351D01*
X172093837Y-92977640D01*
X172067777Y-92965314D01*
X172043051Y-92950494D01*
X172019897Y-92933322D01*
X171998537Y-92913963D01*
X171979178Y-92892603D01*
X171962006Y-92869449D01*
X171947186Y-92844723D01*
X171934860Y-92818663D01*
X171925149Y-92791521D01*
X171918144Y-92763558D01*
X171913914Y-92735043D01*
X171912500Y-92706250D01*
X171912500Y-91693750D01*
X171913914Y-91664957D01*
X171918144Y-91636442D01*
X171925149Y-91608479D01*
X171934860Y-91581337D01*
X171947186Y-91555277D01*
X171962006Y-91530551D01*
X171979178Y-91507397D01*
X171998537Y-91486037D01*
X172019897Y-91466678D01*
X172043051Y-91449506D01*
X172067777Y-91434686D01*
X172093837Y-91422360D01*
X172120979Y-91412649D01*
X172148942Y-91405644D01*
X172177457Y-91401414D01*
X172206250Y-91400000D01*
X172793750Y-91400000D01*
X172822543Y-91401414D01*
X172822543Y-91401414D01*
G37*
D21*
X172500000Y-92200000D03*
D18*
G36*
X170947543Y-91401414D02*
X170976058Y-91405644D01*
X171004021Y-91412649D01*
X171031163Y-91422360D01*
X171057223Y-91434686D01*
X171081949Y-91449506D01*
X171105103Y-91466678D01*
X171126463Y-91486037D01*
X171145822Y-91507397D01*
X171162994Y-91530551D01*
X171177814Y-91555277D01*
X171190140Y-91581337D01*
X171199851Y-91608479D01*
X171206856Y-91636442D01*
X171211086Y-91664957D01*
X171212500Y-91693750D01*
X171212500Y-92706250D01*
X171211086Y-92735043D01*
X171206856Y-92763558D01*
X171199851Y-92791521D01*
X171190140Y-92818663D01*
X171177814Y-92844723D01*
X171162994Y-92869449D01*
X171145822Y-92892603D01*
X171126463Y-92913963D01*
X171105103Y-92933322D01*
X171081949Y-92950494D01*
X171057223Y-92965314D01*
X171031163Y-92977640D01*
X171004021Y-92987351D01*
X170976058Y-92994356D01*
X170947543Y-92998586D01*
X170918750Y-93000000D01*
X170331250Y-93000000D01*
X170302457Y-92998586D01*
X170273942Y-92994356D01*
X170245979Y-92987351D01*
X170218837Y-92977640D01*
X170192777Y-92965314D01*
X170168051Y-92950494D01*
X170144897Y-92933322D01*
X170123537Y-92913963D01*
X170104178Y-92892603D01*
X170087006Y-92869449D01*
X170072186Y-92844723D01*
X170059860Y-92818663D01*
X170050149Y-92791521D01*
X170043144Y-92763558D01*
X170038914Y-92735043D01*
X170037500Y-92706250D01*
X170037500Y-91693750D01*
X170038914Y-91664957D01*
X170043144Y-91636442D01*
X170050149Y-91608479D01*
X170059860Y-91581337D01*
X170072186Y-91555277D01*
X170087006Y-91530551D01*
X170104178Y-91507397D01*
X170123537Y-91486037D01*
X170144897Y-91466678D01*
X170168051Y-91449506D01*
X170192777Y-91434686D01*
X170218837Y-91422360D01*
X170245979Y-91412649D01*
X170273942Y-91405644D01*
X170302457Y-91401414D01*
X170331250Y-91400000D01*
X170918750Y-91400000D01*
X170947543Y-91401414D01*
X170947543Y-91401414D01*
G37*
D21*
X170625000Y-92200000D03*
G04 #@! TD*
D18*
G04 #@! TO.C,R1*
G36*
X177097543Y-91701414D02*
X177126058Y-91705644D01*
X177154021Y-91712649D01*
X177181163Y-91722360D01*
X177207223Y-91734686D01*
X177231949Y-91749506D01*
X177255103Y-91766678D01*
X177276463Y-91786037D01*
X177295822Y-91807397D01*
X177312994Y-91830551D01*
X177327814Y-91855277D01*
X177340140Y-91881337D01*
X177349851Y-91908479D01*
X177356856Y-91936442D01*
X177361086Y-91964957D01*
X177362500Y-91993750D01*
X177362500Y-93006250D01*
X177361086Y-93035043D01*
X177356856Y-93063558D01*
X177349851Y-93091521D01*
X177340140Y-93118663D01*
X177327814Y-93144723D01*
X177312994Y-93169449D01*
X177295822Y-93192603D01*
X177276463Y-93213963D01*
X177255103Y-93233322D01*
X177231949Y-93250494D01*
X177207223Y-93265314D01*
X177181163Y-93277640D01*
X177154021Y-93287351D01*
X177126058Y-93294356D01*
X177097543Y-93298586D01*
X177068750Y-93300000D01*
X176481250Y-93300000D01*
X176452457Y-93298586D01*
X176423942Y-93294356D01*
X176395979Y-93287351D01*
X176368837Y-93277640D01*
X176342777Y-93265314D01*
X176318051Y-93250494D01*
X176294897Y-93233322D01*
X176273537Y-93213963D01*
X176254178Y-93192603D01*
X176237006Y-93169449D01*
X176222186Y-93144723D01*
X176209860Y-93118663D01*
X176200149Y-93091521D01*
X176193144Y-93063558D01*
X176188914Y-93035043D01*
X176187500Y-93006250D01*
X176187500Y-91993750D01*
X176188914Y-91964957D01*
X176193144Y-91936442D01*
X176200149Y-91908479D01*
X176209860Y-91881337D01*
X176222186Y-91855277D01*
X176237006Y-91830551D01*
X176254178Y-91807397D01*
X176273537Y-91786037D01*
X176294897Y-91766678D01*
X176318051Y-91749506D01*
X176342777Y-91734686D01*
X176368837Y-91722360D01*
X176395979Y-91712649D01*
X176423942Y-91705644D01*
X176452457Y-91701414D01*
X176481250Y-91700000D01*
X177068750Y-91700000D01*
X177097543Y-91701414D01*
X177097543Y-91701414D01*
G37*
D21*
X176775000Y-92500000D03*
D18*
G36*
X175222543Y-91701414D02*
X175251058Y-91705644D01*
X175279021Y-91712649D01*
X175306163Y-91722360D01*
X175332223Y-91734686D01*
X175356949Y-91749506D01*
X175380103Y-91766678D01*
X175401463Y-91786037D01*
X175420822Y-91807397D01*
X175437994Y-91830551D01*
X175452814Y-91855277D01*
X175465140Y-91881337D01*
X175474851Y-91908479D01*
X175481856Y-91936442D01*
X175486086Y-91964957D01*
X175487500Y-91993750D01*
X175487500Y-93006250D01*
X175486086Y-93035043D01*
X175481856Y-93063558D01*
X175474851Y-93091521D01*
X175465140Y-93118663D01*
X175452814Y-93144723D01*
X175437994Y-93169449D01*
X175420822Y-93192603D01*
X175401463Y-93213963D01*
X175380103Y-93233322D01*
X175356949Y-93250494D01*
X175332223Y-93265314D01*
X175306163Y-93277640D01*
X175279021Y-93287351D01*
X175251058Y-93294356D01*
X175222543Y-93298586D01*
X175193750Y-93300000D01*
X174606250Y-93300000D01*
X174577457Y-93298586D01*
X174548942Y-93294356D01*
X174520979Y-93287351D01*
X174493837Y-93277640D01*
X174467777Y-93265314D01*
X174443051Y-93250494D01*
X174419897Y-93233322D01*
X174398537Y-93213963D01*
X174379178Y-93192603D01*
X174362006Y-93169449D01*
X174347186Y-93144723D01*
X174334860Y-93118663D01*
X174325149Y-93091521D01*
X174318144Y-93063558D01*
X174313914Y-93035043D01*
X174312500Y-93006250D01*
X174312500Y-91993750D01*
X174313914Y-91964957D01*
X174318144Y-91936442D01*
X174325149Y-91908479D01*
X174334860Y-91881337D01*
X174347186Y-91855277D01*
X174362006Y-91830551D01*
X174379178Y-91807397D01*
X174398537Y-91786037D01*
X174419897Y-91766678D01*
X174443051Y-91749506D01*
X174467777Y-91734686D01*
X174493837Y-91722360D01*
X174520979Y-91712649D01*
X174548942Y-91705644D01*
X174577457Y-91701414D01*
X174606250Y-91700000D01*
X175193750Y-91700000D01*
X175222543Y-91701414D01*
X175222543Y-91701414D01*
G37*
D21*
X174900000Y-92500000D03*
G04 #@! TD*
D18*
G04 #@! TO.C,R11*
G36*
X172822543Y-93501414D02*
X172851058Y-93505644D01*
X172879021Y-93512649D01*
X172906163Y-93522360D01*
X172932223Y-93534686D01*
X172956949Y-93549506D01*
X172980103Y-93566678D01*
X173001463Y-93586037D01*
X173020822Y-93607397D01*
X173037994Y-93630551D01*
X173052814Y-93655277D01*
X173065140Y-93681337D01*
X173074851Y-93708479D01*
X173081856Y-93736442D01*
X173086086Y-93764957D01*
X173087500Y-93793750D01*
X173087500Y-94806250D01*
X173086086Y-94835043D01*
X173081856Y-94863558D01*
X173074851Y-94891521D01*
X173065140Y-94918663D01*
X173052814Y-94944723D01*
X173037994Y-94969449D01*
X173020822Y-94992603D01*
X173001463Y-95013963D01*
X172980103Y-95033322D01*
X172956949Y-95050494D01*
X172932223Y-95065314D01*
X172906163Y-95077640D01*
X172879021Y-95087351D01*
X172851058Y-95094356D01*
X172822543Y-95098586D01*
X172793750Y-95100000D01*
X172206250Y-95100000D01*
X172177457Y-95098586D01*
X172148942Y-95094356D01*
X172120979Y-95087351D01*
X172093837Y-95077640D01*
X172067777Y-95065314D01*
X172043051Y-95050494D01*
X172019897Y-95033322D01*
X171998537Y-95013963D01*
X171979178Y-94992603D01*
X171962006Y-94969449D01*
X171947186Y-94944723D01*
X171934860Y-94918663D01*
X171925149Y-94891521D01*
X171918144Y-94863558D01*
X171913914Y-94835043D01*
X171912500Y-94806250D01*
X171912500Y-93793750D01*
X171913914Y-93764957D01*
X171918144Y-93736442D01*
X171925149Y-93708479D01*
X171934860Y-93681337D01*
X171947186Y-93655277D01*
X171962006Y-93630551D01*
X171979178Y-93607397D01*
X171998537Y-93586037D01*
X172019897Y-93566678D01*
X172043051Y-93549506D01*
X172067777Y-93534686D01*
X172093837Y-93522360D01*
X172120979Y-93512649D01*
X172148942Y-93505644D01*
X172177457Y-93501414D01*
X172206250Y-93500000D01*
X172793750Y-93500000D01*
X172822543Y-93501414D01*
X172822543Y-93501414D01*
G37*
D21*
X172500000Y-94300000D03*
D18*
G36*
X170947543Y-93501414D02*
X170976058Y-93505644D01*
X171004021Y-93512649D01*
X171031163Y-93522360D01*
X171057223Y-93534686D01*
X171081949Y-93549506D01*
X171105103Y-93566678D01*
X171126463Y-93586037D01*
X171145822Y-93607397D01*
X171162994Y-93630551D01*
X171177814Y-93655277D01*
X171190140Y-93681337D01*
X171199851Y-93708479D01*
X171206856Y-93736442D01*
X171211086Y-93764957D01*
X171212500Y-93793750D01*
X171212500Y-94806250D01*
X171211086Y-94835043D01*
X171206856Y-94863558D01*
X171199851Y-94891521D01*
X171190140Y-94918663D01*
X171177814Y-94944723D01*
X171162994Y-94969449D01*
X171145822Y-94992603D01*
X171126463Y-95013963D01*
X171105103Y-95033322D01*
X171081949Y-95050494D01*
X171057223Y-95065314D01*
X171031163Y-95077640D01*
X171004021Y-95087351D01*
X170976058Y-95094356D01*
X170947543Y-95098586D01*
X170918750Y-95100000D01*
X170331250Y-95100000D01*
X170302457Y-95098586D01*
X170273942Y-95094356D01*
X170245979Y-95087351D01*
X170218837Y-95077640D01*
X170192777Y-95065314D01*
X170168051Y-95050494D01*
X170144897Y-95033322D01*
X170123537Y-95013963D01*
X170104178Y-94992603D01*
X170087006Y-94969449D01*
X170072186Y-94944723D01*
X170059860Y-94918663D01*
X170050149Y-94891521D01*
X170043144Y-94863558D01*
X170038914Y-94835043D01*
X170037500Y-94806250D01*
X170037500Y-93793750D01*
X170038914Y-93764957D01*
X170043144Y-93736442D01*
X170050149Y-93708479D01*
X170059860Y-93681337D01*
X170072186Y-93655277D01*
X170087006Y-93630551D01*
X170104178Y-93607397D01*
X170123537Y-93586037D01*
X170144897Y-93566678D01*
X170168051Y-93549506D01*
X170192777Y-93534686D01*
X170218837Y-93522360D01*
X170245979Y-93512649D01*
X170273942Y-93505644D01*
X170302457Y-93501414D01*
X170331250Y-93500000D01*
X170918750Y-93500000D01*
X170947543Y-93501414D01*
X170947543Y-93501414D01*
G37*
D21*
X170625000Y-94300000D03*
G04 #@! TD*
D18*
G04 #@! TO.C,R12*
G36*
X172822543Y-95601414D02*
X172851058Y-95605644D01*
X172879021Y-95612649D01*
X172906163Y-95622360D01*
X172932223Y-95634686D01*
X172956949Y-95649506D01*
X172980103Y-95666678D01*
X173001463Y-95686037D01*
X173020822Y-95707397D01*
X173037994Y-95730551D01*
X173052814Y-95755277D01*
X173065140Y-95781337D01*
X173074851Y-95808479D01*
X173081856Y-95836442D01*
X173086086Y-95864957D01*
X173087500Y-95893750D01*
X173087500Y-96906250D01*
X173086086Y-96935043D01*
X173081856Y-96963558D01*
X173074851Y-96991521D01*
X173065140Y-97018663D01*
X173052814Y-97044723D01*
X173037994Y-97069449D01*
X173020822Y-97092603D01*
X173001463Y-97113963D01*
X172980103Y-97133322D01*
X172956949Y-97150494D01*
X172932223Y-97165314D01*
X172906163Y-97177640D01*
X172879021Y-97187351D01*
X172851058Y-97194356D01*
X172822543Y-97198586D01*
X172793750Y-97200000D01*
X172206250Y-97200000D01*
X172177457Y-97198586D01*
X172148942Y-97194356D01*
X172120979Y-97187351D01*
X172093837Y-97177640D01*
X172067777Y-97165314D01*
X172043051Y-97150494D01*
X172019897Y-97133322D01*
X171998537Y-97113963D01*
X171979178Y-97092603D01*
X171962006Y-97069449D01*
X171947186Y-97044723D01*
X171934860Y-97018663D01*
X171925149Y-96991521D01*
X171918144Y-96963558D01*
X171913914Y-96935043D01*
X171912500Y-96906250D01*
X171912500Y-95893750D01*
X171913914Y-95864957D01*
X171918144Y-95836442D01*
X171925149Y-95808479D01*
X171934860Y-95781337D01*
X171947186Y-95755277D01*
X171962006Y-95730551D01*
X171979178Y-95707397D01*
X171998537Y-95686037D01*
X172019897Y-95666678D01*
X172043051Y-95649506D01*
X172067777Y-95634686D01*
X172093837Y-95622360D01*
X172120979Y-95612649D01*
X172148942Y-95605644D01*
X172177457Y-95601414D01*
X172206250Y-95600000D01*
X172793750Y-95600000D01*
X172822543Y-95601414D01*
X172822543Y-95601414D01*
G37*
D21*
X172500000Y-96400000D03*
D18*
G36*
X170947543Y-95601414D02*
X170976058Y-95605644D01*
X171004021Y-95612649D01*
X171031163Y-95622360D01*
X171057223Y-95634686D01*
X171081949Y-95649506D01*
X171105103Y-95666678D01*
X171126463Y-95686037D01*
X171145822Y-95707397D01*
X171162994Y-95730551D01*
X171177814Y-95755277D01*
X171190140Y-95781337D01*
X171199851Y-95808479D01*
X171206856Y-95836442D01*
X171211086Y-95864957D01*
X171212500Y-95893750D01*
X171212500Y-96906250D01*
X171211086Y-96935043D01*
X171206856Y-96963558D01*
X171199851Y-96991521D01*
X171190140Y-97018663D01*
X171177814Y-97044723D01*
X171162994Y-97069449D01*
X171145822Y-97092603D01*
X171126463Y-97113963D01*
X171105103Y-97133322D01*
X171081949Y-97150494D01*
X171057223Y-97165314D01*
X171031163Y-97177640D01*
X171004021Y-97187351D01*
X170976058Y-97194356D01*
X170947543Y-97198586D01*
X170918750Y-97200000D01*
X170331250Y-97200000D01*
X170302457Y-97198586D01*
X170273942Y-97194356D01*
X170245979Y-97187351D01*
X170218837Y-97177640D01*
X170192777Y-97165314D01*
X170168051Y-97150494D01*
X170144897Y-97133322D01*
X170123537Y-97113963D01*
X170104178Y-97092603D01*
X170087006Y-97069449D01*
X170072186Y-97044723D01*
X170059860Y-97018663D01*
X170050149Y-96991521D01*
X170043144Y-96963558D01*
X170038914Y-96935043D01*
X170037500Y-96906250D01*
X170037500Y-95893750D01*
X170038914Y-95864957D01*
X170043144Y-95836442D01*
X170050149Y-95808479D01*
X170059860Y-95781337D01*
X170072186Y-95755277D01*
X170087006Y-95730551D01*
X170104178Y-95707397D01*
X170123537Y-95686037D01*
X170144897Y-95666678D01*
X170168051Y-95649506D01*
X170192777Y-95634686D01*
X170218837Y-95622360D01*
X170245979Y-95612649D01*
X170273942Y-95605644D01*
X170302457Y-95601414D01*
X170331250Y-95600000D01*
X170918750Y-95600000D01*
X170947543Y-95601414D01*
X170947543Y-95601414D01*
G37*
D21*
X170625000Y-96400000D03*
G04 #@! TD*
D18*
G04 #@! TO.C,R13*
G36*
X142735043Y-93551414D02*
X142763558Y-93555644D01*
X142791521Y-93562649D01*
X142818663Y-93572360D01*
X142844723Y-93584686D01*
X142869449Y-93599506D01*
X142892603Y-93616678D01*
X142913963Y-93636037D01*
X142933322Y-93657397D01*
X142950494Y-93680551D01*
X142965314Y-93705277D01*
X142977640Y-93731337D01*
X142987351Y-93758479D01*
X142994356Y-93786442D01*
X142998586Y-93814957D01*
X143000000Y-93843750D01*
X143000000Y-94431250D01*
X142998586Y-94460043D01*
X142994356Y-94488558D01*
X142987351Y-94516521D01*
X142977640Y-94543663D01*
X142965314Y-94569723D01*
X142950494Y-94594449D01*
X142933322Y-94617603D01*
X142913963Y-94638963D01*
X142892603Y-94658322D01*
X142869449Y-94675494D01*
X142844723Y-94690314D01*
X142818663Y-94702640D01*
X142791521Y-94712351D01*
X142763558Y-94719356D01*
X142735043Y-94723586D01*
X142706250Y-94725000D01*
X141693750Y-94725000D01*
X141664957Y-94723586D01*
X141636442Y-94719356D01*
X141608479Y-94712351D01*
X141581337Y-94702640D01*
X141555277Y-94690314D01*
X141530551Y-94675494D01*
X141507397Y-94658322D01*
X141486037Y-94638963D01*
X141466678Y-94617603D01*
X141449506Y-94594449D01*
X141434686Y-94569723D01*
X141422360Y-94543663D01*
X141412649Y-94516521D01*
X141405644Y-94488558D01*
X141401414Y-94460043D01*
X141400000Y-94431250D01*
X141400000Y-93843750D01*
X141401414Y-93814957D01*
X141405644Y-93786442D01*
X141412649Y-93758479D01*
X141422360Y-93731337D01*
X141434686Y-93705277D01*
X141449506Y-93680551D01*
X141466678Y-93657397D01*
X141486037Y-93636037D01*
X141507397Y-93616678D01*
X141530551Y-93599506D01*
X141555277Y-93584686D01*
X141581337Y-93572360D01*
X141608479Y-93562649D01*
X141636442Y-93555644D01*
X141664957Y-93551414D01*
X141693750Y-93550000D01*
X142706250Y-93550000D01*
X142735043Y-93551414D01*
X142735043Y-93551414D01*
G37*
D21*
X142200000Y-94137500D03*
D18*
G36*
X142735043Y-91676414D02*
X142763558Y-91680644D01*
X142791521Y-91687649D01*
X142818663Y-91697360D01*
X142844723Y-91709686D01*
X142869449Y-91724506D01*
X142892603Y-91741678D01*
X142913963Y-91761037D01*
X142933322Y-91782397D01*
X142950494Y-91805551D01*
X142965314Y-91830277D01*
X142977640Y-91856337D01*
X142987351Y-91883479D01*
X142994356Y-91911442D01*
X142998586Y-91939957D01*
X143000000Y-91968750D01*
X143000000Y-92556250D01*
X142998586Y-92585043D01*
X142994356Y-92613558D01*
X142987351Y-92641521D01*
X142977640Y-92668663D01*
X142965314Y-92694723D01*
X142950494Y-92719449D01*
X142933322Y-92742603D01*
X142913963Y-92763963D01*
X142892603Y-92783322D01*
X142869449Y-92800494D01*
X142844723Y-92815314D01*
X142818663Y-92827640D01*
X142791521Y-92837351D01*
X142763558Y-92844356D01*
X142735043Y-92848586D01*
X142706250Y-92850000D01*
X141693750Y-92850000D01*
X141664957Y-92848586D01*
X141636442Y-92844356D01*
X141608479Y-92837351D01*
X141581337Y-92827640D01*
X141555277Y-92815314D01*
X141530551Y-92800494D01*
X141507397Y-92783322D01*
X141486037Y-92763963D01*
X141466678Y-92742603D01*
X141449506Y-92719449D01*
X141434686Y-92694723D01*
X141422360Y-92668663D01*
X141412649Y-92641521D01*
X141405644Y-92613558D01*
X141401414Y-92585043D01*
X141400000Y-92556250D01*
X141400000Y-91968750D01*
X141401414Y-91939957D01*
X141405644Y-91911442D01*
X141412649Y-91883479D01*
X141422360Y-91856337D01*
X141434686Y-91830277D01*
X141449506Y-91805551D01*
X141466678Y-91782397D01*
X141486037Y-91761037D01*
X141507397Y-91741678D01*
X141530551Y-91724506D01*
X141555277Y-91709686D01*
X141581337Y-91697360D01*
X141608479Y-91687649D01*
X141636442Y-91680644D01*
X141664957Y-91676414D01*
X141693750Y-91675000D01*
X142706250Y-91675000D01*
X142735043Y-91676414D01*
X142735043Y-91676414D01*
G37*
D21*
X142200000Y-92262500D03*
G04 #@! TD*
D18*
G04 #@! TO.C,R14*
G36*
X142247543Y-81801414D02*
X142276058Y-81805644D01*
X142304021Y-81812649D01*
X142331163Y-81822360D01*
X142357223Y-81834686D01*
X142381949Y-81849506D01*
X142405103Y-81866678D01*
X142426463Y-81886037D01*
X142445822Y-81907397D01*
X142462994Y-81930551D01*
X142477814Y-81955277D01*
X142490140Y-81981337D01*
X142499851Y-82008479D01*
X142506856Y-82036442D01*
X142511086Y-82064957D01*
X142512500Y-82093750D01*
X142512500Y-83106250D01*
X142511086Y-83135043D01*
X142506856Y-83163558D01*
X142499851Y-83191521D01*
X142490140Y-83218663D01*
X142477814Y-83244723D01*
X142462994Y-83269449D01*
X142445822Y-83292603D01*
X142426463Y-83313963D01*
X142405103Y-83333322D01*
X142381949Y-83350494D01*
X142357223Y-83365314D01*
X142331163Y-83377640D01*
X142304021Y-83387351D01*
X142276058Y-83394356D01*
X142247543Y-83398586D01*
X142218750Y-83400000D01*
X141631250Y-83400000D01*
X141602457Y-83398586D01*
X141573942Y-83394356D01*
X141545979Y-83387351D01*
X141518837Y-83377640D01*
X141492777Y-83365314D01*
X141468051Y-83350494D01*
X141444897Y-83333322D01*
X141423537Y-83313963D01*
X141404178Y-83292603D01*
X141387006Y-83269449D01*
X141372186Y-83244723D01*
X141359860Y-83218663D01*
X141350149Y-83191521D01*
X141343144Y-83163558D01*
X141338914Y-83135043D01*
X141337500Y-83106250D01*
X141337500Y-82093750D01*
X141338914Y-82064957D01*
X141343144Y-82036442D01*
X141350149Y-82008479D01*
X141359860Y-81981337D01*
X141372186Y-81955277D01*
X141387006Y-81930551D01*
X141404178Y-81907397D01*
X141423537Y-81886037D01*
X141444897Y-81866678D01*
X141468051Y-81849506D01*
X141492777Y-81834686D01*
X141518837Y-81822360D01*
X141545979Y-81812649D01*
X141573942Y-81805644D01*
X141602457Y-81801414D01*
X141631250Y-81800000D01*
X142218750Y-81800000D01*
X142247543Y-81801414D01*
X142247543Y-81801414D01*
G37*
D21*
X141925000Y-82600000D03*
D18*
G36*
X144122543Y-81801414D02*
X144151058Y-81805644D01*
X144179021Y-81812649D01*
X144206163Y-81822360D01*
X144232223Y-81834686D01*
X144256949Y-81849506D01*
X144280103Y-81866678D01*
X144301463Y-81886037D01*
X144320822Y-81907397D01*
X144337994Y-81930551D01*
X144352814Y-81955277D01*
X144365140Y-81981337D01*
X144374851Y-82008479D01*
X144381856Y-82036442D01*
X144386086Y-82064957D01*
X144387500Y-82093750D01*
X144387500Y-83106250D01*
X144386086Y-83135043D01*
X144381856Y-83163558D01*
X144374851Y-83191521D01*
X144365140Y-83218663D01*
X144352814Y-83244723D01*
X144337994Y-83269449D01*
X144320822Y-83292603D01*
X144301463Y-83313963D01*
X144280103Y-83333322D01*
X144256949Y-83350494D01*
X144232223Y-83365314D01*
X144206163Y-83377640D01*
X144179021Y-83387351D01*
X144151058Y-83394356D01*
X144122543Y-83398586D01*
X144093750Y-83400000D01*
X143506250Y-83400000D01*
X143477457Y-83398586D01*
X143448942Y-83394356D01*
X143420979Y-83387351D01*
X143393837Y-83377640D01*
X143367777Y-83365314D01*
X143343051Y-83350494D01*
X143319897Y-83333322D01*
X143298537Y-83313963D01*
X143279178Y-83292603D01*
X143262006Y-83269449D01*
X143247186Y-83244723D01*
X143234860Y-83218663D01*
X143225149Y-83191521D01*
X143218144Y-83163558D01*
X143213914Y-83135043D01*
X143212500Y-83106250D01*
X143212500Y-82093750D01*
X143213914Y-82064957D01*
X143218144Y-82036442D01*
X143225149Y-82008479D01*
X143234860Y-81981337D01*
X143247186Y-81955277D01*
X143262006Y-81930551D01*
X143279178Y-81907397D01*
X143298537Y-81886037D01*
X143319897Y-81866678D01*
X143343051Y-81849506D01*
X143367777Y-81834686D01*
X143393837Y-81822360D01*
X143420979Y-81812649D01*
X143448942Y-81805644D01*
X143477457Y-81801414D01*
X143506250Y-81800000D01*
X144093750Y-81800000D01*
X144122543Y-81801414D01*
X144122543Y-81801414D01*
G37*
D21*
X143800000Y-82600000D03*
G04 #@! TD*
D18*
G04 #@! TO.C,R15*
G36*
X121310043Y-87451414D02*
X121338558Y-87455644D01*
X121366521Y-87462649D01*
X121393663Y-87472360D01*
X121419723Y-87484686D01*
X121444449Y-87499506D01*
X121467603Y-87516678D01*
X121488963Y-87536037D01*
X121508322Y-87557397D01*
X121525494Y-87580551D01*
X121540314Y-87605277D01*
X121552640Y-87631337D01*
X121562351Y-87658479D01*
X121569356Y-87686442D01*
X121573586Y-87714957D01*
X121575000Y-87743750D01*
X121575000Y-88756250D01*
X121573586Y-88785043D01*
X121569356Y-88813558D01*
X121562351Y-88841521D01*
X121552640Y-88868663D01*
X121540314Y-88894723D01*
X121525494Y-88919449D01*
X121508322Y-88942603D01*
X121488963Y-88963963D01*
X121467603Y-88983322D01*
X121444449Y-89000494D01*
X121419723Y-89015314D01*
X121393663Y-89027640D01*
X121366521Y-89037351D01*
X121338558Y-89044356D01*
X121310043Y-89048586D01*
X121281250Y-89050000D01*
X120693750Y-89050000D01*
X120664957Y-89048586D01*
X120636442Y-89044356D01*
X120608479Y-89037351D01*
X120581337Y-89027640D01*
X120555277Y-89015314D01*
X120530551Y-89000494D01*
X120507397Y-88983322D01*
X120486037Y-88963963D01*
X120466678Y-88942603D01*
X120449506Y-88919449D01*
X120434686Y-88894723D01*
X120422360Y-88868663D01*
X120412649Y-88841521D01*
X120405644Y-88813558D01*
X120401414Y-88785043D01*
X120400000Y-88756250D01*
X120400000Y-87743750D01*
X120401414Y-87714957D01*
X120405644Y-87686442D01*
X120412649Y-87658479D01*
X120422360Y-87631337D01*
X120434686Y-87605277D01*
X120449506Y-87580551D01*
X120466678Y-87557397D01*
X120486037Y-87536037D01*
X120507397Y-87516678D01*
X120530551Y-87499506D01*
X120555277Y-87484686D01*
X120581337Y-87472360D01*
X120608479Y-87462649D01*
X120636442Y-87455644D01*
X120664957Y-87451414D01*
X120693750Y-87450000D01*
X121281250Y-87450000D01*
X121310043Y-87451414D01*
X121310043Y-87451414D01*
G37*
D21*
X120987500Y-88250000D03*
D18*
G36*
X119435043Y-87451414D02*
X119463558Y-87455644D01*
X119491521Y-87462649D01*
X119518663Y-87472360D01*
X119544723Y-87484686D01*
X119569449Y-87499506D01*
X119592603Y-87516678D01*
X119613963Y-87536037D01*
X119633322Y-87557397D01*
X119650494Y-87580551D01*
X119665314Y-87605277D01*
X119677640Y-87631337D01*
X119687351Y-87658479D01*
X119694356Y-87686442D01*
X119698586Y-87714957D01*
X119700000Y-87743750D01*
X119700000Y-88756250D01*
X119698586Y-88785043D01*
X119694356Y-88813558D01*
X119687351Y-88841521D01*
X119677640Y-88868663D01*
X119665314Y-88894723D01*
X119650494Y-88919449D01*
X119633322Y-88942603D01*
X119613963Y-88963963D01*
X119592603Y-88983322D01*
X119569449Y-89000494D01*
X119544723Y-89015314D01*
X119518663Y-89027640D01*
X119491521Y-89037351D01*
X119463558Y-89044356D01*
X119435043Y-89048586D01*
X119406250Y-89050000D01*
X118818750Y-89050000D01*
X118789957Y-89048586D01*
X118761442Y-89044356D01*
X118733479Y-89037351D01*
X118706337Y-89027640D01*
X118680277Y-89015314D01*
X118655551Y-89000494D01*
X118632397Y-88983322D01*
X118611037Y-88963963D01*
X118591678Y-88942603D01*
X118574506Y-88919449D01*
X118559686Y-88894723D01*
X118547360Y-88868663D01*
X118537649Y-88841521D01*
X118530644Y-88813558D01*
X118526414Y-88785043D01*
X118525000Y-88756250D01*
X118525000Y-87743750D01*
X118526414Y-87714957D01*
X118530644Y-87686442D01*
X118537649Y-87658479D01*
X118547360Y-87631337D01*
X118559686Y-87605277D01*
X118574506Y-87580551D01*
X118591678Y-87557397D01*
X118611037Y-87536037D01*
X118632397Y-87516678D01*
X118655551Y-87499506D01*
X118680277Y-87484686D01*
X118706337Y-87472360D01*
X118733479Y-87462649D01*
X118761442Y-87455644D01*
X118789957Y-87451414D01*
X118818750Y-87450000D01*
X119406250Y-87450000D01*
X119435043Y-87451414D01*
X119435043Y-87451414D01*
G37*
D21*
X119112500Y-88250000D03*
G04 #@! TD*
D18*
G04 #@! TO.C,R16*
G36*
X153922543Y-84001414D02*
X153951058Y-84005644D01*
X153979021Y-84012649D01*
X154006163Y-84022360D01*
X154032223Y-84034686D01*
X154056949Y-84049506D01*
X154080103Y-84066678D01*
X154101463Y-84086037D01*
X154120822Y-84107397D01*
X154137994Y-84130551D01*
X154152814Y-84155277D01*
X154165140Y-84181337D01*
X154174851Y-84208479D01*
X154181856Y-84236442D01*
X154186086Y-84264957D01*
X154187500Y-84293750D01*
X154187500Y-85306250D01*
X154186086Y-85335043D01*
X154181856Y-85363558D01*
X154174851Y-85391521D01*
X154165140Y-85418663D01*
X154152814Y-85444723D01*
X154137994Y-85469449D01*
X154120822Y-85492603D01*
X154101463Y-85513963D01*
X154080103Y-85533322D01*
X154056949Y-85550494D01*
X154032223Y-85565314D01*
X154006163Y-85577640D01*
X153979021Y-85587351D01*
X153951058Y-85594356D01*
X153922543Y-85598586D01*
X153893750Y-85600000D01*
X153306250Y-85600000D01*
X153277457Y-85598586D01*
X153248942Y-85594356D01*
X153220979Y-85587351D01*
X153193837Y-85577640D01*
X153167777Y-85565314D01*
X153143051Y-85550494D01*
X153119897Y-85533322D01*
X153098537Y-85513963D01*
X153079178Y-85492603D01*
X153062006Y-85469449D01*
X153047186Y-85444723D01*
X153034860Y-85418663D01*
X153025149Y-85391521D01*
X153018144Y-85363558D01*
X153013914Y-85335043D01*
X153012500Y-85306250D01*
X153012500Y-84293750D01*
X153013914Y-84264957D01*
X153018144Y-84236442D01*
X153025149Y-84208479D01*
X153034860Y-84181337D01*
X153047186Y-84155277D01*
X153062006Y-84130551D01*
X153079178Y-84107397D01*
X153098537Y-84086037D01*
X153119897Y-84066678D01*
X153143051Y-84049506D01*
X153167777Y-84034686D01*
X153193837Y-84022360D01*
X153220979Y-84012649D01*
X153248942Y-84005644D01*
X153277457Y-84001414D01*
X153306250Y-84000000D01*
X153893750Y-84000000D01*
X153922543Y-84001414D01*
X153922543Y-84001414D01*
G37*
D21*
X153600000Y-84800000D03*
D18*
G36*
X155797543Y-84001414D02*
X155826058Y-84005644D01*
X155854021Y-84012649D01*
X155881163Y-84022360D01*
X155907223Y-84034686D01*
X155931949Y-84049506D01*
X155955103Y-84066678D01*
X155976463Y-84086037D01*
X155995822Y-84107397D01*
X156012994Y-84130551D01*
X156027814Y-84155277D01*
X156040140Y-84181337D01*
X156049851Y-84208479D01*
X156056856Y-84236442D01*
X156061086Y-84264957D01*
X156062500Y-84293750D01*
X156062500Y-85306250D01*
X156061086Y-85335043D01*
X156056856Y-85363558D01*
X156049851Y-85391521D01*
X156040140Y-85418663D01*
X156027814Y-85444723D01*
X156012994Y-85469449D01*
X155995822Y-85492603D01*
X155976463Y-85513963D01*
X155955103Y-85533322D01*
X155931949Y-85550494D01*
X155907223Y-85565314D01*
X155881163Y-85577640D01*
X155854021Y-85587351D01*
X155826058Y-85594356D01*
X155797543Y-85598586D01*
X155768750Y-85600000D01*
X155181250Y-85600000D01*
X155152457Y-85598586D01*
X155123942Y-85594356D01*
X155095979Y-85587351D01*
X155068837Y-85577640D01*
X155042777Y-85565314D01*
X155018051Y-85550494D01*
X154994897Y-85533322D01*
X154973537Y-85513963D01*
X154954178Y-85492603D01*
X154937006Y-85469449D01*
X154922186Y-85444723D01*
X154909860Y-85418663D01*
X154900149Y-85391521D01*
X154893144Y-85363558D01*
X154888914Y-85335043D01*
X154887500Y-85306250D01*
X154887500Y-84293750D01*
X154888914Y-84264957D01*
X154893144Y-84236442D01*
X154900149Y-84208479D01*
X154909860Y-84181337D01*
X154922186Y-84155277D01*
X154937006Y-84130551D01*
X154954178Y-84107397D01*
X154973537Y-84086037D01*
X154994897Y-84066678D01*
X155018051Y-84049506D01*
X155042777Y-84034686D01*
X155068837Y-84022360D01*
X155095979Y-84012649D01*
X155123942Y-84005644D01*
X155152457Y-84001414D01*
X155181250Y-84000000D01*
X155768750Y-84000000D01*
X155797543Y-84001414D01*
X155797543Y-84001414D01*
G37*
D21*
X155475000Y-84800000D03*
G04 #@! TD*
D18*
G04 #@! TO.C,R17*
G36*
X146435043Y-82113914D02*
X146463558Y-82118144D01*
X146491521Y-82125149D01*
X146518663Y-82134860D01*
X146544723Y-82147186D01*
X146569449Y-82162006D01*
X146592603Y-82179178D01*
X146613963Y-82198537D01*
X146633322Y-82219897D01*
X146650494Y-82243051D01*
X146665314Y-82267777D01*
X146677640Y-82293837D01*
X146687351Y-82320979D01*
X146694356Y-82348942D01*
X146698586Y-82377457D01*
X146700000Y-82406250D01*
X146700000Y-82993750D01*
X146698586Y-83022543D01*
X146694356Y-83051058D01*
X146687351Y-83079021D01*
X146677640Y-83106163D01*
X146665314Y-83132223D01*
X146650494Y-83156949D01*
X146633322Y-83180103D01*
X146613963Y-83201463D01*
X146592603Y-83220822D01*
X146569449Y-83237994D01*
X146544723Y-83252814D01*
X146518663Y-83265140D01*
X146491521Y-83274851D01*
X146463558Y-83281856D01*
X146435043Y-83286086D01*
X146406250Y-83287500D01*
X145393750Y-83287500D01*
X145364957Y-83286086D01*
X145336442Y-83281856D01*
X145308479Y-83274851D01*
X145281337Y-83265140D01*
X145255277Y-83252814D01*
X145230551Y-83237994D01*
X145207397Y-83220822D01*
X145186037Y-83201463D01*
X145166678Y-83180103D01*
X145149506Y-83156949D01*
X145134686Y-83132223D01*
X145122360Y-83106163D01*
X145112649Y-83079021D01*
X145105644Y-83051058D01*
X145101414Y-83022543D01*
X145100000Y-82993750D01*
X145100000Y-82406250D01*
X145101414Y-82377457D01*
X145105644Y-82348942D01*
X145112649Y-82320979D01*
X145122360Y-82293837D01*
X145134686Y-82267777D01*
X145149506Y-82243051D01*
X145166678Y-82219897D01*
X145186037Y-82198537D01*
X145207397Y-82179178D01*
X145230551Y-82162006D01*
X145255277Y-82147186D01*
X145281337Y-82134860D01*
X145308479Y-82125149D01*
X145336442Y-82118144D01*
X145364957Y-82113914D01*
X145393750Y-82112500D01*
X146406250Y-82112500D01*
X146435043Y-82113914D01*
X146435043Y-82113914D01*
G37*
D21*
X145900000Y-82700000D03*
D18*
G36*
X146435043Y-80238914D02*
X146463558Y-80243144D01*
X146491521Y-80250149D01*
X146518663Y-80259860D01*
X146544723Y-80272186D01*
X146569449Y-80287006D01*
X146592603Y-80304178D01*
X146613963Y-80323537D01*
X146633322Y-80344897D01*
X146650494Y-80368051D01*
X146665314Y-80392777D01*
X146677640Y-80418837D01*
X146687351Y-80445979D01*
X146694356Y-80473942D01*
X146698586Y-80502457D01*
X146700000Y-80531250D01*
X146700000Y-81118750D01*
X146698586Y-81147543D01*
X146694356Y-81176058D01*
X146687351Y-81204021D01*
X146677640Y-81231163D01*
X146665314Y-81257223D01*
X146650494Y-81281949D01*
X146633322Y-81305103D01*
X146613963Y-81326463D01*
X146592603Y-81345822D01*
X146569449Y-81362994D01*
X146544723Y-81377814D01*
X146518663Y-81390140D01*
X146491521Y-81399851D01*
X146463558Y-81406856D01*
X146435043Y-81411086D01*
X146406250Y-81412500D01*
X145393750Y-81412500D01*
X145364957Y-81411086D01*
X145336442Y-81406856D01*
X145308479Y-81399851D01*
X145281337Y-81390140D01*
X145255277Y-81377814D01*
X145230551Y-81362994D01*
X145207397Y-81345822D01*
X145186037Y-81326463D01*
X145166678Y-81305103D01*
X145149506Y-81281949D01*
X145134686Y-81257223D01*
X145122360Y-81231163D01*
X145112649Y-81204021D01*
X145105644Y-81176058D01*
X145101414Y-81147543D01*
X145100000Y-81118750D01*
X145100000Y-80531250D01*
X145101414Y-80502457D01*
X145105644Y-80473942D01*
X145112649Y-80445979D01*
X145122360Y-80418837D01*
X145134686Y-80392777D01*
X145149506Y-80368051D01*
X145166678Y-80344897D01*
X145186037Y-80323537D01*
X145207397Y-80304178D01*
X145230551Y-80287006D01*
X145255277Y-80272186D01*
X145281337Y-80259860D01*
X145308479Y-80250149D01*
X145336442Y-80243144D01*
X145364957Y-80238914D01*
X145393750Y-80237500D01*
X146406250Y-80237500D01*
X146435043Y-80238914D01*
X146435043Y-80238914D01*
G37*
D21*
X145900000Y-80825000D03*
G04 #@! TD*
D18*
G04 #@! TO.C,R22*
G36*
X157635043Y-95988914D02*
X157663558Y-95993144D01*
X157691521Y-96000149D01*
X157718663Y-96009860D01*
X157744723Y-96022186D01*
X157769449Y-96037006D01*
X157792603Y-96054178D01*
X157813963Y-96073537D01*
X157833322Y-96094897D01*
X157850494Y-96118051D01*
X157865314Y-96142777D01*
X157877640Y-96168837D01*
X157887351Y-96195979D01*
X157894356Y-96223942D01*
X157898586Y-96252457D01*
X157900000Y-96281250D01*
X157900000Y-96868750D01*
X157898586Y-96897543D01*
X157894356Y-96926058D01*
X157887351Y-96954021D01*
X157877640Y-96981163D01*
X157865314Y-97007223D01*
X157850494Y-97031949D01*
X157833322Y-97055103D01*
X157813963Y-97076463D01*
X157792603Y-97095822D01*
X157769449Y-97112994D01*
X157744723Y-97127814D01*
X157718663Y-97140140D01*
X157691521Y-97149851D01*
X157663558Y-97156856D01*
X157635043Y-97161086D01*
X157606250Y-97162500D01*
X156593750Y-97162500D01*
X156564957Y-97161086D01*
X156536442Y-97156856D01*
X156508479Y-97149851D01*
X156481337Y-97140140D01*
X156455277Y-97127814D01*
X156430551Y-97112994D01*
X156407397Y-97095822D01*
X156386037Y-97076463D01*
X156366678Y-97055103D01*
X156349506Y-97031949D01*
X156334686Y-97007223D01*
X156322360Y-96981163D01*
X156312649Y-96954021D01*
X156305644Y-96926058D01*
X156301414Y-96897543D01*
X156300000Y-96868750D01*
X156300000Y-96281250D01*
X156301414Y-96252457D01*
X156305644Y-96223942D01*
X156312649Y-96195979D01*
X156322360Y-96168837D01*
X156334686Y-96142777D01*
X156349506Y-96118051D01*
X156366678Y-96094897D01*
X156386037Y-96073537D01*
X156407397Y-96054178D01*
X156430551Y-96037006D01*
X156455277Y-96022186D01*
X156481337Y-96009860D01*
X156508479Y-96000149D01*
X156536442Y-95993144D01*
X156564957Y-95988914D01*
X156593750Y-95987500D01*
X157606250Y-95987500D01*
X157635043Y-95988914D01*
X157635043Y-95988914D01*
G37*
D21*
X157100000Y-96575000D03*
D18*
G36*
X157635043Y-94113914D02*
X157663558Y-94118144D01*
X157691521Y-94125149D01*
X157718663Y-94134860D01*
X157744723Y-94147186D01*
X157769449Y-94162006D01*
X157792603Y-94179178D01*
X157813963Y-94198537D01*
X157833322Y-94219897D01*
X157850494Y-94243051D01*
X157865314Y-94267777D01*
X157877640Y-94293837D01*
X157887351Y-94320979D01*
X157894356Y-94348942D01*
X157898586Y-94377457D01*
X157900000Y-94406250D01*
X157900000Y-94993750D01*
X157898586Y-95022543D01*
X157894356Y-95051058D01*
X157887351Y-95079021D01*
X157877640Y-95106163D01*
X157865314Y-95132223D01*
X157850494Y-95156949D01*
X157833322Y-95180103D01*
X157813963Y-95201463D01*
X157792603Y-95220822D01*
X157769449Y-95237994D01*
X157744723Y-95252814D01*
X157718663Y-95265140D01*
X157691521Y-95274851D01*
X157663558Y-95281856D01*
X157635043Y-95286086D01*
X157606250Y-95287500D01*
X156593750Y-95287500D01*
X156564957Y-95286086D01*
X156536442Y-95281856D01*
X156508479Y-95274851D01*
X156481337Y-95265140D01*
X156455277Y-95252814D01*
X156430551Y-95237994D01*
X156407397Y-95220822D01*
X156386037Y-95201463D01*
X156366678Y-95180103D01*
X156349506Y-95156949D01*
X156334686Y-95132223D01*
X156322360Y-95106163D01*
X156312649Y-95079021D01*
X156305644Y-95051058D01*
X156301414Y-95022543D01*
X156300000Y-94993750D01*
X156300000Y-94406250D01*
X156301414Y-94377457D01*
X156305644Y-94348942D01*
X156312649Y-94320979D01*
X156322360Y-94293837D01*
X156334686Y-94267777D01*
X156349506Y-94243051D01*
X156366678Y-94219897D01*
X156386037Y-94198537D01*
X156407397Y-94179178D01*
X156430551Y-94162006D01*
X156455277Y-94147186D01*
X156481337Y-94134860D01*
X156508479Y-94125149D01*
X156536442Y-94118144D01*
X156564957Y-94113914D01*
X156593750Y-94112500D01*
X157606250Y-94112500D01*
X157635043Y-94113914D01*
X157635043Y-94113914D01*
G37*
D21*
X157100000Y-94700000D03*
G04 #@! TD*
D18*
G04 #@! TO.C,R21*
G36*
X159735043Y-99388914D02*
X159763558Y-99393144D01*
X159791521Y-99400149D01*
X159818663Y-99409860D01*
X159844723Y-99422186D01*
X159869449Y-99437006D01*
X159892603Y-99454178D01*
X159913963Y-99473537D01*
X159933322Y-99494897D01*
X159950494Y-99518051D01*
X159965314Y-99542777D01*
X159977640Y-99568837D01*
X159987351Y-99595979D01*
X159994356Y-99623942D01*
X159998586Y-99652457D01*
X160000000Y-99681250D01*
X160000000Y-100268750D01*
X159998586Y-100297543D01*
X159994356Y-100326058D01*
X159987351Y-100354021D01*
X159977640Y-100381163D01*
X159965314Y-100407223D01*
X159950494Y-100431949D01*
X159933322Y-100455103D01*
X159913963Y-100476463D01*
X159892603Y-100495822D01*
X159869449Y-100512994D01*
X159844723Y-100527814D01*
X159818663Y-100540140D01*
X159791521Y-100549851D01*
X159763558Y-100556856D01*
X159735043Y-100561086D01*
X159706250Y-100562500D01*
X158693750Y-100562500D01*
X158664957Y-100561086D01*
X158636442Y-100556856D01*
X158608479Y-100549851D01*
X158581337Y-100540140D01*
X158555277Y-100527814D01*
X158530551Y-100512994D01*
X158507397Y-100495822D01*
X158486037Y-100476463D01*
X158466678Y-100455103D01*
X158449506Y-100431949D01*
X158434686Y-100407223D01*
X158422360Y-100381163D01*
X158412649Y-100354021D01*
X158405644Y-100326058D01*
X158401414Y-100297543D01*
X158400000Y-100268750D01*
X158400000Y-99681250D01*
X158401414Y-99652457D01*
X158405644Y-99623942D01*
X158412649Y-99595979D01*
X158422360Y-99568837D01*
X158434686Y-99542777D01*
X158449506Y-99518051D01*
X158466678Y-99494897D01*
X158486037Y-99473537D01*
X158507397Y-99454178D01*
X158530551Y-99437006D01*
X158555277Y-99422186D01*
X158581337Y-99409860D01*
X158608479Y-99400149D01*
X158636442Y-99393144D01*
X158664957Y-99388914D01*
X158693750Y-99387500D01*
X159706250Y-99387500D01*
X159735043Y-99388914D01*
X159735043Y-99388914D01*
G37*
D21*
X159200000Y-99975000D03*
D18*
G36*
X159735043Y-97513914D02*
X159763558Y-97518144D01*
X159791521Y-97525149D01*
X159818663Y-97534860D01*
X159844723Y-97547186D01*
X159869449Y-97562006D01*
X159892603Y-97579178D01*
X159913963Y-97598537D01*
X159933322Y-97619897D01*
X159950494Y-97643051D01*
X159965314Y-97667777D01*
X159977640Y-97693837D01*
X159987351Y-97720979D01*
X159994356Y-97748942D01*
X159998586Y-97777457D01*
X160000000Y-97806250D01*
X160000000Y-98393750D01*
X159998586Y-98422543D01*
X159994356Y-98451058D01*
X159987351Y-98479021D01*
X159977640Y-98506163D01*
X159965314Y-98532223D01*
X159950494Y-98556949D01*
X159933322Y-98580103D01*
X159913963Y-98601463D01*
X159892603Y-98620822D01*
X159869449Y-98637994D01*
X159844723Y-98652814D01*
X159818663Y-98665140D01*
X159791521Y-98674851D01*
X159763558Y-98681856D01*
X159735043Y-98686086D01*
X159706250Y-98687500D01*
X158693750Y-98687500D01*
X158664957Y-98686086D01*
X158636442Y-98681856D01*
X158608479Y-98674851D01*
X158581337Y-98665140D01*
X158555277Y-98652814D01*
X158530551Y-98637994D01*
X158507397Y-98620822D01*
X158486037Y-98601463D01*
X158466678Y-98580103D01*
X158449506Y-98556949D01*
X158434686Y-98532223D01*
X158422360Y-98506163D01*
X158412649Y-98479021D01*
X158405644Y-98451058D01*
X158401414Y-98422543D01*
X158400000Y-98393750D01*
X158400000Y-97806250D01*
X158401414Y-97777457D01*
X158405644Y-97748942D01*
X158412649Y-97720979D01*
X158422360Y-97693837D01*
X158434686Y-97667777D01*
X158449506Y-97643051D01*
X158466678Y-97619897D01*
X158486037Y-97598537D01*
X158507397Y-97579178D01*
X158530551Y-97562006D01*
X158555277Y-97547186D01*
X158581337Y-97534860D01*
X158608479Y-97525149D01*
X158636442Y-97518144D01*
X158664957Y-97513914D01*
X158693750Y-97512500D01*
X159706250Y-97512500D01*
X159735043Y-97513914D01*
X159735043Y-97513914D01*
G37*
D21*
X159200000Y-98100000D03*
G04 #@! TD*
D18*
G04 #@! TO.C,R18*
G36*
X159660043Y-84001414D02*
X159688558Y-84005644D01*
X159716521Y-84012649D01*
X159743663Y-84022360D01*
X159769723Y-84034686D01*
X159794449Y-84049506D01*
X159817603Y-84066678D01*
X159838963Y-84086037D01*
X159858322Y-84107397D01*
X159875494Y-84130551D01*
X159890314Y-84155277D01*
X159902640Y-84181337D01*
X159912351Y-84208479D01*
X159919356Y-84236442D01*
X159923586Y-84264957D01*
X159925000Y-84293750D01*
X159925000Y-85306250D01*
X159923586Y-85335043D01*
X159919356Y-85363558D01*
X159912351Y-85391521D01*
X159902640Y-85418663D01*
X159890314Y-85444723D01*
X159875494Y-85469449D01*
X159858322Y-85492603D01*
X159838963Y-85513963D01*
X159817603Y-85533322D01*
X159794449Y-85550494D01*
X159769723Y-85565314D01*
X159743663Y-85577640D01*
X159716521Y-85587351D01*
X159688558Y-85594356D01*
X159660043Y-85598586D01*
X159631250Y-85600000D01*
X159043750Y-85600000D01*
X159014957Y-85598586D01*
X158986442Y-85594356D01*
X158958479Y-85587351D01*
X158931337Y-85577640D01*
X158905277Y-85565314D01*
X158880551Y-85550494D01*
X158857397Y-85533322D01*
X158836037Y-85513963D01*
X158816678Y-85492603D01*
X158799506Y-85469449D01*
X158784686Y-85444723D01*
X158772360Y-85418663D01*
X158762649Y-85391521D01*
X158755644Y-85363558D01*
X158751414Y-85335043D01*
X158750000Y-85306250D01*
X158750000Y-84293750D01*
X158751414Y-84264957D01*
X158755644Y-84236442D01*
X158762649Y-84208479D01*
X158772360Y-84181337D01*
X158784686Y-84155277D01*
X158799506Y-84130551D01*
X158816678Y-84107397D01*
X158836037Y-84086037D01*
X158857397Y-84066678D01*
X158880551Y-84049506D01*
X158905277Y-84034686D01*
X158931337Y-84022360D01*
X158958479Y-84012649D01*
X158986442Y-84005644D01*
X159014957Y-84001414D01*
X159043750Y-84000000D01*
X159631250Y-84000000D01*
X159660043Y-84001414D01*
X159660043Y-84001414D01*
G37*
D21*
X159337500Y-84800000D03*
D18*
G36*
X157785043Y-84001414D02*
X157813558Y-84005644D01*
X157841521Y-84012649D01*
X157868663Y-84022360D01*
X157894723Y-84034686D01*
X157919449Y-84049506D01*
X157942603Y-84066678D01*
X157963963Y-84086037D01*
X157983322Y-84107397D01*
X158000494Y-84130551D01*
X158015314Y-84155277D01*
X158027640Y-84181337D01*
X158037351Y-84208479D01*
X158044356Y-84236442D01*
X158048586Y-84264957D01*
X158050000Y-84293750D01*
X158050000Y-85306250D01*
X158048586Y-85335043D01*
X158044356Y-85363558D01*
X158037351Y-85391521D01*
X158027640Y-85418663D01*
X158015314Y-85444723D01*
X158000494Y-85469449D01*
X157983322Y-85492603D01*
X157963963Y-85513963D01*
X157942603Y-85533322D01*
X157919449Y-85550494D01*
X157894723Y-85565314D01*
X157868663Y-85577640D01*
X157841521Y-85587351D01*
X157813558Y-85594356D01*
X157785043Y-85598586D01*
X157756250Y-85600000D01*
X157168750Y-85600000D01*
X157139957Y-85598586D01*
X157111442Y-85594356D01*
X157083479Y-85587351D01*
X157056337Y-85577640D01*
X157030277Y-85565314D01*
X157005551Y-85550494D01*
X156982397Y-85533322D01*
X156961037Y-85513963D01*
X156941678Y-85492603D01*
X156924506Y-85469449D01*
X156909686Y-85444723D01*
X156897360Y-85418663D01*
X156887649Y-85391521D01*
X156880644Y-85363558D01*
X156876414Y-85335043D01*
X156875000Y-85306250D01*
X156875000Y-84293750D01*
X156876414Y-84264957D01*
X156880644Y-84236442D01*
X156887649Y-84208479D01*
X156897360Y-84181337D01*
X156909686Y-84155277D01*
X156924506Y-84130551D01*
X156941678Y-84107397D01*
X156961037Y-84086037D01*
X156982397Y-84066678D01*
X157005551Y-84049506D01*
X157030277Y-84034686D01*
X157056337Y-84022360D01*
X157083479Y-84012649D01*
X157111442Y-84005644D01*
X157139957Y-84001414D01*
X157168750Y-84000000D01*
X157756250Y-84000000D01*
X157785043Y-84001414D01*
X157785043Y-84001414D01*
G37*
D21*
X157462500Y-84800000D03*
G04 #@! TD*
D18*
G04 #@! TO.C,R19*
G36*
X155835043Y-80238914D02*
X155863558Y-80243144D01*
X155891521Y-80250149D01*
X155918663Y-80259860D01*
X155944723Y-80272186D01*
X155969449Y-80287006D01*
X155992603Y-80304178D01*
X156013963Y-80323537D01*
X156033322Y-80344897D01*
X156050494Y-80368051D01*
X156065314Y-80392777D01*
X156077640Y-80418837D01*
X156087351Y-80445979D01*
X156094356Y-80473942D01*
X156098586Y-80502457D01*
X156100000Y-80531250D01*
X156100000Y-81118750D01*
X156098586Y-81147543D01*
X156094356Y-81176058D01*
X156087351Y-81204021D01*
X156077640Y-81231163D01*
X156065314Y-81257223D01*
X156050494Y-81281949D01*
X156033322Y-81305103D01*
X156013963Y-81326463D01*
X155992603Y-81345822D01*
X155969449Y-81362994D01*
X155944723Y-81377814D01*
X155918663Y-81390140D01*
X155891521Y-81399851D01*
X155863558Y-81406856D01*
X155835043Y-81411086D01*
X155806250Y-81412500D01*
X154793750Y-81412500D01*
X154764957Y-81411086D01*
X154736442Y-81406856D01*
X154708479Y-81399851D01*
X154681337Y-81390140D01*
X154655277Y-81377814D01*
X154630551Y-81362994D01*
X154607397Y-81345822D01*
X154586037Y-81326463D01*
X154566678Y-81305103D01*
X154549506Y-81281949D01*
X154534686Y-81257223D01*
X154522360Y-81231163D01*
X154512649Y-81204021D01*
X154505644Y-81176058D01*
X154501414Y-81147543D01*
X154500000Y-81118750D01*
X154500000Y-80531250D01*
X154501414Y-80502457D01*
X154505644Y-80473942D01*
X154512649Y-80445979D01*
X154522360Y-80418837D01*
X154534686Y-80392777D01*
X154549506Y-80368051D01*
X154566678Y-80344897D01*
X154586037Y-80323537D01*
X154607397Y-80304178D01*
X154630551Y-80287006D01*
X154655277Y-80272186D01*
X154681337Y-80259860D01*
X154708479Y-80250149D01*
X154736442Y-80243144D01*
X154764957Y-80238914D01*
X154793750Y-80237500D01*
X155806250Y-80237500D01*
X155835043Y-80238914D01*
X155835043Y-80238914D01*
G37*
D21*
X155300000Y-80825000D03*
D18*
G36*
X155835043Y-82113914D02*
X155863558Y-82118144D01*
X155891521Y-82125149D01*
X155918663Y-82134860D01*
X155944723Y-82147186D01*
X155969449Y-82162006D01*
X155992603Y-82179178D01*
X156013963Y-82198537D01*
X156033322Y-82219897D01*
X156050494Y-82243051D01*
X156065314Y-82267777D01*
X156077640Y-82293837D01*
X156087351Y-82320979D01*
X156094356Y-82348942D01*
X156098586Y-82377457D01*
X156100000Y-82406250D01*
X156100000Y-82993750D01*
X156098586Y-83022543D01*
X156094356Y-83051058D01*
X156087351Y-83079021D01*
X156077640Y-83106163D01*
X156065314Y-83132223D01*
X156050494Y-83156949D01*
X156033322Y-83180103D01*
X156013963Y-83201463D01*
X155992603Y-83220822D01*
X155969449Y-83237994D01*
X155944723Y-83252814D01*
X155918663Y-83265140D01*
X155891521Y-83274851D01*
X155863558Y-83281856D01*
X155835043Y-83286086D01*
X155806250Y-83287500D01*
X154793750Y-83287500D01*
X154764957Y-83286086D01*
X154736442Y-83281856D01*
X154708479Y-83274851D01*
X154681337Y-83265140D01*
X154655277Y-83252814D01*
X154630551Y-83237994D01*
X154607397Y-83220822D01*
X154586037Y-83201463D01*
X154566678Y-83180103D01*
X154549506Y-83156949D01*
X154534686Y-83132223D01*
X154522360Y-83106163D01*
X154512649Y-83079021D01*
X154505644Y-83051058D01*
X154501414Y-83022543D01*
X154500000Y-82993750D01*
X154500000Y-82406250D01*
X154501414Y-82377457D01*
X154505644Y-82348942D01*
X154512649Y-82320979D01*
X154522360Y-82293837D01*
X154534686Y-82267777D01*
X154549506Y-82243051D01*
X154566678Y-82219897D01*
X154586037Y-82198537D01*
X154607397Y-82179178D01*
X154630551Y-82162006D01*
X154655277Y-82147186D01*
X154681337Y-82134860D01*
X154708479Y-82125149D01*
X154736442Y-82118144D01*
X154764957Y-82113914D01*
X154793750Y-82112500D01*
X155806250Y-82112500D01*
X155835043Y-82113914D01*
X155835043Y-82113914D01*
G37*
D21*
X155300000Y-82700000D03*
G04 #@! TD*
D18*
G04 #@! TO.C,R20*
G36*
X161835043Y-99388914D02*
X161863558Y-99393144D01*
X161891521Y-99400149D01*
X161918663Y-99409860D01*
X161944723Y-99422186D01*
X161969449Y-99437006D01*
X161992603Y-99454178D01*
X162013963Y-99473537D01*
X162033322Y-99494897D01*
X162050494Y-99518051D01*
X162065314Y-99542777D01*
X162077640Y-99568837D01*
X162087351Y-99595979D01*
X162094356Y-99623942D01*
X162098586Y-99652457D01*
X162100000Y-99681250D01*
X162100000Y-100268750D01*
X162098586Y-100297543D01*
X162094356Y-100326058D01*
X162087351Y-100354021D01*
X162077640Y-100381163D01*
X162065314Y-100407223D01*
X162050494Y-100431949D01*
X162033322Y-100455103D01*
X162013963Y-100476463D01*
X161992603Y-100495822D01*
X161969449Y-100512994D01*
X161944723Y-100527814D01*
X161918663Y-100540140D01*
X161891521Y-100549851D01*
X161863558Y-100556856D01*
X161835043Y-100561086D01*
X161806250Y-100562500D01*
X160793750Y-100562500D01*
X160764957Y-100561086D01*
X160736442Y-100556856D01*
X160708479Y-100549851D01*
X160681337Y-100540140D01*
X160655277Y-100527814D01*
X160630551Y-100512994D01*
X160607397Y-100495822D01*
X160586037Y-100476463D01*
X160566678Y-100455103D01*
X160549506Y-100431949D01*
X160534686Y-100407223D01*
X160522360Y-100381163D01*
X160512649Y-100354021D01*
X160505644Y-100326058D01*
X160501414Y-100297543D01*
X160500000Y-100268750D01*
X160500000Y-99681250D01*
X160501414Y-99652457D01*
X160505644Y-99623942D01*
X160512649Y-99595979D01*
X160522360Y-99568837D01*
X160534686Y-99542777D01*
X160549506Y-99518051D01*
X160566678Y-99494897D01*
X160586037Y-99473537D01*
X160607397Y-99454178D01*
X160630551Y-99437006D01*
X160655277Y-99422186D01*
X160681337Y-99409860D01*
X160708479Y-99400149D01*
X160736442Y-99393144D01*
X160764957Y-99388914D01*
X160793750Y-99387500D01*
X161806250Y-99387500D01*
X161835043Y-99388914D01*
X161835043Y-99388914D01*
G37*
D21*
X161300000Y-99975000D03*
D18*
G36*
X161835043Y-97513914D02*
X161863558Y-97518144D01*
X161891521Y-97525149D01*
X161918663Y-97534860D01*
X161944723Y-97547186D01*
X161969449Y-97562006D01*
X161992603Y-97579178D01*
X162013963Y-97598537D01*
X162033322Y-97619897D01*
X162050494Y-97643051D01*
X162065314Y-97667777D01*
X162077640Y-97693837D01*
X162087351Y-97720979D01*
X162094356Y-97748942D01*
X162098586Y-97777457D01*
X162100000Y-97806250D01*
X162100000Y-98393750D01*
X162098586Y-98422543D01*
X162094356Y-98451058D01*
X162087351Y-98479021D01*
X162077640Y-98506163D01*
X162065314Y-98532223D01*
X162050494Y-98556949D01*
X162033322Y-98580103D01*
X162013963Y-98601463D01*
X161992603Y-98620822D01*
X161969449Y-98637994D01*
X161944723Y-98652814D01*
X161918663Y-98665140D01*
X161891521Y-98674851D01*
X161863558Y-98681856D01*
X161835043Y-98686086D01*
X161806250Y-98687500D01*
X160793750Y-98687500D01*
X160764957Y-98686086D01*
X160736442Y-98681856D01*
X160708479Y-98674851D01*
X160681337Y-98665140D01*
X160655277Y-98652814D01*
X160630551Y-98637994D01*
X160607397Y-98620822D01*
X160586037Y-98601463D01*
X160566678Y-98580103D01*
X160549506Y-98556949D01*
X160534686Y-98532223D01*
X160522360Y-98506163D01*
X160512649Y-98479021D01*
X160505644Y-98451058D01*
X160501414Y-98422543D01*
X160500000Y-98393750D01*
X160500000Y-97806250D01*
X160501414Y-97777457D01*
X160505644Y-97748942D01*
X160512649Y-97720979D01*
X160522360Y-97693837D01*
X160534686Y-97667777D01*
X160549506Y-97643051D01*
X160566678Y-97619897D01*
X160586037Y-97598537D01*
X160607397Y-97579178D01*
X160630551Y-97562006D01*
X160655277Y-97547186D01*
X160681337Y-97534860D01*
X160708479Y-97525149D01*
X160736442Y-97518144D01*
X160764957Y-97513914D01*
X160793750Y-97512500D01*
X161806250Y-97512500D01*
X161835043Y-97513914D01*
X161835043Y-97513914D01*
G37*
D21*
X161300000Y-98100000D03*
G04 #@! TD*
D18*
G04 #@! TO.C,R10*
G36*
X164135043Y-79038914D02*
X164163558Y-79043144D01*
X164191521Y-79050149D01*
X164218663Y-79059860D01*
X164244723Y-79072186D01*
X164269449Y-79087006D01*
X164292603Y-79104178D01*
X164313963Y-79123537D01*
X164333322Y-79144897D01*
X164350494Y-79168051D01*
X164365314Y-79192777D01*
X164377640Y-79218837D01*
X164387351Y-79245979D01*
X164394356Y-79273942D01*
X164398586Y-79302457D01*
X164400000Y-79331250D01*
X164400000Y-79918750D01*
X164398586Y-79947543D01*
X164394356Y-79976058D01*
X164387351Y-80004021D01*
X164377640Y-80031163D01*
X164365314Y-80057223D01*
X164350494Y-80081949D01*
X164333322Y-80105103D01*
X164313963Y-80126463D01*
X164292603Y-80145822D01*
X164269449Y-80162994D01*
X164244723Y-80177814D01*
X164218663Y-80190140D01*
X164191521Y-80199851D01*
X164163558Y-80206856D01*
X164135043Y-80211086D01*
X164106250Y-80212500D01*
X163093750Y-80212500D01*
X163064957Y-80211086D01*
X163036442Y-80206856D01*
X163008479Y-80199851D01*
X162981337Y-80190140D01*
X162955277Y-80177814D01*
X162930551Y-80162994D01*
X162907397Y-80145822D01*
X162886037Y-80126463D01*
X162866678Y-80105103D01*
X162849506Y-80081949D01*
X162834686Y-80057223D01*
X162822360Y-80031163D01*
X162812649Y-80004021D01*
X162805644Y-79976058D01*
X162801414Y-79947543D01*
X162800000Y-79918750D01*
X162800000Y-79331250D01*
X162801414Y-79302457D01*
X162805644Y-79273942D01*
X162812649Y-79245979D01*
X162822360Y-79218837D01*
X162834686Y-79192777D01*
X162849506Y-79168051D01*
X162866678Y-79144897D01*
X162886037Y-79123537D01*
X162907397Y-79104178D01*
X162930551Y-79087006D01*
X162955277Y-79072186D01*
X162981337Y-79059860D01*
X163008479Y-79050149D01*
X163036442Y-79043144D01*
X163064957Y-79038914D01*
X163093750Y-79037500D01*
X164106250Y-79037500D01*
X164135043Y-79038914D01*
X164135043Y-79038914D01*
G37*
D21*
X163600000Y-79625000D03*
D18*
G36*
X164135043Y-80913914D02*
X164163558Y-80918144D01*
X164191521Y-80925149D01*
X164218663Y-80934860D01*
X164244723Y-80947186D01*
X164269449Y-80962006D01*
X164292603Y-80979178D01*
X164313963Y-80998537D01*
X164333322Y-81019897D01*
X164350494Y-81043051D01*
X164365314Y-81067777D01*
X164377640Y-81093837D01*
X164387351Y-81120979D01*
X164394356Y-81148942D01*
X164398586Y-81177457D01*
X164400000Y-81206250D01*
X164400000Y-81793750D01*
X164398586Y-81822543D01*
X164394356Y-81851058D01*
X164387351Y-81879021D01*
X164377640Y-81906163D01*
X164365314Y-81932223D01*
X164350494Y-81956949D01*
X164333322Y-81980103D01*
X164313963Y-82001463D01*
X164292603Y-82020822D01*
X164269449Y-82037994D01*
X164244723Y-82052814D01*
X164218663Y-82065140D01*
X164191521Y-82074851D01*
X164163558Y-82081856D01*
X164135043Y-82086086D01*
X164106250Y-82087500D01*
X163093750Y-82087500D01*
X163064957Y-82086086D01*
X163036442Y-82081856D01*
X163008479Y-82074851D01*
X162981337Y-82065140D01*
X162955277Y-82052814D01*
X162930551Y-82037994D01*
X162907397Y-82020822D01*
X162886037Y-82001463D01*
X162866678Y-81980103D01*
X162849506Y-81956949D01*
X162834686Y-81932223D01*
X162822360Y-81906163D01*
X162812649Y-81879021D01*
X162805644Y-81851058D01*
X162801414Y-81822543D01*
X162800000Y-81793750D01*
X162800000Y-81206250D01*
X162801414Y-81177457D01*
X162805644Y-81148942D01*
X162812649Y-81120979D01*
X162822360Y-81093837D01*
X162834686Y-81067777D01*
X162849506Y-81043051D01*
X162866678Y-81019897D01*
X162886037Y-80998537D01*
X162907397Y-80979178D01*
X162930551Y-80962006D01*
X162955277Y-80947186D01*
X162981337Y-80934860D01*
X163008479Y-80925149D01*
X163036442Y-80918144D01*
X163064957Y-80913914D01*
X163093750Y-80912500D01*
X164106250Y-80912500D01*
X164135043Y-80913914D01*
X164135043Y-80913914D01*
G37*
D21*
X163600000Y-81500000D03*
G04 #@! TD*
D18*
G04 #@! TO.C,R2*
G36*
X174935043Y-93938914D02*
X174963558Y-93943144D01*
X174991521Y-93950149D01*
X175018663Y-93959860D01*
X175044723Y-93972186D01*
X175069449Y-93987006D01*
X175092603Y-94004178D01*
X175113963Y-94023537D01*
X175133322Y-94044897D01*
X175150494Y-94068051D01*
X175165314Y-94092777D01*
X175177640Y-94118837D01*
X175187351Y-94145979D01*
X175194356Y-94173942D01*
X175198586Y-94202457D01*
X175200000Y-94231250D01*
X175200000Y-94818750D01*
X175198586Y-94847543D01*
X175194356Y-94876058D01*
X175187351Y-94904021D01*
X175177640Y-94931163D01*
X175165314Y-94957223D01*
X175150494Y-94981949D01*
X175133322Y-95005103D01*
X175113963Y-95026463D01*
X175092603Y-95045822D01*
X175069449Y-95062994D01*
X175044723Y-95077814D01*
X175018663Y-95090140D01*
X174991521Y-95099851D01*
X174963558Y-95106856D01*
X174935043Y-95111086D01*
X174906250Y-95112500D01*
X173893750Y-95112500D01*
X173864957Y-95111086D01*
X173836442Y-95106856D01*
X173808479Y-95099851D01*
X173781337Y-95090140D01*
X173755277Y-95077814D01*
X173730551Y-95062994D01*
X173707397Y-95045822D01*
X173686037Y-95026463D01*
X173666678Y-95005103D01*
X173649506Y-94981949D01*
X173634686Y-94957223D01*
X173622360Y-94931163D01*
X173612649Y-94904021D01*
X173605644Y-94876058D01*
X173601414Y-94847543D01*
X173600000Y-94818750D01*
X173600000Y-94231250D01*
X173601414Y-94202457D01*
X173605644Y-94173942D01*
X173612649Y-94145979D01*
X173622360Y-94118837D01*
X173634686Y-94092777D01*
X173649506Y-94068051D01*
X173666678Y-94044897D01*
X173686037Y-94023537D01*
X173707397Y-94004178D01*
X173730551Y-93987006D01*
X173755277Y-93972186D01*
X173781337Y-93959860D01*
X173808479Y-93950149D01*
X173836442Y-93943144D01*
X173864957Y-93938914D01*
X173893750Y-93937500D01*
X174906250Y-93937500D01*
X174935043Y-93938914D01*
X174935043Y-93938914D01*
G37*
D21*
X174400000Y-94525000D03*
D18*
G36*
X174935043Y-95813914D02*
X174963558Y-95818144D01*
X174991521Y-95825149D01*
X175018663Y-95834860D01*
X175044723Y-95847186D01*
X175069449Y-95862006D01*
X175092603Y-95879178D01*
X175113963Y-95898537D01*
X175133322Y-95919897D01*
X175150494Y-95943051D01*
X175165314Y-95967777D01*
X175177640Y-95993837D01*
X175187351Y-96020979D01*
X175194356Y-96048942D01*
X175198586Y-96077457D01*
X175200000Y-96106250D01*
X175200000Y-96693750D01*
X175198586Y-96722543D01*
X175194356Y-96751058D01*
X175187351Y-96779021D01*
X175177640Y-96806163D01*
X175165314Y-96832223D01*
X175150494Y-96856949D01*
X175133322Y-96880103D01*
X175113963Y-96901463D01*
X175092603Y-96920822D01*
X175069449Y-96937994D01*
X175044723Y-96952814D01*
X175018663Y-96965140D01*
X174991521Y-96974851D01*
X174963558Y-96981856D01*
X174935043Y-96986086D01*
X174906250Y-96987500D01*
X173893750Y-96987500D01*
X173864957Y-96986086D01*
X173836442Y-96981856D01*
X173808479Y-96974851D01*
X173781337Y-96965140D01*
X173755277Y-96952814D01*
X173730551Y-96937994D01*
X173707397Y-96920822D01*
X173686037Y-96901463D01*
X173666678Y-96880103D01*
X173649506Y-96856949D01*
X173634686Y-96832223D01*
X173622360Y-96806163D01*
X173612649Y-96779021D01*
X173605644Y-96751058D01*
X173601414Y-96722543D01*
X173600000Y-96693750D01*
X173600000Y-96106250D01*
X173601414Y-96077457D01*
X173605644Y-96048942D01*
X173612649Y-96020979D01*
X173622360Y-95993837D01*
X173634686Y-95967777D01*
X173649506Y-95943051D01*
X173666678Y-95919897D01*
X173686037Y-95898537D01*
X173707397Y-95879178D01*
X173730551Y-95862006D01*
X173755277Y-95847186D01*
X173781337Y-95834860D01*
X173808479Y-95825149D01*
X173836442Y-95818144D01*
X173864957Y-95813914D01*
X173893750Y-95812500D01*
X174906250Y-95812500D01*
X174935043Y-95813914D01*
X174935043Y-95813914D01*
G37*
D21*
X174400000Y-96400000D03*
G04 #@! TD*
D22*
G04 #@! TO.C,J1*
X155000000Y-107300000D03*
X155000000Y-105300000D03*
X157000000Y-107300000D03*
X157000000Y-105300000D03*
X159000000Y-107300000D03*
X159000000Y-105300000D03*
X161000000Y-107300000D03*
X161000000Y-105300000D03*
X163000000Y-107300000D03*
D14*
X163000000Y-105300000D03*
G04 #@! TD*
D23*
G04 #@! TO.C,U3*
X139025000Y-94140000D03*
X139025000Y-92870000D03*
X139025000Y-91600000D03*
X139025000Y-90330000D03*
X139025000Y-89060000D03*
X139025000Y-87790000D03*
X139025000Y-86520000D03*
X139025000Y-85250000D03*
D24*
X127040000Y-96545000D03*
X128310000Y-96545000D03*
X129580000Y-96545000D03*
X130850000Y-96545000D03*
X132120000Y-96545000D03*
X133390000Y-96545000D03*
X134660000Y-96535000D03*
X135930000Y-96545000D03*
D23*
X123975000Y-85250000D03*
X123975000Y-86520000D03*
X123975000Y-87790000D03*
X123975000Y-89060000D03*
X123975000Y-90330000D03*
X123975000Y-91600000D03*
X123975000Y-92870000D03*
X123975000Y-94140000D03*
G04 #@! TD*
D25*
G04 #@! TO.C,J2*
X169540000Y-74000000D03*
D26*
X167000000Y-74000000D03*
G04 #@! TD*
D25*
G04 #@! TO.C,J5*
X151540000Y-74000000D03*
D26*
X149000000Y-74000000D03*
G04 #@! TD*
D25*
G04 #@! TO.C,J6*
X160540000Y-74000000D03*
D26*
X158000000Y-74000000D03*
G04 #@! TD*
D27*
G04 #@! TO.C,U1*
X159850000Y-94700000D03*
X159850000Y-93900000D03*
X159850000Y-93100000D03*
X159850000Y-92300000D03*
X159850000Y-91500000D03*
X159850000Y-90700000D03*
X159850000Y-89900000D03*
X159850000Y-89100000D03*
D28*
X161300000Y-87650000D03*
X162100000Y-87650000D03*
X162900000Y-87650000D03*
X163700000Y-87650000D03*
X164500000Y-87650000D03*
X165300000Y-87650000D03*
X166100000Y-87650000D03*
X166900000Y-87650000D03*
D27*
X168350000Y-89100000D03*
X168350000Y-89900000D03*
X168350000Y-90700000D03*
X168350000Y-91500000D03*
X168350000Y-92300000D03*
X168350000Y-93100000D03*
X168350000Y-93900000D03*
X168350000Y-94700000D03*
D28*
X166900000Y-96150000D03*
X166100000Y-96150000D03*
X165300000Y-96150000D03*
X164500000Y-96150000D03*
X163700000Y-96150000D03*
X162900000Y-96150000D03*
X162100000Y-96150000D03*
X161300000Y-96150000D03*
G04 #@! TD*
D29*
G04 #@! TO.C,U2*
X149250000Y-84575000D03*
X149250000Y-85225000D03*
X149250000Y-85875000D03*
X149250000Y-86525000D03*
X149250000Y-87175000D03*
X149250000Y-87825000D03*
X149250000Y-88475000D03*
X149250000Y-89125000D03*
X149250000Y-89775000D03*
X149250000Y-90425000D03*
X143350000Y-90425000D03*
X143350000Y-89775000D03*
X143350000Y-89125000D03*
X143350000Y-88475000D03*
X143350000Y-87825000D03*
X143350000Y-87175000D03*
X143350000Y-86525000D03*
X143350000Y-85875000D03*
X143350000Y-85225000D03*
X143350000Y-84575000D03*
G04 #@! TD*
D30*
G04 #@! TO.C,*
X181550000Y-73450000D03*
G04 #@! TD*
G04 #@! TO.C,*
X181550000Y-109550000D03*
G04 #@! TD*
G04 #@! TO.C,*
X118450000Y-109550000D03*
G04 #@! TD*
G04 #@! TO.C,*
X118450000Y-73450000D03*
G04 #@! TD*
M02*
