M48
;DRILL file {KiCad 5.0.2+dfsg1-1} date Вс 10 окт 2021 21:49:21
;FORMAT={3:3/ absolute / metric / keep zeros}
FMAT,2
METRIC,TZ
T1C0.400
T2C0.800
T3C1.000
%
G90
G05
T1
X116950Y-076150
X116950Y-086150
X116950Y-096150
X116950Y-106150
X119450Y-081150
X119450Y-091150
X119450Y-101150
X121950Y-096150
X121950Y-106150
X124450Y-081150
X124450Y-101150
X124450Y-111150
X126950Y-106150
X127600Y-086500
X128600Y-087800
X129450Y-081150
X129450Y-111150
X129600Y-089100
X130600Y-098900
X131950Y-106150
X133600Y-092900
X134450Y-081150
X134450Y-111150
X134600Y-090400
X135600Y-091600
X136950Y-106150
X139450Y-081150
X139450Y-101150
X139450Y-111150
X141600Y-086500
X141600Y-087800
X141950Y-076150
X141950Y-096150
X141950Y-106150
X144450Y-071150
X144450Y-081150
X144450Y-101150
X144450Y-111150
X144500Y-094500
X146100Y-084800
X146100Y-088000
X146950Y-076150
X146950Y-106150
X147300Y-089800
X147600Y-079100
X148700Y-097363
X149450Y-071150
X149450Y-081150
X149450Y-111150
X151000Y-089075
X151950Y-076150
X151950Y-106150
X154450Y-071150
X154450Y-091150
X154450Y-111150
X154900Y-101900
X155800Y-089075
X156100Y-101100
X156700Y-087400
X157200Y-089800
X158300Y-081000
X159450Y-071150
X159450Y-111150
X161000Y-102700
X161300Y-084900
X161950Y-076150
X162000Y-090400
X162300Y-101700
X164200Y-101000
X164200Y-102700
X164450Y-071150
X164450Y-111150
X164600Y-083100
X165400Y-081500
X165675Y-106275
X166100Y-086100
X166100Y-089800
X168100Y-087600
X169100Y-082000
X169100Y-086300
X169450Y-071150
X169450Y-111150
X172000Y-102066
X174450Y-071150
X174450Y-111150
X176950Y-076150
X176950Y-106150
X177331Y-096169
X178100Y-089500
X178400Y-092200
X178500Y-097300
X179400Y-087100
X179450Y-071150
X179450Y-081150
X179800Y-097300
X181950Y-076150
X181950Y-086150
X181950Y-096150
X181950Y-106150
T2
X171300Y-079100
X171300Y-081100
X171300Y-083100
X173300Y-079100
X173300Y-081100
X173300Y-083100
X127600Y-102100
X127600Y-104100
X129600Y-102100
X129600Y-104100
X131600Y-102100
X131600Y-104100
X133600Y-102100
X133600Y-104100
X135600Y-102100
X135600Y-104100
X155000Y-105300
X155000Y-107300
X157000Y-105300
X157000Y-107300
X159000Y-105300
X159000Y-107300
X161000Y-105300
X161000Y-107300
X163000Y-105300
X163000Y-107300
T3
X167000Y-074000
X169540Y-074000
X149000Y-074000
X151540Y-074000
X158000Y-074000
X160540Y-074000
T0
M30
