G04 #@! TF.GenerationSoftware,KiCad,Pcbnew,5.0.2+dfsg1-1*
G04 #@! TF.CreationDate,2021-10-10T22:00:12+03:00*
G04 #@! TF.ProjectId,Brizer-ZigBee,4272697a-6572-42d5-9a69-674265652e6b,rev?*
G04 #@! TF.SameCoordinates,Original*
G04 #@! TF.FileFunction,Legend,Bot*
G04 #@! TF.FilePolarity,Positive*
%FSLAX46Y46*%
G04 Gerber Fmt 4.6, Leading zero omitted, Abs format (unit mm)*
G04 Created by KiCad (PCBNEW 5.0.2+dfsg1-1) date Вс 10 окт 2021 22:00:12*
%MOMM*%
%LPD*%
G01*
G04 APERTURE LIST*
%ADD10C,0.200000*%
%ADD11C,0.150000*%
%ADD12O,1.550000X1.550000*%
%ADD13R,1.550000X1.550000*%
%ADD14C,1.550000*%
%ADD15O,1.900000X1.900000*%
%ADD16R,1.900000X1.900000*%
%ADD17C,3.400000*%
G04 APERTURE END LIST*
D10*
X140050000Y-82500000D02*
X140050000Y-76000000D01*
X124550000Y-82500000D02*
X140050000Y-82500000D01*
X124550000Y-76000000D02*
X124550000Y-82500000D01*
X140050000Y-76000000D02*
X124550000Y-76000000D01*
D11*
X139047619Y-76438095D02*
X139047619Y-77366666D01*
X139109523Y-77552380D01*
X139233333Y-77676190D01*
X139419047Y-77738095D01*
X139542857Y-77738095D01*
X138490476Y-76561904D02*
X138428571Y-76500000D01*
X138304761Y-76438095D01*
X137995238Y-76438095D01*
X137871428Y-76500000D01*
X137809523Y-76561904D01*
X137747619Y-76685714D01*
X137747619Y-76809523D01*
X137809523Y-76995238D01*
X138552380Y-77738095D01*
X137747619Y-77738095D01*
X136200000Y-77242857D02*
X135209523Y-77242857D01*
X133166666Y-77057142D02*
X132980952Y-77119047D01*
X132919047Y-77180952D01*
X132857142Y-77304761D01*
X132857142Y-77490476D01*
X132919047Y-77614285D01*
X132980952Y-77676190D01*
X133104761Y-77738095D01*
X133600000Y-77738095D01*
X133600000Y-76438095D01*
X133166666Y-76438095D01*
X133042857Y-76500000D01*
X132980952Y-76561904D01*
X132919047Y-76685714D01*
X132919047Y-76809523D01*
X132980952Y-76933333D01*
X133042857Y-76995238D01*
X133166666Y-77057142D01*
X133600000Y-77057142D01*
X131742857Y-76871428D02*
X131742857Y-77738095D01*
X132300000Y-76871428D02*
X132300000Y-77552380D01*
X132238095Y-77676190D01*
X132114285Y-77738095D01*
X131928571Y-77738095D01*
X131804761Y-77676190D01*
X131742857Y-77614285D01*
X131185714Y-77676190D02*
X131061904Y-77738095D01*
X130814285Y-77738095D01*
X130690476Y-77676190D01*
X130628571Y-77552380D01*
X130628571Y-77490476D01*
X130690476Y-77366666D01*
X130814285Y-77304761D01*
X131000000Y-77304761D01*
X131123809Y-77242857D01*
X131185714Y-77119047D01*
X131185714Y-77057142D01*
X131123809Y-76933333D01*
X131000000Y-76871428D01*
X130814285Y-76871428D01*
X130690476Y-76933333D01*
X130195238Y-76871428D02*
X129885714Y-77738095D01*
X129576190Y-76871428D02*
X129885714Y-77738095D01*
X130009523Y-78047619D01*
X130071428Y-78109523D01*
X130195238Y-78171428D01*
X127471428Y-77738095D02*
X128090476Y-77738095D01*
X128090476Y-76438095D01*
X127038095Y-77057142D02*
X126604761Y-77057142D01*
X126419047Y-77738095D02*
X127038095Y-77738095D01*
X127038095Y-76438095D01*
X126419047Y-76438095D01*
X125861904Y-77738095D02*
X125861904Y-76438095D01*
X125552380Y-76438095D01*
X125366666Y-76500000D01*
X125242857Y-76623809D01*
X125180952Y-76747619D01*
X125119047Y-76995238D01*
X125119047Y-77180952D01*
X125180952Y-77428571D01*
X125242857Y-77552380D01*
X125366666Y-77676190D01*
X125552380Y-77738095D01*
X125861904Y-77738095D01*
X138800000Y-78538095D02*
X138800000Y-79466666D01*
X138861904Y-79652380D01*
X138985714Y-79776190D01*
X139171428Y-79838095D01*
X139295238Y-79838095D01*
X137561904Y-78538095D02*
X138180952Y-78538095D01*
X138242857Y-79157142D01*
X138180952Y-79095238D01*
X138057142Y-79033333D01*
X137747619Y-79033333D01*
X137623809Y-79095238D01*
X137561904Y-79157142D01*
X137500000Y-79280952D01*
X137500000Y-79590476D01*
X137561904Y-79714285D01*
X137623809Y-79776190D01*
X137747619Y-79838095D01*
X138057142Y-79838095D01*
X138180952Y-79776190D01*
X138242857Y-79714285D01*
X135952380Y-79342857D02*
X134961904Y-79342857D01*
X133352380Y-79838095D02*
X133352380Y-78538095D01*
X132857142Y-78538095D01*
X132733333Y-78600000D01*
X132671428Y-78661904D01*
X132609523Y-78785714D01*
X132609523Y-78971428D01*
X132671428Y-79095238D01*
X132733333Y-79157142D01*
X132857142Y-79219047D01*
X133352380Y-79219047D01*
X131495238Y-79838095D02*
X131495238Y-79157142D01*
X131557142Y-79033333D01*
X131680952Y-78971428D01*
X131928571Y-78971428D01*
X132052380Y-79033333D01*
X131495238Y-79776190D02*
X131619047Y-79838095D01*
X131928571Y-79838095D01*
X132052380Y-79776190D01*
X132114285Y-79652380D01*
X132114285Y-79528571D01*
X132052380Y-79404761D01*
X131928571Y-79342857D01*
X131619047Y-79342857D01*
X131495238Y-79280952D01*
X130876190Y-79838095D02*
X130876190Y-78971428D01*
X130876190Y-78538095D02*
X130938095Y-78600000D01*
X130876190Y-78661904D01*
X130814285Y-78600000D01*
X130876190Y-78538095D01*
X130876190Y-78661904D01*
X130257142Y-79838095D02*
X130257142Y-78971428D01*
X130257142Y-79219047D02*
X130195238Y-79095238D01*
X130133333Y-79033333D01*
X130009523Y-78971428D01*
X129885714Y-78971428D01*
X128028571Y-79157142D02*
X127842857Y-79219047D01*
X127780952Y-79280952D01*
X127719047Y-79404761D01*
X127719047Y-79590476D01*
X127780952Y-79714285D01*
X127842857Y-79776190D01*
X127966666Y-79838095D01*
X128461904Y-79838095D01*
X128461904Y-78538095D01*
X128028571Y-78538095D01*
X127904761Y-78600000D01*
X127842857Y-78661904D01*
X127780952Y-78785714D01*
X127780952Y-78909523D01*
X127842857Y-79033333D01*
X127904761Y-79095238D01*
X128028571Y-79157142D01*
X128461904Y-79157142D01*
X127347619Y-78538095D02*
X126604761Y-78538095D01*
X126976190Y-79838095D02*
X126976190Y-78538095D01*
X126171428Y-79838095D02*
X126171428Y-78538095D01*
X125428571Y-79838095D01*
X125428571Y-78538095D01*
X138738095Y-80638095D02*
X138738095Y-81566666D01*
X138800000Y-81752380D01*
X138923809Y-81876190D01*
X139109523Y-81938095D01*
X139233333Y-81938095D01*
X137561904Y-80638095D02*
X137809523Y-80638095D01*
X137933333Y-80700000D01*
X137995238Y-80761904D01*
X138119047Y-80947619D01*
X138180952Y-81195238D01*
X138180952Y-81690476D01*
X138119047Y-81814285D01*
X138057142Y-81876190D01*
X137933333Y-81938095D01*
X137685714Y-81938095D01*
X137561904Y-81876190D01*
X137500000Y-81814285D01*
X137438095Y-81690476D01*
X137438095Y-81380952D01*
X137500000Y-81257142D01*
X137561904Y-81195238D01*
X137685714Y-81133333D01*
X137933333Y-81133333D01*
X138057142Y-81195238D01*
X138119047Y-81257142D01*
X138180952Y-81380952D01*
X135890476Y-81442857D02*
X134900000Y-81442857D01*
X133290476Y-81938095D02*
X133290476Y-80638095D01*
X132795238Y-80638095D01*
X132671428Y-80700000D01*
X132609523Y-80761904D01*
X132547619Y-80885714D01*
X132547619Y-81071428D01*
X132609523Y-81195238D01*
X132671428Y-81257142D01*
X132795238Y-81319047D01*
X133290476Y-81319047D01*
X131433333Y-81938095D02*
X131433333Y-81257142D01*
X131495238Y-81133333D01*
X131619047Y-81071428D01*
X131866666Y-81071428D01*
X131990476Y-81133333D01*
X131433333Y-81876190D02*
X131557142Y-81938095D01*
X131866666Y-81938095D01*
X131990476Y-81876190D01*
X132052380Y-81752380D01*
X132052380Y-81628571D01*
X131990476Y-81504761D01*
X131866666Y-81442857D01*
X131557142Y-81442857D01*
X131433333Y-81380952D01*
X130814285Y-81938095D02*
X130814285Y-81071428D01*
X130814285Y-80638095D02*
X130876190Y-80700000D01*
X130814285Y-80761904D01*
X130752380Y-80700000D01*
X130814285Y-80638095D01*
X130814285Y-80761904D01*
X130195238Y-81938095D02*
X130195238Y-81071428D01*
X130195238Y-81319047D02*
X130133333Y-81195238D01*
X130071428Y-81133333D01*
X129947619Y-81071428D01*
X129823809Y-81071428D01*
X127780952Y-81938095D02*
X128400000Y-81938095D01*
X128400000Y-80638095D01*
X127347619Y-81257142D02*
X126914285Y-81257142D01*
X126728571Y-81938095D02*
X127347619Y-81938095D01*
X127347619Y-80638095D01*
X126728571Y-80638095D01*
X126171428Y-81938095D02*
X126171428Y-80638095D01*
X125861904Y-80638095D01*
X125676190Y-80700000D01*
X125552380Y-80823809D01*
X125490476Y-80947619D01*
X125428571Y-81195238D01*
X125428571Y-81380952D01*
X125490476Y-81628571D01*
X125552380Y-81752380D01*
X125676190Y-81876190D01*
X125861904Y-81938095D01*
X126171428Y-81938095D01*
D10*
X147950000Y-101450000D02*
X136950000Y-101450000D01*
X147950000Y-90700000D02*
X147950000Y-101450000D01*
X147950000Y-112200000D02*
X147950000Y-90700000D01*
X136950000Y-112200000D02*
X150450000Y-112200000D01*
X136950000Y-90700000D02*
X136950000Y-112200000D01*
X150450000Y-90700000D02*
X136950000Y-90700000D01*
X150450000Y-112200000D02*
X150450000Y-90700000D01*
D11*
X149961904Y-111169047D02*
X149033333Y-111169047D01*
X148847619Y-111230952D01*
X148723809Y-111354761D01*
X148661904Y-111540476D01*
X148661904Y-111664285D01*
X149528571Y-109992857D02*
X148661904Y-109992857D01*
X150023809Y-110302380D02*
X149095238Y-110611904D01*
X149095238Y-109807142D01*
X149157142Y-108321428D02*
X149157142Y-107330952D01*
X148785714Y-104978571D02*
X148723809Y-105040476D01*
X148661904Y-105226190D01*
X148661904Y-105350000D01*
X148723809Y-105535714D01*
X148847619Y-105659523D01*
X148971428Y-105721428D01*
X149219047Y-105783333D01*
X149404761Y-105783333D01*
X149652380Y-105721428D01*
X149776190Y-105659523D01*
X149900000Y-105535714D01*
X149961904Y-105350000D01*
X149961904Y-105226190D01*
X149900000Y-105040476D01*
X149838095Y-104978571D01*
X148785714Y-103678571D02*
X148723809Y-103740476D01*
X148661904Y-103926190D01*
X148661904Y-104050000D01*
X148723809Y-104235714D01*
X148847619Y-104359523D01*
X148971428Y-104421428D01*
X149219047Y-104483333D01*
X149404761Y-104483333D01*
X149652380Y-104421428D01*
X149776190Y-104359523D01*
X149900000Y-104235714D01*
X149961904Y-104050000D01*
X149961904Y-103926190D01*
X149900000Y-103740476D01*
X149838095Y-103678571D01*
X149838095Y-103183333D02*
X149900000Y-103121428D01*
X149961904Y-102997619D01*
X149961904Y-102688095D01*
X149900000Y-102564285D01*
X149838095Y-102502380D01*
X149714285Y-102440476D01*
X149590476Y-102440476D01*
X149404761Y-102502380D01*
X148661904Y-103245238D01*
X148661904Y-102440476D01*
X149961904Y-101264285D02*
X149961904Y-101883333D01*
X149342857Y-101945238D01*
X149404761Y-101883333D01*
X149466666Y-101759523D01*
X149466666Y-101450000D01*
X149404761Y-101326190D01*
X149342857Y-101264285D01*
X149219047Y-101202380D01*
X148909523Y-101202380D01*
X148785714Y-101264285D01*
X148723809Y-101326190D01*
X148661904Y-101450000D01*
X148661904Y-101759523D01*
X148723809Y-101883333D01*
X148785714Y-101945238D01*
X149961904Y-100769047D02*
X149961904Y-99964285D01*
X149466666Y-100397619D01*
X149466666Y-100211904D01*
X149404761Y-100088095D01*
X149342857Y-100026190D01*
X149219047Y-99964285D01*
X148909523Y-99964285D01*
X148785714Y-100026190D01*
X148723809Y-100088095D01*
X148661904Y-100211904D01*
X148661904Y-100583333D01*
X148723809Y-100707142D01*
X148785714Y-100769047D01*
X149961904Y-99159523D02*
X149961904Y-99035714D01*
X149900000Y-98911904D01*
X149838095Y-98850000D01*
X149714285Y-98788095D01*
X149466666Y-98726190D01*
X149157142Y-98726190D01*
X148909523Y-98788095D01*
X148785714Y-98850000D01*
X148723809Y-98911904D01*
X148661904Y-99035714D01*
X148661904Y-99159523D01*
X148723809Y-99283333D01*
X148785714Y-99345238D01*
X148909523Y-99407142D01*
X149157142Y-99469047D01*
X149466666Y-99469047D01*
X149714285Y-99407142D01*
X149838095Y-99345238D01*
X149900000Y-99283333D01*
X149961904Y-99159523D01*
X148538095Y-98478571D02*
X148538095Y-97488095D01*
X148661904Y-97178571D02*
X149961904Y-97178571D01*
X149961904Y-96869047D01*
X149900000Y-96683333D01*
X149776190Y-96559523D01*
X149652380Y-96497619D01*
X149404761Y-96435714D01*
X149219047Y-96435714D01*
X148971428Y-96497619D01*
X148847619Y-96559523D01*
X148723809Y-96683333D01*
X148661904Y-96869047D01*
X148661904Y-97178571D01*
X149342857Y-95878571D02*
X149342857Y-95445238D01*
X148661904Y-95259523D02*
X148661904Y-95878571D01*
X149961904Y-95878571D01*
X149961904Y-95259523D01*
X149342857Y-94269047D02*
X149280952Y-94083333D01*
X149219047Y-94021428D01*
X149095238Y-93959523D01*
X148909523Y-93959523D01*
X148785714Y-94021428D01*
X148723809Y-94083333D01*
X148661904Y-94207142D01*
X148661904Y-94702380D01*
X149961904Y-94702380D01*
X149961904Y-94269047D01*
X149900000Y-94145238D01*
X149838095Y-94083333D01*
X149714285Y-94021428D01*
X149590476Y-94021428D01*
X149466666Y-94083333D01*
X149404761Y-94145238D01*
X149342857Y-94269047D01*
X149342857Y-94702380D01*
X149961904Y-93402380D02*
X148909523Y-93402380D01*
X148785714Y-93340476D01*
X148723809Y-93278571D01*
X148661904Y-93154761D01*
X148661904Y-92907142D01*
X148723809Y-92783333D01*
X148785714Y-92721428D01*
X148909523Y-92659523D01*
X149961904Y-92659523D01*
X149900000Y-91359523D02*
X149961904Y-91483333D01*
X149961904Y-91669047D01*
X149900000Y-91854761D01*
X149776190Y-91978571D01*
X149652380Y-92040476D01*
X149404761Y-92102380D01*
X149219047Y-92102380D01*
X148971428Y-92040476D01*
X148847619Y-91978571D01*
X148723809Y-91854761D01*
X148661904Y-91669047D01*
X148661904Y-91545238D01*
X148723809Y-91359523D01*
X148785714Y-91297619D01*
X149219047Y-91297619D01*
X149219047Y-91545238D01*
X146061904Y-99862023D02*
X146061904Y-100604880D01*
X146061904Y-100233452D02*
X147361904Y-100233452D01*
X147176190Y-100357261D01*
X147052380Y-100481071D01*
X146990476Y-100604880D01*
X147361904Y-99057261D02*
X147361904Y-98933452D01*
X147300000Y-98809642D01*
X147238095Y-98747738D01*
X147114285Y-98685833D01*
X146866666Y-98623928D01*
X146557142Y-98623928D01*
X146309523Y-98685833D01*
X146185714Y-98747738D01*
X146123809Y-98809642D01*
X146061904Y-98933452D01*
X146061904Y-99057261D01*
X146123809Y-99181071D01*
X146185714Y-99242976D01*
X146309523Y-99304880D01*
X146557142Y-99366785D01*
X146866666Y-99366785D01*
X147114285Y-99304880D01*
X147238095Y-99242976D01*
X147300000Y-99181071D01*
X147361904Y-99057261D01*
X146061904Y-97076309D02*
X147361904Y-97076309D01*
X146433333Y-96642976D01*
X147361904Y-96209642D01*
X146061904Y-96209642D01*
X146061904Y-95590595D02*
X147361904Y-95590595D01*
X146123809Y-95033452D02*
X146061904Y-94847738D01*
X146061904Y-94538214D01*
X146123809Y-94414404D01*
X146185714Y-94352500D01*
X146309523Y-94290595D01*
X146433333Y-94290595D01*
X146557142Y-94352500D01*
X146619047Y-94414404D01*
X146680952Y-94538214D01*
X146742857Y-94785833D01*
X146804761Y-94909642D01*
X146866666Y-94971547D01*
X146990476Y-95033452D01*
X147114285Y-95033452D01*
X147238095Y-94971547D01*
X147300000Y-94909642D01*
X147361904Y-94785833D01*
X147361904Y-94476309D01*
X147300000Y-94290595D01*
X147361904Y-93485833D02*
X147361904Y-93238214D01*
X147300000Y-93114404D01*
X147176190Y-92990595D01*
X146928571Y-92928690D01*
X146495238Y-92928690D01*
X146247619Y-92990595D01*
X146123809Y-93114404D01*
X146061904Y-93238214D01*
X146061904Y-93485833D01*
X146123809Y-93609642D01*
X146247619Y-93733452D01*
X146495238Y-93795357D01*
X146928571Y-93795357D01*
X147176190Y-93733452D01*
X147300000Y-93609642D01*
X147361904Y-93485833D01*
X144704761Y-100357261D02*
X144766666Y-100481071D01*
X144828571Y-100542976D01*
X144952380Y-100604880D01*
X145014285Y-100604880D01*
X145138095Y-100542976D01*
X145200000Y-100481071D01*
X145261904Y-100357261D01*
X145261904Y-100109642D01*
X145200000Y-99985833D01*
X145138095Y-99923928D01*
X145014285Y-99862023D01*
X144952380Y-99862023D01*
X144828571Y-99923928D01*
X144766666Y-99985833D01*
X144704761Y-100109642D01*
X144704761Y-100357261D01*
X144642857Y-100481071D01*
X144580952Y-100542976D01*
X144457142Y-100604880D01*
X144209523Y-100604880D01*
X144085714Y-100542976D01*
X144023809Y-100481071D01*
X143961904Y-100357261D01*
X143961904Y-100109642D01*
X144023809Y-99985833D01*
X144085714Y-99923928D01*
X144209523Y-99862023D01*
X144457142Y-99862023D01*
X144580952Y-99923928D01*
X144642857Y-99985833D01*
X144704761Y-100109642D01*
X143961904Y-98314404D02*
X145261904Y-98314404D01*
X144333333Y-97881071D01*
X145261904Y-97447738D01*
X143961904Y-97447738D01*
X145261904Y-96581071D02*
X145261904Y-96333452D01*
X145200000Y-96209642D01*
X145076190Y-96085833D01*
X144828571Y-96023928D01*
X144395238Y-96023928D01*
X144147619Y-96085833D01*
X144023809Y-96209642D01*
X143961904Y-96333452D01*
X143961904Y-96581071D01*
X144023809Y-96704880D01*
X144147619Y-96828690D01*
X144395238Y-96890595D01*
X144828571Y-96890595D01*
X145076190Y-96828690D01*
X145200000Y-96704880D01*
X145261904Y-96581071D01*
X144023809Y-95528690D02*
X143961904Y-95342976D01*
X143961904Y-95033452D01*
X144023809Y-94909642D01*
X144085714Y-94847738D01*
X144209523Y-94785833D01*
X144333333Y-94785833D01*
X144457142Y-94847738D01*
X144519047Y-94909642D01*
X144580952Y-95033452D01*
X144642857Y-95281071D01*
X144704761Y-95404880D01*
X144766666Y-95466785D01*
X144890476Y-95528690D01*
X145014285Y-95528690D01*
X145138095Y-95466785D01*
X145200000Y-95404880D01*
X145261904Y-95281071D01*
X145261904Y-94971547D01*
X145200000Y-94785833D01*
X143961904Y-94228690D02*
X145261904Y-94228690D01*
X143161904Y-99985833D02*
X143161904Y-100233452D01*
X143100000Y-100357261D01*
X143038095Y-100419166D01*
X142852380Y-100542976D01*
X142604761Y-100604880D01*
X142109523Y-100604880D01*
X141985714Y-100542976D01*
X141923809Y-100481071D01*
X141861904Y-100357261D01*
X141861904Y-100109642D01*
X141923809Y-99985833D01*
X141985714Y-99923928D01*
X142109523Y-99862023D01*
X142419047Y-99862023D01*
X142542857Y-99923928D01*
X142604761Y-99985833D01*
X142666666Y-100109642D01*
X142666666Y-100357261D01*
X142604761Y-100481071D01*
X142542857Y-100542976D01*
X142419047Y-100604880D01*
X141923809Y-98376309D02*
X141861904Y-98190595D01*
X141861904Y-97881071D01*
X141923809Y-97757261D01*
X141985714Y-97695357D01*
X142109523Y-97633452D01*
X142233333Y-97633452D01*
X142357142Y-97695357D01*
X142419047Y-97757261D01*
X142480952Y-97881071D01*
X142542857Y-98128690D01*
X142604761Y-98252500D01*
X142666666Y-98314404D01*
X142790476Y-98376309D01*
X142914285Y-98376309D01*
X143038095Y-98314404D01*
X143100000Y-98252500D01*
X143161904Y-98128690D01*
X143161904Y-97819166D01*
X143100000Y-97633452D01*
X141985714Y-96333452D02*
X141923809Y-96395357D01*
X141861904Y-96581071D01*
X141861904Y-96704880D01*
X141923809Y-96890595D01*
X142047619Y-97014404D01*
X142171428Y-97076309D01*
X142419047Y-97138214D01*
X142604761Y-97138214D01*
X142852380Y-97076309D01*
X142976190Y-97014404D01*
X143100000Y-96890595D01*
X143161904Y-96704880D01*
X143161904Y-96581071D01*
X143100000Y-96395357D01*
X143038095Y-96333452D01*
X141861904Y-95776309D02*
X143161904Y-95776309D01*
X141861904Y-95033452D02*
X142604761Y-95590595D01*
X143161904Y-95033452D02*
X142419047Y-95776309D01*
X140628571Y-99985833D02*
X139761904Y-99985833D01*
X141123809Y-100295357D02*
X140195238Y-100604880D01*
X140195238Y-99800119D01*
X139761904Y-98314404D02*
X141061904Y-98314404D01*
X141061904Y-98004880D01*
X141000000Y-97819166D01*
X140876190Y-97695357D01*
X140752380Y-97633452D01*
X140504761Y-97571547D01*
X140319047Y-97571547D01*
X140071428Y-97633452D01*
X139947619Y-97695357D01*
X139823809Y-97819166D01*
X139761904Y-98004880D01*
X139761904Y-98314404D01*
X139761904Y-97014404D02*
X141061904Y-97014404D01*
X141061904Y-96704880D01*
X141000000Y-96519166D01*
X140876190Y-96395357D01*
X140752380Y-96333452D01*
X140504761Y-96271547D01*
X140319047Y-96271547D01*
X140071428Y-96333452D01*
X139947619Y-96395357D01*
X139823809Y-96519166D01*
X139761904Y-96704880D01*
X139761904Y-97014404D01*
X138838095Y-100604880D02*
X138900000Y-100542976D01*
X138961904Y-100419166D01*
X138961904Y-100109642D01*
X138900000Y-99985833D01*
X138838095Y-99923928D01*
X138714285Y-99862023D01*
X138590476Y-99862023D01*
X138404761Y-99923928D01*
X137661904Y-100666785D01*
X137661904Y-99862023D01*
X138157142Y-98314404D02*
X138157142Y-97323928D01*
X137661904Y-97819166D02*
X138652380Y-97819166D01*
X138961904Y-96828690D02*
X138961904Y-96023928D01*
X138466666Y-96457261D01*
X138466666Y-96271547D01*
X138404761Y-96147738D01*
X138342857Y-96085833D01*
X138219047Y-96023928D01*
X137909523Y-96023928D01*
X137785714Y-96085833D01*
X137723809Y-96147738D01*
X137661904Y-96271547D01*
X137661904Y-96642976D01*
X137723809Y-96766785D01*
X137785714Y-96828690D01*
X137785714Y-95466785D02*
X137723809Y-95404880D01*
X137661904Y-95466785D01*
X137723809Y-95528690D01*
X137785714Y-95466785D01*
X137661904Y-95466785D01*
X138961904Y-94971547D02*
X138961904Y-94166785D01*
X138466666Y-94600119D01*
X138466666Y-94414404D01*
X138404761Y-94290595D01*
X138342857Y-94228690D01*
X138219047Y-94166785D01*
X137909523Y-94166785D01*
X137785714Y-94228690D01*
X137723809Y-94290595D01*
X137661904Y-94414404D01*
X137661904Y-94785833D01*
X137723809Y-94909642D01*
X137785714Y-94971547D01*
X138961904Y-93795357D02*
X137661904Y-93362023D01*
X138961904Y-92928690D01*
D10*
X162500000Y-79250000D02*
X162500000Y-85750000D01*
X153500000Y-76750000D02*
X153500000Y-79250000D01*
X170000000Y-76750000D02*
X153500000Y-76750000D01*
X170000000Y-85750000D02*
X170000000Y-76750000D01*
X153500000Y-85750000D02*
X170000000Y-85750000D01*
X153500000Y-79250000D02*
X153500000Y-85750000D01*
X170000000Y-79250000D02*
X153500000Y-79250000D01*
D11*
X168416666Y-77388095D02*
X168416666Y-78316666D01*
X168478571Y-78502380D01*
X168602380Y-78626190D01*
X168788095Y-78688095D01*
X168911904Y-78688095D01*
X167921428Y-77388095D02*
X167116666Y-77388095D01*
X167550000Y-77883333D01*
X167364285Y-77883333D01*
X167240476Y-77945238D01*
X167178571Y-78007142D01*
X167116666Y-78130952D01*
X167116666Y-78440476D01*
X167178571Y-78564285D01*
X167240476Y-78626190D01*
X167364285Y-78688095D01*
X167735714Y-78688095D01*
X167859523Y-78626190D01*
X167921428Y-78564285D01*
X165569047Y-78192857D02*
X164578571Y-78192857D01*
X163030952Y-78316666D02*
X162411904Y-78316666D01*
X163154761Y-78688095D02*
X162721428Y-77388095D01*
X162288095Y-78688095D01*
X162040476Y-77388095D02*
X161607142Y-78688095D01*
X161173809Y-77388095D01*
X159997619Y-78688095D02*
X160430952Y-78069047D01*
X160740476Y-78688095D02*
X160740476Y-77388095D01*
X160245238Y-77388095D01*
X160121428Y-77450000D01*
X160059523Y-77511904D01*
X159997619Y-77635714D01*
X159997619Y-77821428D01*
X160059523Y-77945238D01*
X160121428Y-78007142D01*
X160245238Y-78069047D01*
X160740476Y-78069047D01*
X159750000Y-78811904D02*
X158759523Y-78811904D01*
X158450000Y-78688095D02*
X158450000Y-77388095D01*
X157088095Y-78564285D02*
X157150000Y-78626190D01*
X157335714Y-78688095D01*
X157459523Y-78688095D01*
X157645238Y-78626190D01*
X157769047Y-78502380D01*
X157830952Y-78378571D01*
X157892857Y-78130952D01*
X157892857Y-77945238D01*
X157830952Y-77697619D01*
X157769047Y-77573809D01*
X157645238Y-77450000D01*
X157459523Y-77388095D01*
X157335714Y-77388095D01*
X157150000Y-77450000D01*
X157088095Y-77511904D01*
X156592857Y-78626190D02*
X156407142Y-78688095D01*
X156097619Y-78688095D01*
X155973809Y-78626190D01*
X155911904Y-78564285D01*
X155850000Y-78440476D01*
X155850000Y-78316666D01*
X155911904Y-78192857D01*
X155973809Y-78130952D01*
X156097619Y-78069047D01*
X156345238Y-78007142D01*
X156469047Y-77945238D01*
X156530952Y-77883333D01*
X156592857Y-77759523D01*
X156592857Y-77635714D01*
X156530952Y-77511904D01*
X156469047Y-77450000D01*
X156345238Y-77388095D01*
X156035714Y-77388095D01*
X155850000Y-77450000D01*
X155292857Y-78688095D02*
X155292857Y-77388095D01*
X154797619Y-77388095D01*
X154673809Y-77450000D01*
X154611904Y-77511904D01*
X154550000Y-77635714D01*
X154550000Y-77821428D01*
X154611904Y-77945238D01*
X154673809Y-78007142D01*
X154797619Y-78069047D01*
X155292857Y-78069047D01*
X168878452Y-80542857D02*
X167887976Y-80542857D01*
X168383214Y-81038095D02*
X168383214Y-80047619D01*
X166649880Y-79738095D02*
X167268928Y-79738095D01*
X167330833Y-80357142D01*
X167268928Y-80295238D01*
X167145119Y-80233333D01*
X166835595Y-80233333D01*
X166711785Y-80295238D01*
X166649880Y-80357142D01*
X166587976Y-80480952D01*
X166587976Y-80790476D01*
X166649880Y-80914285D01*
X166711785Y-80976190D01*
X166835595Y-81038095D01*
X167145119Y-81038095D01*
X167268928Y-80976190D01*
X167330833Y-80914285D01*
X166216547Y-79738095D02*
X165783214Y-81038095D01*
X165349880Y-79738095D01*
X163987976Y-79861904D02*
X163926071Y-79800000D01*
X163802261Y-79738095D01*
X163492738Y-79738095D01*
X163368928Y-79800000D01*
X163307023Y-79861904D01*
X163245119Y-79985714D01*
X163245119Y-80109523D01*
X163307023Y-80295238D01*
X164049880Y-81038095D01*
X163245119Y-81038095D01*
X169621309Y-83138095D02*
X169621309Y-81838095D01*
X169187976Y-82766666D01*
X168754642Y-81838095D01*
X168754642Y-83138095D01*
X167887976Y-81838095D02*
X167640357Y-81838095D01*
X167516547Y-81900000D01*
X167392738Y-82023809D01*
X167330833Y-82271428D01*
X167330833Y-82704761D01*
X167392738Y-82952380D01*
X167516547Y-83076190D01*
X167640357Y-83138095D01*
X167887976Y-83138095D01*
X168011785Y-83076190D01*
X168135595Y-82952380D01*
X168197500Y-82704761D01*
X168197500Y-82271428D01*
X168135595Y-82023809D01*
X168011785Y-81900000D01*
X167887976Y-81838095D01*
X166835595Y-83076190D02*
X166649880Y-83138095D01*
X166340357Y-83138095D01*
X166216547Y-83076190D01*
X166154642Y-83014285D01*
X166092738Y-82890476D01*
X166092738Y-82766666D01*
X166154642Y-82642857D01*
X166216547Y-82580952D01*
X166340357Y-82519047D01*
X166587976Y-82457142D01*
X166711785Y-82395238D01*
X166773690Y-82333333D01*
X166835595Y-82209523D01*
X166835595Y-82085714D01*
X166773690Y-81961904D01*
X166711785Y-81900000D01*
X166587976Y-81838095D01*
X166278452Y-81838095D01*
X166092738Y-81900000D01*
X165535595Y-83138095D02*
X165535595Y-81838095D01*
X163368928Y-82271428D02*
X163368928Y-83138095D01*
X163678452Y-81776190D02*
X163987976Y-82704761D01*
X163183214Y-82704761D01*
X168197500Y-84000000D02*
X168321309Y-83938095D01*
X168507023Y-83938095D01*
X168692738Y-84000000D01*
X168816547Y-84123809D01*
X168878452Y-84247619D01*
X168940357Y-84495238D01*
X168940357Y-84680952D01*
X168878452Y-84928571D01*
X168816547Y-85052380D01*
X168692738Y-85176190D01*
X168507023Y-85238095D01*
X168383214Y-85238095D01*
X168197500Y-85176190D01*
X168135595Y-85114285D01*
X168135595Y-84680952D01*
X168383214Y-84680952D01*
X167578452Y-85238095D02*
X167578452Y-83938095D01*
X166835595Y-85238095D01*
X166835595Y-83938095D01*
X166216547Y-85238095D02*
X166216547Y-83938095D01*
X165907023Y-83938095D01*
X165721309Y-84000000D01*
X165597500Y-84123809D01*
X165535595Y-84247619D01*
X165473690Y-84495238D01*
X165473690Y-84680952D01*
X165535595Y-84928571D01*
X165597500Y-85052380D01*
X165721309Y-85176190D01*
X165907023Y-85238095D01*
X166216547Y-85238095D01*
X163368928Y-83938095D02*
X163616547Y-83938095D01*
X163740357Y-84000000D01*
X163802261Y-84061904D01*
X163926071Y-84247619D01*
X163987976Y-84495238D01*
X163987976Y-84990476D01*
X163926071Y-85114285D01*
X163864166Y-85176190D01*
X163740357Y-85238095D01*
X163492738Y-85238095D01*
X163368928Y-85176190D01*
X163307023Y-85114285D01*
X163245119Y-84990476D01*
X163245119Y-84680952D01*
X163307023Y-84557142D01*
X163368928Y-84495238D01*
X163492738Y-84433333D01*
X163740357Y-84433333D01*
X163864166Y-84495238D01*
X163926071Y-84557142D01*
X163987976Y-84680952D01*
D10*
X175350000Y-104500000D02*
X164200000Y-104500000D01*
X178000000Y-90700000D02*
X175000000Y-90700000D01*
X178000000Y-112200000D02*
X178000000Y-90700000D01*
X175000000Y-112200000D02*
X178000000Y-112200000D01*
X164200000Y-112200000D02*
X175000000Y-112200000D01*
X164200000Y-90700000D02*
X164200000Y-112200000D01*
X175000000Y-90700000D02*
X164200000Y-90700000D01*
X175350000Y-112200000D02*
X175350000Y-90700000D01*
D11*
X177361904Y-109252380D02*
X176433333Y-109252380D01*
X176247619Y-109314285D01*
X176123809Y-109438095D01*
X176061904Y-109623809D01*
X176061904Y-109747619D01*
X176061904Y-107952380D02*
X176061904Y-108695238D01*
X176061904Y-108323809D02*
X177361904Y-108323809D01*
X177176190Y-108447619D01*
X177052380Y-108571428D01*
X176990476Y-108695238D01*
X176557142Y-106404761D02*
X176557142Y-105414285D01*
X176742857Y-103371428D02*
X176680952Y-103185714D01*
X176619047Y-103123809D01*
X176495238Y-103061904D01*
X176309523Y-103061904D01*
X176185714Y-103123809D01*
X176123809Y-103185714D01*
X176061904Y-103309523D01*
X176061904Y-103804761D01*
X177361904Y-103804761D01*
X177361904Y-103371428D01*
X177300000Y-103247619D01*
X177238095Y-103185714D01*
X177114285Y-103123809D01*
X176990476Y-103123809D01*
X176866666Y-103185714D01*
X176804761Y-103247619D01*
X176742857Y-103371428D01*
X176742857Y-103804761D01*
X176061904Y-101761904D02*
X176680952Y-102195238D01*
X176061904Y-102504761D02*
X177361904Y-102504761D01*
X177361904Y-102009523D01*
X177300000Y-101885714D01*
X177238095Y-101823809D01*
X177114285Y-101761904D01*
X176928571Y-101761904D01*
X176804761Y-101823809D01*
X176742857Y-101885714D01*
X176680952Y-102009523D01*
X176680952Y-102504761D01*
X176061904Y-101204761D02*
X177361904Y-101204761D01*
X177361904Y-100709523D02*
X177361904Y-99842857D01*
X176061904Y-100709523D01*
X176061904Y-99842857D01*
X176742857Y-99347619D02*
X176742857Y-98914285D01*
X176061904Y-98728571D02*
X176061904Y-99347619D01*
X177361904Y-99347619D01*
X177361904Y-98728571D01*
X176061904Y-97428571D02*
X176680952Y-97861904D01*
X176061904Y-98171428D02*
X177361904Y-98171428D01*
X177361904Y-97676190D01*
X177300000Y-97552380D01*
X177238095Y-97490476D01*
X177114285Y-97428571D01*
X176928571Y-97428571D01*
X176804761Y-97490476D01*
X176742857Y-97552380D01*
X176680952Y-97676190D01*
X176680952Y-98171428D01*
X176185714Y-95138095D02*
X176123809Y-95200000D01*
X176061904Y-95385714D01*
X176061904Y-95509523D01*
X176123809Y-95695238D01*
X176247619Y-95819047D01*
X176371428Y-95880952D01*
X176619047Y-95942857D01*
X176804761Y-95942857D01*
X177052380Y-95880952D01*
X177176190Y-95819047D01*
X177300000Y-95695238D01*
X177361904Y-95509523D01*
X177361904Y-95385714D01*
X177300000Y-95200000D01*
X177238095Y-95138095D01*
X177361904Y-94333333D02*
X177361904Y-94085714D01*
X177300000Y-93961904D01*
X177176190Y-93838095D01*
X176928571Y-93776190D01*
X176495238Y-93776190D01*
X176247619Y-93838095D01*
X176123809Y-93961904D01*
X176061904Y-94085714D01*
X176061904Y-94333333D01*
X176123809Y-94457142D01*
X176247619Y-94580952D01*
X176495238Y-94642857D01*
X176928571Y-94642857D01*
X177176190Y-94580952D01*
X177300000Y-94457142D01*
X177361904Y-94333333D01*
X176061904Y-93219047D02*
X177361904Y-93219047D01*
X176061904Y-92476190D01*
X177361904Y-92476190D01*
X173707142Y-111028452D02*
X173707142Y-110037976D01*
X173211904Y-110533214D02*
X174202380Y-110533214D01*
X174511904Y-108799880D02*
X174511904Y-109418928D01*
X173892857Y-109480833D01*
X173954761Y-109418928D01*
X174016666Y-109295119D01*
X174016666Y-108985595D01*
X173954761Y-108861785D01*
X173892857Y-108799880D01*
X173769047Y-108737976D01*
X173459523Y-108737976D01*
X173335714Y-108799880D01*
X173273809Y-108861785D01*
X173211904Y-108985595D01*
X173211904Y-109295119D01*
X173273809Y-109418928D01*
X173335714Y-109480833D01*
X174511904Y-108366547D02*
X173211904Y-107933214D01*
X174511904Y-107499880D01*
X174388095Y-106137976D02*
X174450000Y-106076071D01*
X174511904Y-105952261D01*
X174511904Y-105642738D01*
X174450000Y-105518928D01*
X174388095Y-105457023D01*
X174264285Y-105395119D01*
X174140476Y-105395119D01*
X173954761Y-105457023D01*
X173211904Y-106199880D01*
X173211904Y-105395119D01*
X172350000Y-110347500D02*
X172411904Y-110471309D01*
X172411904Y-110657023D01*
X172350000Y-110842738D01*
X172226190Y-110966547D01*
X172102380Y-111028452D01*
X171854761Y-111090357D01*
X171669047Y-111090357D01*
X171421428Y-111028452D01*
X171297619Y-110966547D01*
X171173809Y-110842738D01*
X171111904Y-110657023D01*
X171111904Y-110533214D01*
X171173809Y-110347500D01*
X171235714Y-110285595D01*
X171669047Y-110285595D01*
X171669047Y-110533214D01*
X171111904Y-109728452D02*
X172411904Y-109728452D01*
X171111904Y-108985595D01*
X172411904Y-108985595D01*
X171111904Y-108366547D02*
X172411904Y-108366547D01*
X172411904Y-108057023D01*
X172350000Y-107871309D01*
X172226190Y-107747500D01*
X172102380Y-107685595D01*
X171854761Y-107623690D01*
X171669047Y-107623690D01*
X171421428Y-107685595D01*
X171297619Y-107747500D01*
X171173809Y-107871309D01*
X171111904Y-108057023D01*
X171111904Y-108366547D01*
X171978571Y-105518928D02*
X171111904Y-105518928D01*
X172473809Y-105828452D02*
X171545238Y-106137976D01*
X171545238Y-105333214D01*
X169011904Y-111585595D02*
X170311904Y-111585595D01*
X170311904Y-111276071D01*
X170250000Y-111090357D01*
X170126190Y-110966547D01*
X170002380Y-110904642D01*
X169754761Y-110842738D01*
X169569047Y-110842738D01*
X169321428Y-110904642D01*
X169197619Y-110966547D01*
X169073809Y-111090357D01*
X169011904Y-111276071D01*
X169011904Y-111585595D01*
X169383333Y-110347500D02*
X169383333Y-109728452D01*
X169011904Y-110471309D02*
X170311904Y-110037976D01*
X169011904Y-109604642D01*
X170311904Y-109357023D02*
X170311904Y-108614166D01*
X169011904Y-108985595D02*
X170311904Y-108985595D01*
X169383333Y-108242738D02*
X169383333Y-107623690D01*
X169011904Y-108366547D02*
X170311904Y-107933214D01*
X169011904Y-107499880D01*
X170311904Y-105518928D02*
X170311904Y-105766547D01*
X170250000Y-105890357D01*
X170188095Y-105952261D01*
X170002380Y-106076071D01*
X169754761Y-106137976D01*
X169259523Y-106137976D01*
X169135714Y-106076071D01*
X169073809Y-106014166D01*
X169011904Y-105890357D01*
X169011904Y-105642738D01*
X169073809Y-105518928D01*
X169135714Y-105457023D01*
X169259523Y-105395119D01*
X169569047Y-105395119D01*
X169692857Y-105457023D01*
X169754761Y-105518928D01*
X169816666Y-105642738D01*
X169816666Y-105890357D01*
X169754761Y-106014166D01*
X169692857Y-106076071D01*
X169569047Y-106137976D01*
X168211904Y-109976071D02*
X166911904Y-109666547D01*
X167840476Y-109418928D01*
X166911904Y-109171309D01*
X168211904Y-108861785D01*
X167592857Y-107933214D02*
X167530952Y-107747500D01*
X167469047Y-107685595D01*
X167345238Y-107623690D01*
X167159523Y-107623690D01*
X167035714Y-107685595D01*
X166973809Y-107747500D01*
X166911904Y-107871309D01*
X166911904Y-108366547D01*
X168211904Y-108366547D01*
X168211904Y-107933214D01*
X168150000Y-107809404D01*
X168088095Y-107747500D01*
X167964285Y-107685595D01*
X167840476Y-107685595D01*
X167716666Y-107747500D01*
X167654761Y-107809404D01*
X167592857Y-107933214D01*
X167592857Y-108366547D01*
X167654761Y-105890357D02*
X167716666Y-106014166D01*
X167778571Y-106076071D01*
X167902380Y-106137976D01*
X167964285Y-106137976D01*
X168088095Y-106076071D01*
X168150000Y-106014166D01*
X168211904Y-105890357D01*
X168211904Y-105642738D01*
X168150000Y-105518928D01*
X168088095Y-105457023D01*
X167964285Y-105395119D01*
X167902380Y-105395119D01*
X167778571Y-105457023D01*
X167716666Y-105518928D01*
X167654761Y-105642738D01*
X167654761Y-105890357D01*
X167592857Y-106014166D01*
X167530952Y-106076071D01*
X167407142Y-106137976D01*
X167159523Y-106137976D01*
X167035714Y-106076071D01*
X166973809Y-106014166D01*
X166911904Y-105890357D01*
X166911904Y-105642738D01*
X166973809Y-105518928D01*
X167035714Y-105457023D01*
X167159523Y-105395119D01*
X167407142Y-105395119D01*
X167530952Y-105457023D01*
X167592857Y-105518928D01*
X167654761Y-105642738D01*
X164935714Y-110099880D02*
X164873809Y-110161785D01*
X164811904Y-110347500D01*
X164811904Y-110471309D01*
X164873809Y-110657023D01*
X164997619Y-110780833D01*
X165121428Y-110842738D01*
X165369047Y-110904642D01*
X165554761Y-110904642D01*
X165802380Y-110842738D01*
X165926190Y-110780833D01*
X166050000Y-110657023D01*
X166111904Y-110471309D01*
X166111904Y-110347500D01*
X166050000Y-110161785D01*
X165988095Y-110099880D01*
X164873809Y-109604642D02*
X164811904Y-109418928D01*
X164811904Y-109109404D01*
X164873809Y-108985595D01*
X164935714Y-108923690D01*
X165059523Y-108861785D01*
X165183333Y-108861785D01*
X165307142Y-108923690D01*
X165369047Y-108985595D01*
X165430952Y-109109404D01*
X165492857Y-109357023D01*
X165554761Y-109480833D01*
X165616666Y-109542738D01*
X165740476Y-109604642D01*
X165864285Y-109604642D01*
X165988095Y-109542738D01*
X166050000Y-109480833D01*
X166111904Y-109357023D01*
X166111904Y-109047500D01*
X166050000Y-108861785D01*
X164811904Y-106633214D02*
X164811904Y-107376071D01*
X164811904Y-107004642D02*
X166111904Y-107004642D01*
X165926190Y-107128452D01*
X165802380Y-107252261D01*
X165740476Y-107376071D01*
X166111904Y-105828452D02*
X166111904Y-105704642D01*
X166050000Y-105580833D01*
X165988095Y-105518928D01*
X165864285Y-105457023D01*
X165616666Y-105395119D01*
X165307142Y-105395119D01*
X165059523Y-105457023D01*
X164935714Y-105518928D01*
X164873809Y-105580833D01*
X164811904Y-105704642D01*
X164811904Y-105828452D01*
X164873809Y-105952261D01*
X164935714Y-106014166D01*
X165059523Y-106076071D01*
X165307142Y-106137976D01*
X165616666Y-106137976D01*
X165864285Y-106076071D01*
X165988095Y-106014166D01*
X166050000Y-105952261D01*
X166111904Y-105828452D01*
X146061904Y-106628452D02*
X147361904Y-106628452D01*
X146061904Y-105885595D01*
X147361904Y-105885595D01*
X146185714Y-104523690D02*
X146123809Y-104585595D01*
X146061904Y-104771309D01*
X146061904Y-104895119D01*
X146123809Y-105080833D01*
X146247619Y-105204642D01*
X146371428Y-105266547D01*
X146619047Y-105328452D01*
X146804761Y-105328452D01*
X147052380Y-105266547D01*
X147176190Y-105204642D01*
X147300000Y-105080833D01*
X147361904Y-104895119D01*
X147361904Y-104771309D01*
X147300000Y-104585595D01*
X147238095Y-104523690D01*
X146061904Y-102914166D02*
X146061904Y-102666547D01*
X146123809Y-102542738D01*
X146185714Y-102480833D01*
X146371428Y-102357023D01*
X146619047Y-102295119D01*
X147114285Y-102295119D01*
X147238095Y-102357023D01*
X147300000Y-102418928D01*
X147361904Y-102542738D01*
X147361904Y-102790357D01*
X147300000Y-102914166D01*
X147238095Y-102976071D01*
X147114285Y-103037976D01*
X146804761Y-103037976D01*
X146680952Y-102976071D01*
X146619047Y-102914166D01*
X146557142Y-102790357D01*
X146557142Y-102542738D01*
X146619047Y-102418928D01*
X146680952Y-102357023D01*
X146804761Y-102295119D01*
X143961904Y-109104642D02*
X144580952Y-109537976D01*
X143961904Y-109847500D02*
X145261904Y-109847500D01*
X145261904Y-109352261D01*
X145200000Y-109228452D01*
X145138095Y-109166547D01*
X145014285Y-109104642D01*
X144828571Y-109104642D01*
X144704761Y-109166547D01*
X144642857Y-109228452D01*
X144580952Y-109352261D01*
X144580952Y-109847500D01*
X144642857Y-108547500D02*
X144642857Y-108114166D01*
X143961904Y-107928452D02*
X143961904Y-108547500D01*
X145261904Y-108547500D01*
X145261904Y-107928452D01*
X144023809Y-107433214D02*
X143961904Y-107247500D01*
X143961904Y-106937976D01*
X144023809Y-106814166D01*
X144085714Y-106752261D01*
X144209523Y-106690357D01*
X144333333Y-106690357D01*
X144457142Y-106752261D01*
X144519047Y-106814166D01*
X144580952Y-106937976D01*
X144642857Y-107185595D01*
X144704761Y-107309404D01*
X144766666Y-107371309D01*
X144890476Y-107433214D01*
X145014285Y-107433214D01*
X145138095Y-107371309D01*
X145200000Y-107309404D01*
X145261904Y-107185595D01*
X145261904Y-106876071D01*
X145200000Y-106690357D01*
X144642857Y-106133214D02*
X144642857Y-105699880D01*
X143961904Y-105514166D02*
X143961904Y-106133214D01*
X145261904Y-106133214D01*
X145261904Y-105514166D01*
X145261904Y-105142738D02*
X145261904Y-104399880D01*
X143961904Y-104771309D02*
X145261904Y-104771309D01*
X145261904Y-103099880D02*
X145261904Y-102233214D01*
X143961904Y-102790357D01*
X141985714Y-107123690D02*
X141923809Y-107185595D01*
X141861904Y-107371309D01*
X141861904Y-107495119D01*
X141923809Y-107680833D01*
X142047619Y-107804642D01*
X142171428Y-107866547D01*
X142419047Y-107928452D01*
X142604761Y-107928452D01*
X142852380Y-107866547D01*
X142976190Y-107804642D01*
X143100000Y-107680833D01*
X143161904Y-107495119D01*
X143161904Y-107371309D01*
X143100000Y-107185595D01*
X143038095Y-107123690D01*
X141923809Y-106628452D02*
X141861904Y-106442738D01*
X141861904Y-106133214D01*
X141923809Y-106009404D01*
X141985714Y-105947500D01*
X142109523Y-105885595D01*
X142233333Y-105885595D01*
X142357142Y-105947500D01*
X142419047Y-106009404D01*
X142480952Y-106133214D01*
X142542857Y-106380833D01*
X142604761Y-106504642D01*
X142666666Y-106566547D01*
X142790476Y-106628452D01*
X142914285Y-106628452D01*
X143038095Y-106566547D01*
X143100000Y-106504642D01*
X143161904Y-106380833D01*
X143161904Y-106071309D01*
X143100000Y-105885595D01*
X141861904Y-105328452D02*
X143161904Y-105328452D01*
X141861904Y-104585595D01*
X143161904Y-104585595D01*
X143161904Y-102357023D02*
X143161904Y-102976071D01*
X142542857Y-103037976D01*
X142604761Y-102976071D01*
X142666666Y-102852261D01*
X142666666Y-102542738D01*
X142604761Y-102418928D01*
X142542857Y-102357023D01*
X142419047Y-102295119D01*
X142109523Y-102295119D01*
X141985714Y-102357023D01*
X141923809Y-102418928D01*
X141861904Y-102542738D01*
X141861904Y-102852261D01*
X141923809Y-102976071D01*
X141985714Y-103037976D01*
X139761904Y-106566547D02*
X141061904Y-106566547D01*
X141061904Y-106257023D01*
X141000000Y-106071309D01*
X140876190Y-105947500D01*
X140752380Y-105885595D01*
X140504761Y-105823690D01*
X140319047Y-105823690D01*
X140071428Y-105885595D01*
X139947619Y-105947500D01*
X139823809Y-106071309D01*
X139761904Y-106257023D01*
X139761904Y-106566547D01*
X139885714Y-104523690D02*
X139823809Y-104585595D01*
X139761904Y-104771309D01*
X139761904Y-104895119D01*
X139823809Y-105080833D01*
X139947619Y-105204642D01*
X140071428Y-105266547D01*
X140319047Y-105328452D01*
X140504761Y-105328452D01*
X140752380Y-105266547D01*
X140876190Y-105204642D01*
X141000000Y-105080833D01*
X141061904Y-104895119D01*
X141061904Y-104771309D01*
X141000000Y-104585595D01*
X140938095Y-104523690D01*
X141061904Y-103099880D02*
X141061904Y-102295119D01*
X140566666Y-102728452D01*
X140566666Y-102542738D01*
X140504761Y-102418928D01*
X140442857Y-102357023D01*
X140319047Y-102295119D01*
X140009523Y-102295119D01*
X139885714Y-102357023D01*
X139823809Y-102418928D01*
X139761904Y-102542738D01*
X139761904Y-102914166D01*
X139823809Y-103037976D01*
X139885714Y-103099880D01*
X138900000Y-107247500D02*
X138961904Y-107371309D01*
X138961904Y-107557023D01*
X138900000Y-107742738D01*
X138776190Y-107866547D01*
X138652380Y-107928452D01*
X138404761Y-107990357D01*
X138219047Y-107990357D01*
X137971428Y-107928452D01*
X137847619Y-107866547D01*
X137723809Y-107742738D01*
X137661904Y-107557023D01*
X137661904Y-107433214D01*
X137723809Y-107247500D01*
X137785714Y-107185595D01*
X138219047Y-107185595D01*
X138219047Y-107433214D01*
X137661904Y-106628452D02*
X138961904Y-106628452D01*
X137661904Y-105885595D01*
X138961904Y-105885595D01*
X137661904Y-105266547D02*
X138961904Y-105266547D01*
X138961904Y-104957023D01*
X138900000Y-104771309D01*
X138776190Y-104647500D01*
X138652380Y-104585595D01*
X138404761Y-104523690D01*
X138219047Y-104523690D01*
X137971428Y-104585595D01*
X137847619Y-104647500D01*
X137723809Y-104771309D01*
X137661904Y-104957023D01*
X137661904Y-105266547D01*
X137661904Y-102295119D02*
X137661904Y-103037976D01*
X137661904Y-102666547D02*
X138961904Y-102666547D01*
X138776190Y-102790357D01*
X138652380Y-102914166D01*
X138590476Y-103037976D01*
X160962023Y-81038095D02*
X161704880Y-81038095D01*
X161333452Y-81038095D02*
X161333452Y-79738095D01*
X161457261Y-79923809D01*
X161581071Y-80047619D01*
X161704880Y-80109523D01*
X159414404Y-81038095D02*
X159414404Y-79738095D01*
X158981071Y-80666666D01*
X158547738Y-79738095D01*
X158547738Y-81038095D01*
X157928690Y-81038095D02*
X157928690Y-79738095D01*
X157371547Y-80976190D02*
X157185833Y-81038095D01*
X156876309Y-81038095D01*
X156752500Y-80976190D01*
X156690595Y-80914285D01*
X156628690Y-80790476D01*
X156628690Y-80666666D01*
X156690595Y-80542857D01*
X156752500Y-80480952D01*
X156876309Y-80419047D01*
X157123928Y-80357142D01*
X157247738Y-80295238D01*
X157309642Y-80233333D01*
X157371547Y-80109523D01*
X157371547Y-79985714D01*
X157309642Y-79861904D01*
X157247738Y-79800000D01*
X157123928Y-79738095D01*
X156814404Y-79738095D01*
X156628690Y-79800000D01*
X155823928Y-79738095D02*
X155576309Y-79738095D01*
X155452500Y-79800000D01*
X155328690Y-79923809D01*
X155266785Y-80171428D01*
X155266785Y-80604761D01*
X155328690Y-80852380D01*
X155452500Y-80976190D01*
X155576309Y-81038095D01*
X155823928Y-81038095D01*
X155947738Y-80976190D01*
X156071547Y-80852380D01*
X156133452Y-80604761D01*
X156133452Y-80171428D01*
X156071547Y-79923809D01*
X155947738Y-79800000D01*
X155823928Y-79738095D01*
X161766785Y-81838095D02*
X160962023Y-81838095D01*
X161395357Y-82333333D01*
X161209642Y-82333333D01*
X161085833Y-82395238D01*
X161023928Y-82457142D01*
X160962023Y-82580952D01*
X160962023Y-82890476D01*
X161023928Y-83014285D01*
X161085833Y-83076190D01*
X161209642Y-83138095D01*
X161581071Y-83138095D01*
X161704880Y-83076190D01*
X161766785Y-83014285D01*
X159476309Y-83076190D02*
X159290595Y-83138095D01*
X158981071Y-83138095D01*
X158857261Y-83076190D01*
X158795357Y-83014285D01*
X158733452Y-82890476D01*
X158733452Y-82766666D01*
X158795357Y-82642857D01*
X158857261Y-82580952D01*
X158981071Y-82519047D01*
X159228690Y-82457142D01*
X159352500Y-82395238D01*
X159414404Y-82333333D01*
X159476309Y-82209523D01*
X159476309Y-82085714D01*
X159414404Y-81961904D01*
X159352500Y-81900000D01*
X159228690Y-81838095D01*
X158919166Y-81838095D01*
X158733452Y-81900000D01*
X157433452Y-83014285D02*
X157495357Y-83076190D01*
X157681071Y-83138095D01*
X157804880Y-83138095D01*
X157990595Y-83076190D01*
X158114404Y-82952380D01*
X158176309Y-82828571D01*
X158238214Y-82580952D01*
X158238214Y-82395238D01*
X158176309Y-82147619D01*
X158114404Y-82023809D01*
X157990595Y-81900000D01*
X157804880Y-81838095D01*
X157681071Y-81838095D01*
X157495357Y-81900000D01*
X157433452Y-81961904D01*
X156876309Y-83138095D02*
X156876309Y-81838095D01*
X156133452Y-83138095D02*
X156690595Y-82395238D01*
X156133452Y-81838095D02*
X156876309Y-82580952D01*
X161023928Y-83938095D02*
X161642976Y-83938095D01*
X161704880Y-84557142D01*
X161642976Y-84495238D01*
X161519166Y-84433333D01*
X161209642Y-84433333D01*
X161085833Y-84495238D01*
X161023928Y-84557142D01*
X160962023Y-84680952D01*
X160962023Y-84990476D01*
X161023928Y-85114285D01*
X161085833Y-85176190D01*
X161209642Y-85238095D01*
X161519166Y-85238095D01*
X161642976Y-85176190D01*
X161704880Y-85114285D01*
X158671547Y-85238095D02*
X159104880Y-84619047D01*
X159414404Y-85238095D02*
X159414404Y-83938095D01*
X158919166Y-83938095D01*
X158795357Y-84000000D01*
X158733452Y-84061904D01*
X158671547Y-84185714D01*
X158671547Y-84371428D01*
X158733452Y-84495238D01*
X158795357Y-84557142D01*
X158919166Y-84619047D01*
X159414404Y-84619047D01*
X158114404Y-84557142D02*
X157681071Y-84557142D01*
X157495357Y-85238095D02*
X158114404Y-85238095D01*
X158114404Y-83938095D01*
X157495357Y-83938095D01*
X157000119Y-85176190D02*
X156814404Y-85238095D01*
X156504880Y-85238095D01*
X156381071Y-85176190D01*
X156319166Y-85114285D01*
X156257261Y-84990476D01*
X156257261Y-84866666D01*
X156319166Y-84742857D01*
X156381071Y-84680952D01*
X156504880Y-84619047D01*
X156752500Y-84557142D01*
X156876309Y-84495238D01*
X156938214Y-84433333D01*
X157000119Y-84309523D01*
X157000119Y-84185714D01*
X156938214Y-84061904D01*
X156876309Y-84000000D01*
X156752500Y-83938095D01*
X156442976Y-83938095D01*
X156257261Y-84000000D01*
X155700119Y-84557142D02*
X155266785Y-84557142D01*
X155081071Y-85238095D02*
X155700119Y-85238095D01*
X155700119Y-83938095D01*
X155081071Y-83938095D01*
X154709642Y-83938095D02*
X153966785Y-83938095D01*
X154338214Y-85238095D02*
X154338214Y-83938095D01*
X173211904Y-102762023D02*
X173211904Y-103504880D01*
X173211904Y-103133452D02*
X174511904Y-103133452D01*
X174326190Y-103257261D01*
X174202380Y-103381071D01*
X174140476Y-103504880D01*
X173211904Y-101214404D02*
X174511904Y-101214404D01*
X174511904Y-100719166D01*
X174450000Y-100595357D01*
X174388095Y-100533452D01*
X174264285Y-100471547D01*
X174078571Y-100471547D01*
X173954761Y-100533452D01*
X173892857Y-100595357D01*
X173830952Y-100719166D01*
X173830952Y-101214404D01*
X174511904Y-100038214D02*
X173211904Y-99728690D01*
X174140476Y-99481071D01*
X173211904Y-99233452D01*
X174511904Y-98923928D01*
X173211904Y-97685833D02*
X173830952Y-98119166D01*
X173211904Y-98428690D02*
X174511904Y-98428690D01*
X174511904Y-97933452D01*
X174450000Y-97809642D01*
X174388095Y-97747738D01*
X174264285Y-97685833D01*
X174078571Y-97685833D01*
X173954761Y-97747738D01*
X173892857Y-97809642D01*
X173830952Y-97933452D01*
X173830952Y-98428690D01*
X173088095Y-97438214D02*
X173088095Y-96447738D01*
X173892857Y-95704880D02*
X173830952Y-95519166D01*
X173769047Y-95457261D01*
X173645238Y-95395357D01*
X173459523Y-95395357D01*
X173335714Y-95457261D01*
X173273809Y-95519166D01*
X173211904Y-95642976D01*
X173211904Y-96138214D01*
X174511904Y-96138214D01*
X174511904Y-95704880D01*
X174450000Y-95581071D01*
X174388095Y-95519166D01*
X174264285Y-95457261D01*
X174140476Y-95457261D01*
X174016666Y-95519166D01*
X173954761Y-95581071D01*
X173892857Y-95704880D01*
X173892857Y-96138214D01*
X174511904Y-95023928D02*
X174511904Y-94281071D01*
X173211904Y-94652500D02*
X174511904Y-94652500D01*
X173211904Y-93847738D02*
X174511904Y-93847738D01*
X173211904Y-93104880D01*
X174511904Y-93104880D01*
X172411904Y-103566785D02*
X172411904Y-102762023D01*
X171916666Y-103195357D01*
X171916666Y-103009642D01*
X171854761Y-102885833D01*
X171792857Y-102823928D01*
X171669047Y-102762023D01*
X171359523Y-102762023D01*
X171235714Y-102823928D01*
X171173809Y-102885833D01*
X171111904Y-103009642D01*
X171111904Y-103381071D01*
X171173809Y-103504880D01*
X171235714Y-103566785D01*
X171111904Y-101214404D02*
X172411904Y-101214404D01*
X172411904Y-100904880D01*
X172350000Y-100719166D01*
X172226190Y-100595357D01*
X172102380Y-100533452D01*
X171854761Y-100471547D01*
X171669047Y-100471547D01*
X171421428Y-100533452D01*
X171297619Y-100595357D01*
X171173809Y-100719166D01*
X171111904Y-100904880D01*
X171111904Y-101214404D01*
X172411904Y-99666785D02*
X172411904Y-99419166D01*
X172350000Y-99295357D01*
X172226190Y-99171547D01*
X171978571Y-99109642D01*
X171545238Y-99109642D01*
X171297619Y-99171547D01*
X171173809Y-99295357D01*
X171111904Y-99419166D01*
X171111904Y-99666785D01*
X171173809Y-99790595D01*
X171297619Y-99914404D01*
X171545238Y-99976309D01*
X171978571Y-99976309D01*
X172226190Y-99914404D01*
X172350000Y-99790595D01*
X172411904Y-99666785D01*
X172411904Y-98676309D02*
X171111904Y-98366785D01*
X172040476Y-98119166D01*
X171111904Y-97871547D01*
X172411904Y-97562023D01*
X171111904Y-97066785D02*
X172411904Y-97066785D01*
X171111904Y-96323928D01*
X172411904Y-96323928D01*
X171792857Y-94281071D02*
X171730952Y-94095357D01*
X171669047Y-94033452D01*
X171545238Y-93971547D01*
X171359523Y-93971547D01*
X171235714Y-94033452D01*
X171173809Y-94095357D01*
X171111904Y-94219166D01*
X171111904Y-94714404D01*
X172411904Y-94714404D01*
X172411904Y-94281071D01*
X172350000Y-94157261D01*
X172288095Y-94095357D01*
X172164285Y-94033452D01*
X172040476Y-94033452D01*
X171916666Y-94095357D01*
X171854761Y-94157261D01*
X171792857Y-94281071D01*
X171792857Y-94714404D01*
X172411904Y-93600119D02*
X172411904Y-92857261D01*
X171111904Y-93228690D02*
X172411904Y-93228690D01*
X171111904Y-92423928D02*
X172411904Y-92423928D01*
X171111904Y-91681071D01*
X172411904Y-91681071D01*
X170311904Y-102823928D02*
X170311904Y-103442976D01*
X169692857Y-103504880D01*
X169754761Y-103442976D01*
X169816666Y-103319166D01*
X169816666Y-103009642D01*
X169754761Y-102885833D01*
X169692857Y-102823928D01*
X169569047Y-102762023D01*
X169259523Y-102762023D01*
X169135714Y-102823928D01*
X169073809Y-102885833D01*
X169011904Y-103009642D01*
X169011904Y-103319166D01*
X169073809Y-103442976D01*
X169135714Y-103504880D01*
X170311904Y-101214404D02*
X169259523Y-101214404D01*
X169135714Y-101152500D01*
X169073809Y-101090595D01*
X169011904Y-100966785D01*
X169011904Y-100719166D01*
X169073809Y-100595357D01*
X169135714Y-100533452D01*
X169259523Y-100471547D01*
X170311904Y-100471547D01*
X169011904Y-99852500D02*
X170311904Y-99852500D01*
X170311904Y-99357261D01*
X170250000Y-99233452D01*
X170188095Y-99171547D01*
X170064285Y-99109642D01*
X169878571Y-99109642D01*
X169754761Y-99171547D01*
X169692857Y-99233452D01*
X169630952Y-99357261D01*
X169630952Y-99852500D01*
X169692857Y-97128690D02*
X169630952Y-96942976D01*
X169569047Y-96881071D01*
X169445238Y-96819166D01*
X169259523Y-96819166D01*
X169135714Y-96881071D01*
X169073809Y-96942976D01*
X169011904Y-97066785D01*
X169011904Y-97562023D01*
X170311904Y-97562023D01*
X170311904Y-97128690D01*
X170250000Y-97004880D01*
X170188095Y-96942976D01*
X170064285Y-96881071D01*
X169940476Y-96881071D01*
X169816666Y-96942976D01*
X169754761Y-97004880D01*
X169692857Y-97128690D01*
X169692857Y-97562023D01*
X170311904Y-96447738D02*
X170311904Y-95704880D01*
X169011904Y-96076309D02*
X170311904Y-96076309D01*
X169011904Y-95271547D02*
X170311904Y-95271547D01*
X169011904Y-94528690D01*
X170311904Y-94528690D01*
X168211904Y-103566785D02*
X168211904Y-102700119D01*
X166911904Y-103257261D01*
X166911904Y-101214404D02*
X168211904Y-101214404D01*
X166911904Y-100471547D01*
X168211904Y-100471547D01*
X167035714Y-99109642D02*
X166973809Y-99171547D01*
X166911904Y-99357261D01*
X166911904Y-99481071D01*
X166973809Y-99666785D01*
X167097619Y-99790595D01*
X167221428Y-99852500D01*
X167469047Y-99914404D01*
X167654761Y-99914404D01*
X167902380Y-99852500D01*
X168026190Y-99790595D01*
X168150000Y-99666785D01*
X168211904Y-99481071D01*
X168211904Y-99357261D01*
X168150000Y-99171547D01*
X168088095Y-99109642D01*
X164811904Y-103381071D02*
X164811904Y-103133452D01*
X164873809Y-103009642D01*
X164935714Y-102947738D01*
X165121428Y-102823928D01*
X165369047Y-102762023D01*
X165864285Y-102762023D01*
X165988095Y-102823928D01*
X166050000Y-102885833D01*
X166111904Y-103009642D01*
X166111904Y-103257261D01*
X166050000Y-103381071D01*
X165988095Y-103442976D01*
X165864285Y-103504880D01*
X165554761Y-103504880D01*
X165430952Y-103442976D01*
X165369047Y-103381071D01*
X165307142Y-103257261D01*
X165307142Y-103009642D01*
X165369047Y-102885833D01*
X165430952Y-102823928D01*
X165554761Y-102762023D01*
X164873809Y-101276309D02*
X164811904Y-101090595D01*
X164811904Y-100781071D01*
X164873809Y-100657261D01*
X164935714Y-100595357D01*
X165059523Y-100533452D01*
X165183333Y-100533452D01*
X165307142Y-100595357D01*
X165369047Y-100657261D01*
X165430952Y-100781071D01*
X165492857Y-101028690D01*
X165554761Y-101152500D01*
X165616666Y-101214404D01*
X165740476Y-101276309D01*
X165864285Y-101276309D01*
X165988095Y-101214404D01*
X166050000Y-101152500D01*
X166111904Y-101028690D01*
X166111904Y-100719166D01*
X166050000Y-100533452D01*
X165492857Y-99976309D02*
X165492857Y-99542976D01*
X164811904Y-99357261D02*
X164811904Y-99976309D01*
X166111904Y-99976309D01*
X166111904Y-99357261D01*
X166111904Y-98985833D02*
X166111904Y-98242976D01*
X164811904Y-98614404D02*
X166111904Y-98614404D01*
X165492857Y-96385833D02*
X165430952Y-96200119D01*
X165369047Y-96138214D01*
X165245238Y-96076309D01*
X165059523Y-96076309D01*
X164935714Y-96138214D01*
X164873809Y-96200119D01*
X164811904Y-96323928D01*
X164811904Y-96819166D01*
X166111904Y-96819166D01*
X166111904Y-96385833D01*
X166050000Y-96262023D01*
X165988095Y-96200119D01*
X165864285Y-96138214D01*
X165740476Y-96138214D01*
X165616666Y-96200119D01*
X165554761Y-96262023D01*
X165492857Y-96385833D01*
X165492857Y-96819166D01*
X166111904Y-95704880D02*
X166111904Y-94962023D01*
X164811904Y-95333452D02*
X166111904Y-95333452D01*
X164811904Y-94528690D02*
X166111904Y-94528690D01*
X164811904Y-93785833D01*
X166111904Y-93785833D01*
%LPC*%
D12*
G04 #@! TO.C,J3*
X173300000Y-83100000D03*
X171300000Y-83100000D03*
X173300000Y-81100000D03*
X171300000Y-81100000D03*
X173300000Y-79100000D03*
D13*
X171300000Y-79100000D03*
G04 #@! TD*
D12*
G04 #@! TO.C,J4*
X135600000Y-102100000D03*
X135600000Y-104100000D03*
X133600000Y-102100000D03*
X133600000Y-104100000D03*
X131600000Y-102100000D03*
X131600000Y-104100000D03*
X129600000Y-102100000D03*
X129600000Y-104100000D03*
X127600000Y-102100000D03*
D13*
X127600000Y-104100000D03*
G04 #@! TD*
D14*
G04 #@! TO.C,J1*
X155000000Y-107300000D03*
X155000000Y-105300000D03*
X157000000Y-107300000D03*
X157000000Y-105300000D03*
X159000000Y-107300000D03*
X159000000Y-105300000D03*
X161000000Y-107300000D03*
X161000000Y-105300000D03*
X163000000Y-107300000D03*
D13*
X163000000Y-105300000D03*
G04 #@! TD*
D15*
G04 #@! TO.C,J2*
X169540000Y-74000000D03*
D16*
X167000000Y-74000000D03*
G04 #@! TD*
D15*
G04 #@! TO.C,J5*
X151540000Y-74000000D03*
D16*
X149000000Y-74000000D03*
G04 #@! TD*
D15*
G04 #@! TO.C,J6*
X160540000Y-74000000D03*
D16*
X158000000Y-74000000D03*
G04 #@! TD*
D17*
G04 #@! TO.C,*
X181550000Y-73450000D03*
G04 #@! TD*
G04 #@! TO.C,*
X181550000Y-109550000D03*
G04 #@! TD*
G04 #@! TO.C,*
X118450000Y-109550000D03*
G04 #@! TD*
G04 #@! TO.C,*
X118450000Y-73450000D03*
G04 #@! TD*
M02*
